{
classes = (
{
automatic = 1;
code = "A Aacute Abreve Acircumflex Adieresis Agrave Amacron Aogonek Aring Atilde AE B C Cacute Ccaron Ccedilla D Eth Dcaron Dcroat E Eacute Ecaron Ecircumflex Edieresis Edotaccent Egrave Emacron Eogonek F G Gbreve Gcommaaccent H I Iacute Icircumflex Idieresis Idotaccent Igrave Imacron Iogonek J K Kcommaaccent L Lacute Lcaron Lcommaaccent Lslash M N Nacute Ncaron Ncommaaccent Ntilde O Oacute Ocircumflex Odieresis Ograve Ohungarumlaut Omacron Oslash Otilde OE P Thorn Q R Racute Rcaron Rcommaaccent S Sacute Scaron Scedilla Scommaaccent T Tcaron U Uacute Ucircumflex Udieresis Ugrave Uhungarumlaut Umacron Uogonek Uring V W X Y Yacute Ydieresis Z Zacute Zcaron Zdotaccent uni0162 uni021A A-cy Be-cy Ve-cy Ge-cy Gje-cy Gheupturn-cy De-cy Ie-cy Iegrave-cy Io-cy Zhe-cy Ze-cy Ii-cy Iishort-cy Igrave-cy Ka-cy Kje-cy El-cy Em-cy En-cy O-cy Pe-cy Er-cy Es-cy Te-cy U-cy Ushort-cy Ef-cy Ha-cy Che-cy Tse-cy Sha-cy Shcha-cy Dzhe-cy Ia-cy Softsign-cy Hardsign-cy Yeru-cy Lje-cy Nje-cy Dze-cy E-cy Ereversed-cy I-cy Yi-cy Je-cy Tshe-cy Iu-cy Dje-cy Ustraitstroke-cy Gamma Delta Pi Omega";
name = Uppercase;
}
);
copyright = "Copyright (c) 2011, Cyreal (www.cyreal.org) with Reserved Font Name \"Lora\"";
customParameters = (
{
name = trademark;
value = "Lora is a trademark of Cyreal (www.cyreal.org).";
},
{
name = description;
value = "Lora is designed by Olga Karpushina, and Alexei Vanyashin for Cyreal.\012\012This Font Software is licensed under the SIL Open Font License, Version 1.1. \012";
},
{
name = license;
value = "Copyright (c) 2011, Cyreal (www.cyreal.org)\012with Reserved Font Name \"Lora\"\012\012This Font Software is licensed under the SIL Open Font License,\012Version 1.1. This license is available with a FAQ at:\012http://scripts.sil.org/OFL";
},
{
name = licenseURL;
value = "http://scripts.sil.org/OFL";
},
{
name = fsType;
value = (
);
}
);
date = "2013-06-19 12:54:17 +0000";
designer = "Olga Karpushina, Alexei Vanyashin";

glyphs = (
{
glyphname = A;
lastChange = "2013-05-24 22:55:06 +0000";
layers = (
{
anchors = (
{
name = ogonek;
position = "{1136, 10}";
},
{
name = top;
position = "{660, 1438}";
}
);
layerId = UUID0;
name = "Regular Italic";
paths = (
{
closed = 1;
nodes = (
"653 1473 LINE",
"191 324 LINE SMOOTH",
"129 171 OFFCURVE",
"76 70 OFFCURVE",
"-26 68 CURVE",
"-29 0 LINE",
"346 0 LINE",
"350 90 LINE",
"197 82 LINE",
"221 127 OFFCURVE",
"235 158 OFFCURVE",
"260 223 CURVE SMOOTH",
"285 287 OFFCURVE",
"312 358 OFFCURVE",
"343 442 CURVE",
"867 454 LINE",
"926 262 LINE SMOOTH",
"949 186 OFFCURVE",
"973 72 OFFCURVE",
"819 68 CURVE",
"817 0 LINE",
"1262 0 LINE",
"1266 90 LINE",
"1133 82 LINE",
"1139 143 OFFCURVE",
"1109 250 OFFCURVE",
"1090 307 CURVE SMOOTH",
"699 1473 LINE"
);
},
{
closed = 1;
nodes = (
"705 965 OFFCURVE",
"777 744 OFFCURVE",
"844 530 CURVE",
"375 530 LINE",
"417 643 OFFCURVE",
"469 781 OFFCURVE",
"539 958 CURVE",
"624 1188 LINE",
"628 1188 LINE"
);
}
);
width = 1292;
},
{
anchors = (
{
name = ogonek;
position = "{1228, 10}";
},
{
name = top;
position = "{708, 1434}";
}
);
layerId = "6B2A2AD0-3CEC-4B3D-96BE-6A11A3496094";
name = "Bold Italic";
paths = (
{
closed = 1;
nodes = (
"649 1470 LINE",
"192 375 LINE SMOOTH",
"140 252 OFFCURVE",
"96 141 OFFCURVE",
"-17 141 CURVE",
"-24 0 LINE",
"414 0 LINE",
"423 164 LINE",
"394 163 OFFCURVE",
"317 161 OFFCURVE",
"273 158 CURVE",
"298 205 OFFCURVE",
"331 287 OFFCURVE",
"346 324 CURVE SMOOTH",
"384 420 LINE",
"833 428 LINE",
"869 316 LINE SMOOTH",
"901 212 OFFCURVE",
"896 135 OFFCURVE",
"782 135 CURVE",
"775 0 LINE",
"1322 0 LINE",
"1330 158 LINE",
"1301 157 OFFCURVE",
"1256 155 OFFCURVE",
"1212 152 CURVE",
"1208 213 OFFCURVE",
"1178 313 OFFCURVE",
"1165 354 CURVE SMOOTH",
"786 1470 LINE"
);
},
{
closed = 1;
nodes = (
"654 1034 OFFCURVE",
"679 928 OFFCURVE",
"709 830 CURVE SMOOTH",
"789 573 LINE",
"444 573 LINE",
"549 839 LINE SMOOTH",
"600 967 OFFCURVE",
"632 1062 OFFCURVE",
"643 1109 CURVE",
"645 1109 LINE"
);
}
);
width = 1365;
}
);
unicode = 0041;
},
{
glyphname = AE;
lastChange = "2013-05-24 22:55:06 +0000";
layers = (
{
layerId = UUID0;
name = "Regular Italic";
paths = (
{
closed = 1;
nodes = (
"809 1434 LINE",
"805 1343 LINE",
"989 1352 LINE",
"989 1351 OFFCURVE",
"988 1350 OFFCURVE",
"988 1350 CURVE",
"192 256 LINE SMOOTH",
"133 174 OFFCURVE",
"61 68 OFFCURVE",
"-45 68 CURVE",
"-49 0 LINE",
"332 0 LINE",
"336 90 LINE",
"178 81 LINE",
"178 83 LINE",
"438 442 LINE",
"938 453 LINE",
"928 266 LINE SMOOTH",
"922 141 OFFCURVE",
"899 76 OFFCURVE",
"776 74 CURVE",
"772 0 LINE",
"1821 0 LINE",
"1853 399 LINE",
"1784 399 LINE",
"1771 158 OFFCURVE",
"1655 73 OFFCURVE",
"1477 76 CURVE SMOOTH",
"1081 82 LINE",
"1087 117 OFFCURVE",
"1092 168 OFFCURVE",
"1096 242 CURVE SMOOTH",
"1121 706 LINE",
"1169 708 OFFCURVE",
"1220 710 OFFCURVE",
"1271 710 CURVE SMOOTH",
"1444 710 OFFCURVE",
"1513 711 OFFCURVE",
"1505 530 CURVE",
"1573 530 LINE",
"1595 977 LINE",
"1528 977 LINE",
"1520 797 OFFCURVE",
"1448 784 OFFCURVE",
"1276 784 CURVE SMOOTH",
"1125 784 LINE",
"1143 1114 LINE SMOOTH",
"1152 1280 OFFCURVE",
"1157 1354 OFFCURVE",
"1311 1358 CURVE SMOOTH",
"1487 1362 LINE SMOOTH",
"1640 1366 OFFCURVE",
"1761 1317 OFFCURVE",
"1749 1075 CURVE",
"1817 1075 LINE",
"1825 1434 LINE"
);
},
{
closed = 1;
nodes = (
"942 530 LINE",
"501 530 LINE",
"973 1192 LINE",
"975 1192 LINE"
);
}
);
width = 1956;
},
{
layerId = "6B2A2AD0-3CEC-4B3D-96BE-6A11A3496094";
name = "Bold Italic";
paths = (
{
closed = 1;
nodes = (
"777 1434 LINE",
"769 1276 LINE",
"798 1277 OFFCURVE",
"879 1279 OFFCURVE",
"923 1282 CURVE",
"923 1280 LINE",
"213 350 LINE SMOOTH",
"139 253 OFFCURVE",
"54 135 OFFCURVE",
"-42 135 CURVE",
"-49 0 LINE",
"409 0 LINE",
"417 158 LINE",
"253 151 LINE",
"253 153 LINE",
"299 186 OFFCURVE",
"344 245 OFFCURVE",
"391 309 CURVE SMOOTH",
"469 414 LINE",
"597 416 OFFCURVE",
"743 421 OFFCURVE",
"869 424 CURVE",
"864 313 LINE SMOOTH",
"856 148 OFFCURVE",
"801 140 OFFCURVE",
"709 135 CURVE",
"702 0 LINE",
"1778 0 LINE",
"1814 451 LINE",
"1679 451 LINE",
"1667 229 OFFCURVE",
"1535 156 OFFCURVE",
"1414 156 CURVE SMOOTH",
"1139 155 LINE",
"1146 190 OFFCURVE",
"1153 262 OFFCURVE",
"1157 336 CURVE SMOOTH",
"1174 672 LINE",
"1228 673 LINE SMOOTH",
"1339 676 OFFCURVE",
"1429 665 OFFCURVE",
"1420 493 CURVE",
"1555 493 LINE",
"1581 991 LINE",
"1423 991 LINE",
"1423 941 OFFCURVE",
"1422 870 OFFCURVE",
"1423 814 CURVE",
"1182 814 LINE",
"1198 1121 LINE SMOOTH",
"1206 1280 OFFCURVE",
"1258 1297 OFFCURVE",
"1344 1299 CURVE SMOOTH",
"1418 1301 LINE SMOOTH",
"1529 1304 OFFCURVE",
"1665 1259 OFFCURVE",
"1653 1037 CURVE",
"1788 1037 LINE",
"1797 1434 LINE"
);
},
{
closed = 1;
nodes = (
"877 565 LINE",
"576 565 LINE",
"754 803 LINE SMOOTH",
"841 920 OFFCURVE",
"858 942 OFFCURVE",
"910 1026 CURVE",
"912 1026 LINE"
);
}
);
width = 1906;
}
);
unicode = 00C6;
},
{
glyphname = B;
lastChange = "2013-05-24 22:55:06 +0000";
layers = (
{
layerId = UUID0;
name = "Regular Italic";
paths = (
{
closed = 1;
nodes = (
"451 1438 OFFCURVE",
"308 1434 OFFCURVE",
"158 1434 CURVE",
"152 1343 LINE",
"302 1352 LINE",
"295 1317 OFFCURVE",
"289 1264 OFFCURVE",
"287 1190 CURVE SMOOTH",
"242 330 LINE",
"234 176 OFFCURVE",
"240 72 OFFCURVE",
"87 68 CURVE",
"82 0 LINE",
"674 0 LINE SMOOTH",
"951 0 OFFCURVE",
"1160 150 OFFCURVE",
"1172 401 CURVE SMOOTH",
"1184 612 OFFCURVE",
"1045 766 OFFCURVE",
"744 766 CURVE",
"744 770 LINE",
"971 811 OFFCURVE",
"1084 954 OFFCURVE",
"1092 1087 CURVE SMOOTH",
"1108 1329 OFFCURVE",
"932 1438 OFFCURVE",
"615 1438 CURVE SMOOTH"
);
},
{
closed = 1;
nodes = (
"830 711 OFFCURVE",
"992 631 OFFCURVE",
"979 389 CURVE SMOOTH",
"969 184 OFFCURVE",
"822 80 OFFCURVE",
"611 80 CURVE SMOOTH",
"584 80 OFFCURVE",
"457 78 OFFCURVE",
"394 84 CURVE",
"400 119 OFFCURVE",
"404 170 OFFCURVE",
"408 244 CURVE SMOOTH",
"433 705 LINE",
"498 709 OFFCURVE",
"562 711 OFFCURVE",
"644 711 CURVE SMOOTH"
);
},
{
closed = 1;
nodes = (
"756 1364 OFFCURVE",
"920 1319 OFFCURVE",
"912 1098 CURVE SMOOTH",
"906 946 OFFCURVE",
"820 799 OFFCURVE",
"586 788 CURVE SMOOTH",
"541 786 OFFCURVE",
"488 784 OFFCURVE",
"437 784 CURVE",
"457 1165 LINE SMOOTH",
"465 1315 OFFCURVE",
"488 1364 OFFCURVE",
"621 1364 CURVE SMOOTH"
);
}
);
width = 1268;
},
{
layerId = "6B2A2AD0-3CEC-4B3D-96BE-6A11A3496094";
name = "Bold Italic";
paths = (
{
closed = 1;
nodes = (
"147 1434 LINE",
"139 1276 LINE",
"168 1277 OFFCURVE",
"249 1279 OFFCURVE",
"293 1282 CURVE",
"286 1247 OFFCURVE",
"279 1172 OFFCURVE",
"275 1098 CURVE SMOOTH",
"234 313 LINE SMOOTH",
"226 148 OFFCURVE",
"171 140 OFFCURVE",
"79 135 CURVE",
"72 0 LINE",
"764 0 LINE SMOOTH",
"1051 0 OFFCURVE",
"1264 141 OFFCURVE",
"1278 407 CURVE SMOOTH",
"1287 577 OFFCURVE",
"1174 732 OFFCURVE",
"905 774 CURVE",
"905 776 LINE",
"1099 828 OFFCURVE",
"1195 946 OFFCURVE",
"1209 1064 CURVE SMOOTH",
"1236 1315 OFFCURVE",
"1037 1440 OFFCURVE",
"710 1438 CURVE SMOOTH"
);
},
{
closed = 1;
nodes = (
"841 661 OFFCURVE",
"970 602 OFFCURVE",
"960 414 CURVE SMOOTH",
"952 262 OFFCURVE",
"875 156 OFFCURVE",
"709 148 CURVE SMOOTH",
"644 145 OFFCURVE",
"580 145 OFFCURVE",
"508 145 CURVE",
"515 180 OFFCURVE",
"522 252 OFFCURVE",
"526 326 CURVE SMOOTH",
"543 659 LINE",
"596 662 OFFCURVE",
"641 661 OFFCURVE",
"709 661 CURVE SMOOTH"
);
},
{
closed = 1;
nodes = (
"801 1297 OFFCURVE",
"911 1244 OFFCURVE",
"902 1082 CURVE SMOOTH",
"895 932 OFFCURVE",
"831 810 OFFCURVE",
"658 807 CURVE",
"551 804 LINE",
"568 1122 LINE SMOOTH",
"576 1279 OFFCURVE",
"629 1292 OFFCURVE",
"697 1294 CURVE SMOOTH"
);
}
);
width = 1349;
}
);
unicode = 0042;
},
{
glyphname = C;
lastChange = "2013-05-30 16:44:11 +0000";
layers = (
{
anchors = (
{
name = bottom;
position = "{797, 0}";
},
{
name = top;
position = "{879, 1438}";
}
);
layerId = UUID0;
name = "Regular Italic";
paths = (
{
closed = 1;
nodes = (
"366 1467 OFFCURVE",
"123 1079 OFFCURVE",
"102 694 CURVE",
"82 287 OFFCURVE",
"338 -33 OFFCURVE",
"749 -33 CURVE SMOOTH",
"915 -33 OFFCURVE",
"1155 23 OFFCURVE",
"1343 260 CURVE",
"1292 303 LINE",
"1173 152 OFFCURVE",
"985 74 OFFCURVE",
"809 74 CURVE SMOOTH",
"506 74 OFFCURVE",
"274 338 OFFCURVE",
"295 725 CURVE",
"315 1126 OFFCURVE",
"561 1383 OFFCURVE",
"852 1383 CURVE SMOOTH",
"1089 1383 OFFCURVE",
"1243 1236 OFFCURVE",
"1257 980 CURVE",
"1331 980 LINE",
"1356 1455 LINE",
"1245 1455 LINE",
"1250 1344 LINE",
"1248 1344 LINE",
"1127 1426 OFFCURVE",
"998 1467 OFFCURVE",
"844 1467 CURVE SMOOTH"
);
}
);
width = 1405;
},
{
anchors = (
{
name = bottom;
position = "{806, 0}";
},
{
name = top;
position = "{867, 1434}";
}
);
layerId = "6B2A2AD0-3CEC-4B3D-96BE-6A11A3496094";
name = "Bold Italic";
paths = (
{
closed = 1;
nodes = (
"358 1467 OFFCURVE",
"98 1069 OFFCURVE",
"78 696 CURVE SMOOTH",
"57 289 OFFCURVE",
"320 -33 OFFCURVE",
"742 -33 CURVE SMOOTH",
"911 -33 OFFCURVE",
"1161 18 OFFCURVE",
"1375 295 CURVE",
"1294 376 LINE",
"1155 196 OFFCURVE",
"964 121 OFFCURVE",
"801 122 CURVE SMOOTH",
"525 124 OFFCURVE",
"379 384 OFFCURVE",
"398 738 CURVE SMOOTH",
"413 1033 OFFCURVE",
"568 1329 OFFCURVE",
"854 1328 CURVE SMOOTH",
"1045 1327 OFFCURVE",
"1155 1203 OFFCURVE",
"1180 974 CURVE",
"1314 974 LINE",
"1339 1453 LINE",
"1181 1453 LINE",
"1184 1366 LINE",
"1182 1366 LINE",
"1076 1432 OFFCURVE",
"942 1467 OFFCURVE",
"835 1467 CURVE SMOOTH"
);
}
);
width = 1414;
}
);
unicode = 0043;
},
{
glyphname = Ccedilla;
lastChange = "2013-05-24 22:55:06 +0000";
layers = (
{
layerId = UUID0;
name = "Regular Italic";
paths = (
{
closed = 1;
nodes = (
"368 1467 OFFCURVE",
"125 1079 OFFCURVE",
"104 694 CURVE",
"86 337 OFFCURVE",
"281 47 OFFCURVE",
"606 -19 CURVE",
"547 -209 LINE",
"613 -244 LINE",
"637 -225 OFFCURVE",
"664 -217 OFFCURVE",
"692 -213 CURVE SMOOTH",
"748 -206 OFFCURVE",
"783 -231 OFFCURVE",
"780 -281 CURVE SMOOTH",
"776 -360 OFFCURVE",
"649 -422 OFFCURVE",
"510 -446 CURVE",
"522 -514 LINE",
"662 -494 OFFCURVE",
"936 -428 OFFCURVE",
"948 -262 CURVE",
"955 -184 OFFCURVE",
"914 -117 OFFCURVE",
"809 -117 CURVE SMOOTH",
"776 -117 OFFCURVE",
"711 -129 OFFCURVE",
"670 -154 CURVE",
"716 -32 LINE",
"728 -32 OFFCURVE",
"739 -33 OFFCURVE",
"751 -33 CURVE SMOOTH",
"917 -33 OFFCURVE",
"1157 23 OFFCURVE",
"1345 260 CURVE",
"1294 303 LINE",
"1175 152 OFFCURVE",
"987 74 OFFCURVE",
"811 74 CURVE SMOOTH",
"508 74 OFFCURVE",
"276 338 OFFCURVE",
"297 725 CURVE",
"317 1126 OFFCURVE",
"563 1383 OFFCURVE",
"854 1383 CURVE SMOOTH",
"1091 1383 OFFCURVE",
"1245 1236 OFFCURVE",
"1259 980 CURVE",
"1333 980 LINE",
"1358 1455 LINE",
"1247 1455 LINE",
"1252 1344 LINE",
"1130 1428 OFFCURVE",
"1001 1467 OFFCURVE",
"846 1467 CURVE SMOOTH"
);
}
);
width = 1411;
},
{
layerId = "6B2A2AD0-3CEC-4B3D-96BE-6A11A3496094";
name = "Bold Italic";
paths = (
{
closed = 1;
nodes = (
"359 1467 OFFCURVE",
"99 1069 OFFCURVE",
"79 696 CURVE SMOOTH",
"61 349 OFFCURVE",
"249 64 OFFCURVE",
"565 -12 CURVE",
"498 -247 LINE",
"581 -279 LINE",
"623 -246 OFFCURVE",
"726 -223 OFFCURVE",
"722 -299 CURVE SMOOTH",
"718 -383 OFFCURVE",
"531 -439 OFFCURVE",
"465 -451 CURVE",
"475 -563 LINE",
"634 -541 OFFCURVE",
"952 -448 OFFCURVE",
"962 -257 CURVE SMOOTH",
"967 -159 OFFCURVE",
"900 -108 OFFCURVE",
"815 -106 CURVE SMOOTH",
"778 -105 OFFCURVE",
"708 -120 OFFCURVE",
"673 -138 CURVE",
"671 -138 LINE",
"717 -32 LINE",
"725 -33 OFFCURVE",
"734 -33 OFFCURVE",
"743 -33 CURVE SMOOTH",
"912 -33 OFFCURVE",
"1162 18 OFFCURVE",
"1376 295 CURVE",
"1295 376 LINE",
"1156 196 OFFCURVE",
"965 121 OFFCURVE",
"802 122 CURVE SMOOTH",
"526 124 OFFCURVE",
"380 384 OFFCURVE",
"399 738 CURVE SMOOTH",
"414 1033 OFFCURVE",
"569 1329 OFFCURVE",
"855 1328 CURVE SMOOTH",
"1046 1327 OFFCURVE",
"1156 1203 OFFCURVE",
"1181 974 CURVE",
"1315 974 LINE",
"1340 1453 LINE",
"1182 1453 LINE",
"1185 1366 LINE",
"1183 1366 LINE",
"1077 1432 OFFCURVE",
"943 1467 OFFCURVE",
"836 1467 CURVE SMOOTH"
);
}
);
width = 1419;
}
);
unicode = 00C7;
},
{
glyphname = D;
lastChange = "2013-05-24 22:55:06 +0000";
layers = (
{
anchors = (
{
name = center;
position = "{773, 719}";
},
{
name = top;
position = "{804, 1438}";
}
);
layerId = UUID0;
name = "Regular Italic";
paths = (
{
closed = 1;
nodes = (
"158 1434 LINE",
"152 1343 LINE",
"304 1352 LINE",
"297 1311 OFFCURVE",
"292 1260 OFFCURVE",
"289 1204 CURVE SMOOTH",
"240 319 LINE",
"234 174 OFFCURVE",
"240 74 OFFCURVE",
"87 68 CURVE",
"82 0 LINE",
"613 0 LINE SMOOTH",
"1156 0 OFFCURVE",
"1423 371 OFFCURVE",
"1423 770 CURVE SMOOTH",
"1423 1226 OFFCURVE",
"1108 1438 OFFCURVE",
"633 1436 CURVE SMOOTH"
);
},
{
closed = 1;
nodes = (
"1038 1360 OFFCURVE",
"1232 1130 OFFCURVE",
"1232 778 CURVE SMOOTH",
"1232 384 OFFCURVE",
"982 78 OFFCURVE",
"611 78 CURVE SMOOTH",
"542 78 OFFCURVE",
"482 77 OFFCURVE",
"392 82 CURVE",
"398 117 OFFCURVE",
"402 168 OFFCURVE",
"406 242 CURVE SMOOTH",
"453 1129 LINE",
"461 1288 OFFCURVE",
"465 1360 OFFCURVE",
"620 1360 CURVE SMOOTH"
);
}
);
width = 1511;
},
{
anchors = (
{
name = center;
position = "{773, 717}";
},
{
name = top;
position = "{814, 1434}";
}
);
layerId = "6B2A2AD0-3CEC-4B3D-96BE-6A11A3496094";
name = "Bold Italic";
paths = (
{
closed = 1;
nodes = (
"147 1434 LINE",
"139 1276 LINE",
"168 1277 OFFCURVE",
"249 1279 OFFCURVE",
"293 1282 CURVE",
"286 1247 OFFCURVE",
"279 1172 OFFCURVE",
"275 1098 CURVE SMOOTH",
"234 313 LINE SMOOTH",
"226 148 OFFCURVE",
"171 140 OFFCURVE",
"79 135 CURVE",
"72 0 LINE",
"654 0 LINE SMOOTH",
"1227 0 OFFCURVE",
"1463 398 OFFCURVE",
"1480 731 CURVE SMOOTH",
"1498 1072 OFFCURVE",
"1279 1438 OFFCURVE",
"739 1436 CURVE SMOOTH"
);
},
{
closed = 1;
nodes = (
"1011 1291 OFFCURVE",
"1182 1106 OFFCURVE",
"1160 688 CURVE SMOOTH",
"1146 415 OFFCURVE",
"1003 150 OFFCURVE",
"705 150 CURVE SMOOTH",
"656 150 OFFCURVE",
"549 155 OFFCURVE",
"509 152 CURVE",
"516 187 OFFCURVE",
"523 262 OFFCURVE",
"526 336 CURVE SMOOTH",
"568 1125 LINE SMOOTH",
"576 1282 OFFCURVE",
"627 1302 OFFCURVE",
"728 1299 CURVE SMOOTH"
);
}
);
width = 1546;
}
);
unicode = 0044;
},
{
glyphname = Eth;
lastChange = "2013-05-24 22:55:06 +0000";
layers = (
{
layerId = UUID0;
name = "Regular Italic";
paths = (
{
closed = 1;
nodes = (
"160 1434 LINE",
"154 1343 LINE",
"306 1352 LINE",
"299 1311 OFFCURVE",
"294 1260 OFFCURVE",
"291 1204 CURVE SMOOTH",
"267 772 LINE",
"54 772 LINE",
"47 672 LINE",
"261 674 LINE",
"242 319 LINE",
"236 174 OFFCURVE",
"242 74 OFFCURVE",
"89 68 CURVE",
"84 0 LINE",
"615 0 LINE SMOOTH",
"1158 0 OFFCURVE",
"1425 371 OFFCURVE",
"1425 770 CURVE SMOOTH",
"1425 1226 OFFCURVE",
"1110 1438 OFFCURVE",
"635 1436 CURVE SMOOTH"
);
},
{
closed = 1;
nodes = (
"1040 1360 OFFCURVE",
"1234 1130 OFFCURVE",
"1234 778 CURVE SMOOTH",
"1234 384 OFFCURVE",
"984 78 OFFCURVE",
"613 78 CURVE SMOOTH",
"544 78 OFFCURVE",
"484 77 OFFCURVE",
"394 82 CURVE",
"400 117 OFFCURVE",
"404 168 OFFCURVE",
"408 242 CURVE SMOOTH",
"431 676 LINE",
"693 680 LINE",
"699 772 LINE",
"436 772 LINE",
"455 1129 LINE SMOOTH",
"463 1288 OFFCURVE",
"467 1360 OFFCURVE",
"622 1360 CURVE SMOOTH"
);
}
);
width = 1513;
},
{
layerId = "6B2A2AD0-3CEC-4B3D-96BE-6A11A3496094";
name = "Bold Italic";
paths = (
{
closed = 1;
nodes = (
"149 1434 LINE",
"141 1276 LINE",
"170 1277 OFFCURVE",
"251 1279 OFFCURVE",
"295 1282 CURVE",
"288 1247 OFFCURVE",
"281 1172 OFFCURVE",
"277 1098 CURVE SMOOTH",
"262 819 LINE",
"60 819 LINE",
"50 618 LINE",
"252 622 LINE",
"236 313 LINE SMOOTH",
"228 148 OFFCURVE",
"173 140 OFFCURVE",
"81 135 CURVE",
"74 0 LINE",
"656 0 LINE SMOOTH",
"1229 0 OFFCURVE",
"1465 398 OFFCURVE",
"1482 731 CURVE SMOOTH",
"1500 1072 OFFCURVE",
"1281 1438 OFFCURVE",
"741 1436 CURVE SMOOTH"
);
},
{
closed = 1;
nodes = (
"1013 1291 OFFCURVE",
"1184 1106 OFFCURVE",
"1162 688 CURVE SMOOTH",
"1148 415 OFFCURVE",
"1005 150 OFFCURVE",
"707 150 CURVE SMOOTH",
"658 150 OFFCURVE",
"551 155 OFFCURVE",
"511 152 CURVE",
"518 187 OFFCURVE",
"525 262 OFFCURVE",
"528 336 CURVE",
"543 628 LINE",
"751 632 LINE",
"761 819 LINE",
"553 819 LINE",
"570 1125 LINE SMOOTH",
"578 1282 OFFCURVE",
"629 1302 OFFCURVE",
"730 1299 CURVE SMOOTH"
);
}
);
width = 1548;
}
);
unicode = 00D0;
},
{
glyphname = E;
lastChange = "2013-05-24 22:55:06 +0000";
layers = (
{
anchors = (
{
name = bottom;
position = "{679, 0}";
},
{
name = ogonek;
position = "{1114, 10}";
},
{
name = top;
position = "{743, 1438}";
}
);
layerId = UUID0;
name = "Regular Italic";
paths = (
{
closed = 1;
nodes = (
"160 1434 LINE",
"156 1343 LINE",
"306 1352 LINE",
"299 1311 OFFCURVE",
"293 1260 OFFCURVE",
"291 1204 CURVE SMOOTH",
"242 319 LINE SMOOTH",
"236 174 OFFCURVE",
"242 74 OFFCURVE",
"89 68 CURVE",
"84 0 LINE",
"1133 0 LINE",
"1166 399 LINE",
"1096 399 LINE",
"1084 156 OFFCURVE",
"963 84 OFFCURVE",
"785 82 CURVE SMOOTH",
"394 76 LINE",
"400 111 OFFCURVE",
"404 162 OFFCURVE",
"408 236 CURVE SMOOTH",
"433 705 LINE",
"582 711 LINE SMOOTH",
"758 717 OFFCURVE",
"826 711 OFFCURVE",
"818 530 CURVE",
"885 530 LINE",
"908 977 LINE",
"840 977 LINE",
"832 797 OFFCURVE",
"756 782 OFFCURVE",
"584 784 CURVE SMOOTH",
"437 786 LINE",
"455 1114 LINE SMOOTH",
"465 1280 OFFCURVE",
"469 1354 OFFCURVE",
"623 1358 CURVE SMOOTH",
"799 1362 LINE SMOOTH",
"953 1366 OFFCURVE",
"1074 1317 OFFCURVE",
"1061 1075 CURVE",
"1129 1075 LINE",
"1137 1434 LINE"
);
}
);
width = 1268;
},
{
anchors = (
{
name = bottom;
position = "{702, 0}";
},
{
name = ogonek;
position = "{1148, 10}";
},
{
name = top;
position = "{703, 1434}";
}
);
layerId = "6B2A2AD0-3CEC-4B3D-96BE-6A11A3496094";
name = "Bold Italic";
paths = (
{
closed = 1;
nodes = (
"147 1434 LINE",
"139 1276 LINE",
"168 1277 OFFCURVE",
"249 1279 OFFCURVE",
"293 1282 CURVE",
"286 1247 OFFCURVE",
"279 1172 OFFCURVE",
"275 1098 CURVE SMOOTH",
"234 313 LINE SMOOTH",
"226 148 OFFCURVE",
"171 140 OFFCURVE",
"79 135 CURVE",
"72 0 LINE",
"1148 0 LINE",
"1184 451 LINE",
"1049 451 LINE",
"1037 229 OFFCURVE",
"905 156 OFFCURVE",
"784 156 CURVE SMOOTH",
"509 155 LINE",
"516 190 OFFCURVE",
"523 262 OFFCURVE",
"527 336 CURVE SMOOTH",
"544 672 LINE",
"598 673 LINE SMOOTH",
"709 676 OFFCURVE",
"799 665 OFFCURVE",
"790 493 CURVE",
"925 493 LINE",
"951 991 LINE",
"793 991 LINE",
"793 941 OFFCURVE",
"792 870 OFFCURVE",
"793 814 CURVE",
"552 814 LINE",
"568 1121 LINE SMOOTH",
"576 1280 OFFCURVE",
"628 1297 OFFCURVE",
"714 1299 CURVE SMOOTH",
"788 1301 LINE SMOOTH",
"899 1304 OFFCURVE",
"1035 1259 OFFCURVE",
"1023 1037 CURVE",
"1158 1037 LINE",
"1167 1434 LINE"
);
}
);
width = 1276;
}
);
unicode = 0045;
},
{
glyphname = F;
lastChange = "2013-05-24 22:55:06 +0000";
layers = (
{
layerId = UUID0;
name = "Regular Italic";
paths = (
{
closed = 1;
nodes = (
"160 1434 LINE",
"156 1343 LINE",
"306 1352 LINE",
"299 1311 OFFCURVE",
"293 1260 OFFCURVE",
"291 1204 CURVE SMOOTH",
"242 319 LINE SMOOTH",
"236 174 OFFCURVE",
"242 74 OFFCURVE",
"89 68 CURVE",
"84 0 LINE",
"598 0 LINE",
"603 90 LINE",
"394 82 LINE",
"400 117 OFFCURVE",
"406 170 OFFCURVE",
"408 244 CURVE SMOOTH",
"431 672 LINE",
"484 676 OFFCURVE",
"537 678 OFFCURVE",
"590 678 CURVE SMOOTH",
"736 678 OFFCURVE",
"795 666 OFFCURVE",
"787 498 CURVE",
"854 498 LINE",
"877 946 LINE",
"809 946 LINE",
"801 778 OFFCURVE",
"740 756 OFFCURVE",
"594 754 CURVE SMOOTH",
"435 754 LINE",
"454 1131 LINE SMOOTH",
"461 1274 OFFCURVE",
"468 1354 OFFCURVE",
"609 1358 CURVE SMOOTH",
"758 1362 LINE SMOOTH",
"912 1366 OFFCURVE",
"1039 1317 OFFCURVE",
"1027 1075 CURVE",
"1094 1075 LINE",
"1102 1434 LINE"
);
}
);
width = 1108;
},
{
layerId = "6B2A2AD0-3CEC-4B3D-96BE-6A11A3496094";
name = "Bold Italic";
paths = (
{
closed = 1;
nodes = (
"147 1434 LINE",
"139 1276 LINE",
"168 1277 OFFCURVE",
"249 1279 OFFCURVE",
"293 1282 CURVE",
"286 1247 OFFCURVE",
"279 1172 OFFCURVE",
"275 1098 CURVE SMOOTH",
"234 313 LINE SMOOTH",
"226 148 OFFCURVE",
"171 140 OFFCURVE",
"79 135 CURVE",
"72 0 LINE",
"683 0 LINE",
"691 158 LINE",
"662 157 OFFCURVE",
"553 155 OFFCURVE",
"509 152 CURVE",
"516 187 OFFCURVE",
"523 262 OFFCURVE",
"527 336 CURVE SMOOTH",
"542 622 LINE",
"567 623 LINE SMOOTH",
"678 626 OFFCURVE",
"767 615 OFFCURVE",
"758 443 CURVE",
"893 443 LINE",
"919 941 LINE",
"761 941 LINE",
"762 891 OFFCURVE",
"760 820 OFFCURVE",
"761 764 CURVE",
"549 764 LINE",
"568 1121 LINE SMOOTH",
"576 1280 OFFCURVE",
"628 1297 OFFCURVE",
"714 1299 CURVE SMOOTH",
"788 1301 LINE SMOOTH",
"899 1304 OFFCURVE",
"1035 1259 OFFCURVE",
"1023 1037 CURVE",
"1158 1037 LINE",
"1167 1434 LINE"
);
}
);
width = 1159;
}
);
unicode = 0046;
},
{
glyphname = G;
lastChange = "2013-05-30 16:44:24 +0000";
layers = (
{
anchors = (
{
name = bottom;
position = "{733, 0}";
},
{
name = top;
position = "{881, 1438}";
}
);
layerId = UUID0;
name = "Regular Italic";
paths = (
{
closed = 1;
nodes = (
"368 1467 OFFCURVE",
"123 1071 OFFCURVE",
"102 686 CURVE SMOOTH",
"78 238 OFFCURVE",
"338 -33 OFFCURVE",
"749 -33 CURVE SMOOTH",
"840 -33 OFFCURVE",
"967 -12 OFFCURVE",
"1053 21 CURVE SMOOTH",
"1153 59 OFFCURVE",
"1231 74 OFFCURVE",
"1276 74 CURVE SMOOTH",
"1325 74 LINE",
"1341 385 LINE SMOOTH",
"1345 440 OFFCURVE",
"1347 629 OFFCURVE",
"1501 629 CURVE",
"1505 696 LINE",
"1048 696 LINE",
"1044 606 LINE",
"1188 614 LINE",
"1165 168 LINE",
"1055 96 OFFCURVE",
"917 66 OFFCURVE",
"809 66 CURVE SMOOTH",
"485 66 OFFCURVE",
"274 346 OFFCURVE",
"295 733 CURVE SMOOTH",
"315 1114 OFFCURVE",
"563 1385 OFFCURVE",
"854 1385 CURVE SMOOTH",
"1091 1385 OFFCURVE",
"1270 1240 OFFCURVE",
"1274 984 CURVE",
"1347 984 LINE",
"1372 1453 LINE",
"1259 1453 LINE",
"1263 1355 LINE",
"1151 1424 OFFCURVE",
"993 1467 OFFCURVE",
"846 1467 CURVE SMOOTH"
);
}
);
width = 1542;
},
{
anchors = (
{
name = bottom;
position = "{753, 0}";
},
{
name = top;
position = "{875, 1434}";
}
);
layerId = "6B2A2AD0-3CEC-4B3D-96BE-6A11A3496094";
name = "Bold Italic";
paths = (
{
closed = 1;
nodes = (
"355 1467 OFFCURVE",
"99 1069 OFFCURVE",
"79 696 CURVE SMOOTH",
"58 289 OFFCURVE",
"294 -33 OFFCURVE",
"739 -33 CURVE SMOOTH",
"990 -33 OFFCURVE",
"1139 69 OFFCURVE",
"1297 69 CURVE SMOOTH",
"1347 69 LINE",
"1364 398 LINE SMOOTH",
"1372 553 OFFCURVE",
"1417 571 OFFCURVE",
"1509 576 CURVE",
"1516 711 LINE",
"977 711 LINE",
"969 553 LINE",
"998 554 OFFCURVE",
"1079 556 OFFCURVE",
"1123 559 CURVE",
"1116 524 OFFCURVE",
"1109 449 OFFCURVE",
"1106 375 CURVE SMOOTH",
"1096 185 LINE",
"1018 148 OFFCURVE",
"877 130 OFFCURVE",
"798 130 CURVE SMOOTH",
"519 130 OFFCURVE",
"379 384 OFFCURVE",
"398 738 CURVE SMOOTH",
"413 1033 OFFCURVE",
"565 1319 OFFCURVE",
"851 1318 CURVE SMOOTH",
"1042 1317 OFFCURVE",
"1188 1203 OFFCURVE",
"1213 974 CURVE",
"1347 974 LINE",
"1372 1453 LINE",
"1214 1453 LINE",
"1217 1366 LINE",
"1215 1366 LINE",
"1109 1432 OFFCURVE",
"939 1467 OFFCURVE",
"832 1467 CURVE SMOOTH"
);
}
);
width = 1548;
}
);
unicode = 0047;
},
{
glyphname = H;
lastChange = "2013-05-24 22:55:06 +0000";
layers = (
{
anchors = (
{
name = center;
position = "{809, 719}";
},
{
name = top;
position = "{840, 1438}";
}
);
layerId = UUID0;
name = "Regular Italic";
paths = (
{
closed = 1;
nodes = (
"1063 1434 LINE",
"1059 1343 LINE",
"1207 1352 LINE",
"1201 1311 OFFCURVE",
"1195 1260 OFFCURVE",
"1192 1204 CURVE SMOOTH",
"1169 774 LINE",
"435 774 LINE",
"455 1139 LINE SMOOTH",
"463 1285 OFFCURVE",
"475 1360 OFFCURVE",
"609 1366 CURVE",
"613 1434 LINE",
"160 1434 LINE",
"156 1343 LINE",
"304 1352 LINE",
"297 1311 OFFCURVE",
"292 1260 OFFCURVE",
"289 1204 CURVE SMOOTH",
"242 319 LINE SMOOTH",
"234 174 OFFCURVE",
"242 74 OFFCURVE",
"89 68 CURVE",
"84 0 LINE",
"537 0 LINE",
"541 90 LINE",
"394 82 LINE",
"400 117 OFFCURVE",
"404 170 OFFCURVE",
"408 244 CURVE SMOOTH",
"431 684 LINE",
"1165 693 LINE",
"1145 319 LINE",
"1139 174 OFFCURVE",
"1145 74 OFFCURVE",
"992 68 CURVE",
"988 0 LINE",
"1440 0 LINE",
"1444 90 LINE",
"1297 82 LINE",
"1303 117 OFFCURVE",
"1307 170 OFFCURVE",
"1311 244 CURVE SMOOTH",
"1358 1141 LINE SMOOTH",
"1366 1287 OFFCURVE",
"1378 1360 OFFCURVE",
"1512 1366 CURVE",
"1516 1434 LINE"
);
}
);
width = 1583;
},
{
anchors = (
{
name = center;
position = "{821, 717}";
},
{
name = top;
position = "{878, 1434}";
}
);
layerId = "6B2A2AD0-3CEC-4B3D-96BE-6A11A3496094";
name = "Bold Italic";
paths = (
{
closed = 1;
nodes = (
"1002 1434 LINE",
"994 1276 LINE",
"1023 1277 OFFCURVE",
"1104 1279 OFFCURVE",
"1148 1282 CURVE",
"1141 1247 OFFCURVE",
"1134 1172 OFFCURVE",
"1130 1098 CURVE SMOOTH",
"1115 800 LINE",
"551 800 LINE",
"568 1121 LINE SMOOTH",
"576 1286 OFFCURVE",
"631 1294 OFFCURVE",
"723 1299 CURVE",
"730 1434 LINE",
"147 1434 LINE",
"139 1276 LINE",
"168 1277 OFFCURVE",
"249 1279 OFFCURVE",
"293 1282 CURVE",
"286 1247 OFFCURVE",
"279 1172 OFFCURVE",
"275 1098 CURVE SMOOTH",
"234 313 LINE SMOOTH",
"226 148 OFFCURVE",
"171 140 OFFCURVE",
"79 135 CURVE",
"72 0 LINE",
"655 0 LINE",
"663 158 LINE",
"634 157 OFFCURVE",
"553 155 OFFCURVE",
"509 152 CURVE",
"516 187 OFFCURVE",
"523 262 OFFCURVE",
"527 336 CURVE SMOOTH",
"542 638 LINE",
"1107 645 LINE",
"1089 313 LINE SMOOTH",
"1081 148 OFFCURVE",
"1026 140 OFFCURVE",
"934 135 CURVE",
"927 0 LINE",
"1510 0 LINE",
"1518 158 LINE",
"1489 157 OFFCURVE",
"1408 155 OFFCURVE",
"1364 152 CURVE",
"1371 187 OFFCURVE",
"1378 262 OFFCURVE",
"1382 336 CURVE SMOOTH",
"1423 1121 LINE SMOOTH",
"1431 1286 OFFCURVE",
"1486 1294 OFFCURVE",
"1578 1299 CURVE",
"1585 1434 LINE"
);
}
);
width = 1642;
}
);
unicode = 0048;
},
{
glyphname = I;
lastChange = "2013-05-24 22:55:06 +0000";
layers = (
{
anchors = (
{
name = ogonek;
position = "{536, -1}";
},
{
name = top;
position = "{403, 1438}";
}
);
layerId = UUID0;
name = "Regular Italic";
paths = (
{
closed = 1;
nodes = (
"160 1434 LINE",
"156 1343 LINE",
"304 1352 LINE",
"297 1311 OFFCURVE",
"291 1260 OFFCURVE",
"289 1204 CURVE SMOOTH",
"242 319 LINE",
"236 174 OFFCURVE",
"242 74 OFFCURVE",
"89 68 CURVE",
"84 0 LINE",
"537 0 LINE",
"541 90 LINE",
"394 82 LINE",
"400 117 OFFCURVE",
"406 170 OFFCURVE",
"408 244 CURVE SMOOTH",
"455 1134 LINE SMOOTH",
"461 1280 OFFCURVE",
"465 1360 OFFCURVE",
"609 1366 CURVE",
"613 1434 LINE"
);
}
);
width = 682;
},
{
anchors = (
{
name = ogonek;
position = "{652, -0}";
},
{
name = top;
position = "{463, 1434}";
}
);
layerId = "6B2A2AD0-3CEC-4B3D-96BE-6A11A3496094";
name = "Bold Italic";
paths = (
{
closed = 1;
nodes = (
"147 1434 LINE",
"139 1276 LINE",
"168 1277 OFFCURVE",
"249 1279 OFFCURVE",
"293 1282 CURVE",
"286 1247 OFFCURVE",
"279 1172 OFFCURVE",
"275 1098 CURVE SMOOTH",
"234 313 LINE SMOOTH",
"226 148 OFFCURVE",
"171 140 OFFCURVE",
"79 135 CURVE",
"72 0 LINE",
"655 0 LINE",
"663 158 LINE",
"634 157 OFFCURVE",
"553 155 OFFCURVE",
"509 152 CURVE",
"516 187 OFFCURVE",
"523 262 OFFCURVE",
"527 336 CURVE SMOOTH",
"568 1121 LINE SMOOTH",
"576 1286 OFFCURVE",
"631 1294 OFFCURVE",
"723 1299 CURVE",
"730 1434 LINE"
);
}
);
width = 787;
}
);
unicode = 0049;
},
{
glyphname = Icircumflex;
lastChange = "2013-05-24 22:55:06 +0000";
layers = (
{
layerId = UUID0;
name = "Regular Italic";
paths = (
{
closed = 1;
nodes = (
"160 1434 LINE",
"156 1343 LINE",
"304 1352 LINE",
"297 1311 OFFCURVE",
"291 1260 OFFCURVE",
"289 1204 CURVE SMOOTH",
"242 319 LINE",
"236 174 OFFCURVE",
"242 74 OFFCURVE",
"89 68 CURVE",
"84 0 LINE",
"537 0 LINE",
"541 90 LINE",
"394 82 LINE",
"400 117 OFFCURVE",
"406 170 OFFCURVE",
"408 244 CURVE SMOOTH",
"455 1134 LINE SMOOTH",
"461 1280 OFFCURVE",
"465 1360 OFFCURVE",
"609 1366 CURVE",
"613 1434 LINE"
);
},
{
closed = 1;
nodes = (
"412 1905 LINE",
"29 1616 LINE",
"62 1565 LINE",
"392 1741 LINE",
"396 1741 LINE",
"729 1559 LINE",
"766 1616 LINE",
"416 1905 LINE"
);
}
);
width = 680;
},
{
layerId = "6B2A2AD0-3CEC-4B3D-96BE-6A11A3496094";
name = "Bold Italic";
paths = (
{
closed = 1;
nodes = (
"147 1434 LINE",
"139 1276 LINE",
"168 1277 OFFCURVE",
"249 1279 OFFCURVE",
"293 1282 CURVE",
"286 1247 OFFCURVE",
"279 1172 OFFCURVE",
"275 1098 CURVE SMOOTH",
"234 313 LINE SMOOTH",
"226 148 OFFCURVE",
"171 140 OFFCURVE",
"79 135 CURVE",
"72 0 LINE",
"655 0 LINE",
"663 158 LINE",
"634 157 OFFCURVE",
"553 155 OFFCURVE",
"509 152 CURVE",
"516 187 OFFCURVE",
"523 262 OFFCURVE",
"527 336 CURVE SMOOTH",
"568 1121 LINE SMOOTH",
"576 1286 OFFCURVE",
"631 1294 OFFCURVE",
"723 1299 CURVE",
"730 1434 LINE"
);
},
{
closed = 1;
nodes = (
"454 1988 LINE",
"30 1681 LINE",
"70 1599 LINE",
"454 1775 LINE",
"811 1596 LINE",
"868 1681 LINE",
"494 1988 LINE"
);
}
);
width = 788;
}
);
unicode = 00CE;
},
{
glyphname = Idieresis;
lastChange = "2013-05-24 22:55:06 +0000";
layers = (
{
layerId = UUID0;
name = "Regular Italic";
paths = (
{
closed = 1;
nodes = (
"160 1434 LINE",
"156 1343 LINE",
"304 1352 LINE",
"297 1311 OFFCURVE",
"291 1260 OFFCURVE",
"289 1204 CURVE SMOOTH",
"242 319 LINE",
"236 174 OFFCURVE",
"242 74 OFFCURVE",
"89 68 CURVE",
"84 0 LINE",
"537 0 LINE",
"541 90 LINE",
"394 82 LINE",
"400 117 OFFCURVE",
"406 170 OFFCURVE",
"408 244 CURVE SMOOTH",
"455 1134 LINE SMOOTH",
"461 1280 OFFCURVE",
"465 1360 OFFCURVE",
"609 1366 CURVE",
"613 1434 LINE"
);
},
{
closed = 1;
nodes = (
"199 1838 OFFCURVE",
"148 1784 OFFCURVE",
"145 1715 CURVE SMOOTH",
"143 1646 OFFCURVE",
"185 1593 OFFCURVE",
"241 1593 CURVE SMOOTH",
"293 1593 OFFCURVE",
"344 1646 OFFCURVE",
"346 1715 CURVE SMOOTH",
"349 1784 OFFCURVE",
"311 1838 OFFCURVE",
"255 1838 CURVE SMOOTH"
);
},
{
closed = 1;
nodes = (
"511 1838 OFFCURVE",
"460 1784 OFFCURVE",
"457 1715 CURVE SMOOTH",
"455 1646 OFFCURVE",
"497 1593 OFFCURVE",
"553 1593 CURVE SMOOTH",
"605 1593 OFFCURVE",
"656 1646 OFFCURVE",
"658 1715 CURVE SMOOTH",
"661 1784 OFFCURVE",
"623 1838 OFFCURVE",
"567 1838 CURVE SMOOTH"
);
}
);
width = 682;
},
{
components = (
{
name = I;
transform = "{1, 0, 0, 1, 0, 0}";
},
{
name = Dieresis;
transform = "{1, 0, 0, 1, 62, 0}";
}
);
layerId = "6B2A2AD0-3CEC-4B3D-96BE-6A11A3496094";
name = "Bold Italic";
width = 787;
}
);
unicode = 00CF;
},
{
glyphname = J;
lastChange = "2013-05-24 22:55:06 +0000";
layers = (
{
anchors = (
{
name = top;
position = "{464, 1438}";
}
);
layerId = UUID0;
name = "Regular Italic";
paths = (
{
closed = 1;
nodes = (
"202 1434 LINE",
"198 1343 LINE",
"407 1352 LINE",
"354 314 LINE SMOOTH",
"342 70 OFFCURVE",
"265 52 OFFCURVE",
"218 50 CURVE SMOOTH",
"195 49 OFFCURVE",
"162 59 OFFCURVE",
"149 81 CURVE",
"155 95 OFFCURVE",
"158 115 OFFCURVE",
"158 128 CURVE SMOOTH",
"158 170 OFFCURVE",
"129 224 OFFCURVE",
"62 220 CURVE SMOOTH",
"5 216 OFFCURVE",
"-29 168 OFFCURVE",
"-29 112 CURVE SMOOTH",
"-29 5 OFFCURVE",
"80 -33 OFFCURVE",
"179 -33 CURVE SMOOTH",
"415 -33 OFFCURVE",
"513 115 OFFCURVE",
"532 500 CURVE SMOOTH",
"566 1163 LINE SMOOTH",
"572 1278 OFFCURVE",
"599 1366 OFFCURVE",
"734 1366 CURVE",
"739 1434 LINE"
);
}
);
width = 752;
},
{
anchors = (
{
name = top;
position = "{593, 1434}";
}
);
layerId = "6B2A2AD0-3CEC-4B3D-96BE-6A11A3496094";
name = "Bold Italic";
paths = (
{
closed = 1;
nodes = (
"309 1434 LINE",
"301 1276 LINE",
"330 1277 OFFCURVE",
"421 1279 OFFCURVE",
"465 1282 CURVE",
"458 1247 OFFCURVE",
"451 1172 OFFCURVE",
"447 1098 CURVE SMOOTH",
"404 277 LINE SMOOTH",
"398 161 OFFCURVE",
"364 114 OFFCURVE",
"305 114 CURVE SMOOTH",
"291 114 OFFCURVE",
"255 121 OFFCURVE",
"245 148 CURVE",
"258 172 OFFCURVE",
"266 200 OFFCURVE",
"267 224 CURVE SMOOTH",
"267 293 OFFCURVE",
"229 362 OFFCURVE",
"126 357 CURVE SMOOTH",
"34 352 OFFCURVE",
"-19 273 OFFCURVE",
"-23 186 CURVE SMOOTH",
"-30 59 OFFCURVE",
"96 -33 OFFCURVE",
"257 -33 CURVE SMOOTH",
"533 -33 OFFCURVE",
"687 126 OFFCURVE",
"708 521 CURVE SMOOTH",
"740 1121 LINE SMOOTH",
"748 1286 OFFCURVE",
"803 1294 OFFCURVE",
"895 1299 CURVE",
"902 1434 LINE"
);
}
);
width = 911;
}
);
unicode = 004A;
},
{
glyphname = K;
lastChange = "2013-05-24 22:55:06 +0000";
layers = (
{
anchors = (
{
name = bottom;
position = "{656, 0}";
},
{
name = top;
position = "{754, 1438}";
}
);
background = {
paths = (
{
closed = 1;
nodes = (
"233 319 LINE SMOOTH",
"226 174 OFFCURVE",
"233 74 OFFCURVE",
"79 68 CURVE",
"75 0 LINE",
"536 0 LINE",
"541 90 LINE",
"393 82 LINE",
"400 117 OFFCURVE",
"404 170 OFFCURVE",
"408 244 CURVE SMOOTH",
"432 696 LINE",
"532 698 LINE",
"579 668 OFFCURVE",
"629 600 OFFCURVE",
"677 532 CURVE",
"905 201 LINE",
"979 96 OFFCURVE",
"1060 0 OFFCURVE",
"1101 0 CURVE SMOOTH",
"1351 0 LINE",
"1355 68 LINE",
"1267 68 OFFCURVE",
"1211 84 OFFCURVE",
"1066 291 CURVE SMOOTH",
"853 596 LINE",
"806 659 OFFCURVE",
"766 723 OFFCURVE",
"692 770 CURVE",
"909 1090 LINE SMOOTH",
"1060 1313 OFFCURVE",
"1164 1352 OFFCURVE",
"1337 1366 CURVE",
"1341 1434 LINE",
"901 1434 LINE",
"896 1350 LINE",
"1021 1354 LINE",
"962 1309 OFFCURVE",
"903 1235 OFFCURVE",
"866 1182 CURVE SMOOTH",
"589 778 LINE",
"436 778 LINE",
"454 1114 LINE SMOOTH",
"461 1260 OFFCURVE",
"454 1360 OFFCURVE",
"608 1366 CURVE",
"612 1434 LINE",
"151 1434 LINE",
"146 1343 LINE",
"294 1352 LINE",
"287 1311 OFFCURVE",
"282 1260 OFFCURVE",
"280 1204 CURVE SMOOTH"
);
}
);
};
layerId = UUID0;
name = "Regular Italic";
paths = (
{
closed = 1;
nodes = (
"902 1434 LINE",
"897 1350 LINE",
"1027 1354 LINE",
"1027 1352 LINE",
"961 1307 OFFCURVE",
"905 1236 OFFCURVE",
"869 1182 CURVE SMOOTH",
"596 778 LINE",
"436 778 LINE",
"455 1134 LINE SMOOTH",
"463 1280 OFFCURVE",
"475 1360 OFFCURVE",
"609 1366 CURVE",
"613 1434 LINE",
"160 1434 LINE",
"156 1343 LINE",
"304 1352 LINE",
"297 1311 OFFCURVE",
"292 1260 OFFCURVE",
"289 1204 CURVE SMOOTH",
"242 319 LINE",
"236 174 OFFCURVE",
"242 74 OFFCURVE",
"89 68 CURVE",
"84 0 LINE",
"537 0 LINE",
"541 90 LINE",
"394 82 LINE",
"400 117 OFFCURVE",
"404 170 OFFCURVE",
"408 244 CURVE SMOOTH",
"432 696 LINE",
"541 698 LINE",
"588 668 OFFCURVE",
"640 601 OFFCURVE",
"687 532 CURVE SMOOTH",
"914 201 LINE",
"990 96 OFFCURVE",
"1070 0 OFFCURVE",
"1110 0 CURVE SMOOTH",
"1352 0 LINE",
"1356 68 LINE",
"1268 68 OFFCURVE",
"1211 84 OFFCURVE",
"1067 291 CURVE",
"852 596 LINE SMOOTH",
"807 659 OFFCURVE",
"768 723 OFFCURVE",
"693 770 CURVE",
"910 1090 LINE SMOOTH",
"1061 1313 OFFCURVE",
"1166 1352 OFFCURVE",
"1338 1366 CURVE",
"1342 1434 LINE"
);
}
);
width = 1366;
},
{
anchors = (
{
name = bottom;
position = "{728, 0}";
},
{
name = top;
position = "{804, 1434}";
}
);
layerId = "6B2A2AD0-3CEC-4B3D-96BE-6A11A3496094";
name = "Bold Italic";
paths = (
{
closed = 1;
nodes = (
"900 1434 LINE",
"892 1276 LINE",
"921 1277 OFFCURVE",
"978 1281 OFFCURVE",
"1022 1284 CURVE",
"1022 1282 LINE",
"985 1254 OFFCURVE",
"923 1159 OFFCURVE",
"870 1077 CURVE SMOOTH",
"700 809 LINE",
"551 809 LINE",
"568 1121 LINE SMOOTH",
"576 1286 OFFCURVE",
"631 1294 OFFCURVE",
"723 1299 CURVE",
"730 1434 LINE",
"147 1434 LINE",
"139 1276 LINE",
"168 1277 OFFCURVE",
"249 1279 OFFCURVE",
"293 1282 CURVE",
"286 1247 OFFCURVE",
"279 1172 OFFCURVE",
"275 1098 CURVE SMOOTH",
"234 313 LINE SMOOTH",
"226 148 OFFCURVE",
"171 140 OFFCURVE",
"79 135 CURVE",
"72 0 LINE",
"655 0 LINE",
"663 158 LINE",
"634 157 OFFCURVE",
"553 155 OFFCURVE",
"509 152 CURVE",
"516 187 OFFCURVE",
"523 262 OFFCURVE",
"527 336 CURVE SMOOTH",
"543 645 LINE",
"568 645 OFFCURVE",
"613 646 OFFCURVE",
"617 646 CURVE",
"652 619 OFFCURVE",
"694 554 OFFCURVE",
"729 503 CURVE",
"916 208 LINE SMOOTH",
"967 128 OFFCURVE",
"1072 2 OFFCURVE",
"1105 0 CURVE",
"1418 0 LINE",
"1425 135 LINE",
"1333 140 OFFCURVE",
"1245 240 OFFCURVE",
"1168 357 CURVE SMOOTH",
"975 654 LINE SMOOTH",
"946 699 OFFCURVE",
"906 739 OFFCURVE",
"853 772 CURVE",
"854 775 LINE",
"1066 1089 LINE SMOOTH",
"1189 1271 OFFCURVE",
"1302 1294 OFFCURVE",
"1394 1299 CURVE",
"1401 1434 LINE"
);
}
);
width = 1456;
}
);
unicode = 004B;
},
{
glyphname = L;
lastChange = "2013-05-24 22:55:06 +0000";
layers = (
{
anchors = (
{
name = bottom;
position = "{564, 0}";
},
{
name = top;
position = "{393, 1438}";
}
);
layerId = UUID0;
name = "Regular Italic";
paths = (
{
closed = 1;
nodes = (
"158 1434 LINE",
"158 1343 LINE",
"304 1352 LINE",
"295 1311 OFFCURVE",
"292 1260 OFFCURVE",
"289 1204 CURVE SMOOTH",
"240 319 LINE SMOOTH",
"232 174 OFFCURVE",
"240 74 OFFCURVE",
"87 68 CURVE",
"82 0 LINE",
"1090 0 LINE",
"1125 424 LINE",
"1055 424 LINE",
"1043 181 OFFCURVE",
"947 85 OFFCURVE",
"775 82 CURVE SMOOTH",
"392 76 LINE",
"398 111 OFFCURVE",
"402 162 OFFCURVE",
"406 236 CURVE SMOOTH",
"453 1114 LINE",
"459 1260 OFFCURVE",
"463 1360 OFFCURVE",
"607 1366 CURVE",
"611 1434 LINE"
);
}
);
width = 1182;
},
{
anchors = (
{
name = bottom;
position = "{621, 0}";
},
{
name = top;
position = "{432, 1434}";
}
);
layerId = "6B2A2AD0-3CEC-4B3D-96BE-6A11A3496094";
name = "Bold Italic";
paths = (
{
closed = 1;
nodes = (
"147 1434 LINE",
"139 1276 LINE",
"168 1277 OFFCURVE",
"249 1279 OFFCURVE",
"293 1282 CURVE",
"286 1247 OFFCURVE",
"279 1172 OFFCURVE",
"275 1098 CURVE SMOOTH",
"234 313 LINE SMOOTH",
"226 148 OFFCURVE",
"171 140 OFFCURVE",
"79 135 CURVE",
"72 0 LINE",
"1159 0 LINE",
"1197 491 LINE",
"1061 491 LINE",
"1049 269 OFFCURVE",
"945 157 OFFCURVE",
"784 156 CURVE SMOOTH",
"509 155 LINE",
"516 190 OFFCURVE",
"523 262 OFFCURVE",
"527 336 CURVE SMOOTH",
"568 1121 LINE SMOOTH",
"576 1286 OFFCURVE",
"631 1294 OFFCURVE",
"723 1299 CURVE",
"730 1434 LINE"
);
}
);
width = 1241;
}
);
unicode = 004C;
},
{
glyphname = Lslash;
lastChange = "2013-05-24 22:55:06 +0000";
layers = (
{
layerId = UUID0;
name = "Regular Italic";
paths = (
{
closed = 1;
nodes = (
"160 1434 LINE",
"160 1343 LINE",
"306 1352 LINE",
"297 1311 OFFCURVE",
"294 1260 OFFCURVE",
"291 1204 CURVE SMOOTH",
"263 703 LINE",
"97 582 LINE",
"90 467 LINE",
"257 590 LINE",
"242 319 LINE SMOOTH",
"234 174 OFFCURVE",
"242 74 OFFCURVE",
"89 68 CURVE",
"84 0 LINE",
"1092 0 LINE",
"1127 424 LINE",
"1057 424 LINE",
"1045 181 OFFCURVE",
"949 85 OFFCURVE",
"777 82 CURVE SMOOTH",
"394 76 LINE",
"400 111 OFFCURVE",
"404 162 OFFCURVE",
"408 236 CURVE SMOOTH",
"434 720 LINE",
"643 874 LINE",
"650 985 LINE",
"440 831 LINE",
"455 1114 LINE",
"461 1260 OFFCURVE",
"465 1360 OFFCURVE",
"609 1366 CURVE",
"613 1434 LINE"
);
}
);
width = 1182;
},
{
layerId = "6B2A2AD0-3CEC-4B3D-96BE-6A11A3496094";
name = "Bold Italic";
paths = (
{
closed = 1;
nodes = (
"149 1434 LINE",
"141 1276 LINE",
"170 1277 OFFCURVE",
"251 1279 OFFCURVE",
"295 1282 CURVE",
"288 1247 OFFCURVE",
"281 1172 OFFCURVE",
"277 1098 CURVE SMOOTH",
"257 714 LINE",
"95 598 LINE",
"83 369 LINE",
"245 485 LINE",
"236 313 LINE SMOOTH",
"228 148 OFFCURVE",
"173 140 OFFCURVE",
"81 135 CURVE",
"74 0 LINE",
"1161 0 LINE",
"1199 491 LINE",
"1063 491 LINE",
"1051 269 OFFCURVE",
"947 157 OFFCURVE",
"786 156 CURVE SMOOTH",
"511 155 LINE",
"518 190 OFFCURVE",
"525 262 OFFCURVE",
"529 336 CURVE SMOOTH",
"548 704 LINE",
"712 822 LINE",
"724 1048 LINE",
"560 930 LINE",
"570 1121 LINE SMOOTH",
"578 1286 OFFCURVE",
"633 1294 OFFCURVE",
"725 1299 CURVE",
"732 1434 LINE"
);
}
);
width = 1242;
}
);
unicode = 0141;
},
{
glyphname = M;
lastChange = "2013-05-24 22:55:06 +0000";
layers = (
{
layerId = UUID0;
name = "Regular Italic";
paths = (
{
closed = 1;
nodes = (
"1486 1434 LINE",
"1357 1142 OFFCURVE",
"1185 809 OFFCURVE",
"1054 514 CURVE SMOOTH",
"1022 440 OFFCURVE",
"970 324 OFFCURVE",
"936 250 CURVE",
"931 250 LINE",
"778 647 OFFCURVE",
"653 1006 OFFCURVE",
"487 1434 CURVE",
"182 1434 LINE",
"178 1346 LINE",
"325 1352 LINE",
"215 256 LINE",
"204 156 OFFCURVE",
"192 70 OFFCURVE",
"65 68 CURVE",
"61 0 LINE",
"450 0 LINE",
"456 90 LINE",
"302 82 LINE",
"310 133 OFFCURVE",
"315 195 OFFCURVE",
"321 256 CURVE SMOOTH",
"374 809 LINE SMOOTH",
"385 928 OFFCURVE",
"396 1061 OFFCURVE",
"401 1214 CURVE",
"405 1214 LINE",
"442 1087 OFFCURVE",
"456 1053 OFFCURVE",
"495 946 CURVE SMOOTH",
"614 625 OFFCURVE",
"723 301 OFFCURVE",
"850 -20 CURVE",
"909 -20 LINE",
"1396 1031 LINE",
"1468 1188 LINE",
"1472 1188 LINE",
"1470 1128 OFFCURVE",
"1470 1071 OFFCURVE",
"1470 1012 CURVE SMOOTH",
"1470 311 LINE SMOOTH",
"1470 162 OFFCURVE",
"1456 78 OFFCURVE",
"1343 68 CURVE",
"1327 68 LINE",
"1323 0 LINE",
"1773 0 LINE",
"1779 90 LINE",
"1628 82 LINE",
"1630 119 OFFCURVE",
"1632 162 OFFCURVE",
"1632 211 CURVE SMOOTH",
"1626 1143 LINE",
"1624 1311 OFFCURVE",
"1675 1368 OFFCURVE",
"1777 1366 CURVE",
"1781 1434 LINE"
);
}
);
width = 1878;
},
{
layerId = "6B2A2AD0-3CEC-4B3D-96BE-6A11A3496094";
name = "Bold Italic";
paths = (
{
closed = 1;
nodes = (
"1439 1434 LINE",
"1086 587 LINE SMOOTH",
"1049 499 OFFCURVE",
"1012 402 OFFCURVE",
"972 308 CURVE",
"970 308 LINE",
"943 406 OFFCURVE",
"918 512 OFFCURVE",
"873 638 CURVE SMOOTH",
"592 1434 LINE",
"153 1434 LINE",
"144 1276 LINE",
"173 1277 OFFCURVE",
"255 1279 OFFCURVE",
"300 1282 CURVE",
"293 1247 OFFCURVE",
"286 1172 OFFCURVE",
"281 1098 CURVE SMOOTH",
"228 313 LINE",
"216 148 OFFCURVE",
"165 140 OFFCURVE",
"73 135 CURVE",
"65 0 LINE",
"532 0 LINE",
"541 158 LINE",
"512 157 OFFCURVE",
"430 155 OFFCURVE",
"385 152 CURVE",
"392 187 OFFCURVE",
"400 262 OFFCURVE",
"404 336 CURVE SMOOTH",
"426 706 LINE SMOOTH",
"434 829 OFFCURVE",
"436 957 OFFCURVE",
"441 1096 CURVE",
"443 1096 LINE",
"473 932 OFFCURVE",
"535 730 OFFCURVE",
"563 654 CURVE SMOOTH",
"813 -20 LINE",
"998 -20 LINE",
"1467 1110 LINE",
"1469 1110 LINE",
"1468 985 OFFCURVE",
"1468 796 OFFCURVE",
"1467 747 CURVE SMOOTH",
"1461 313 LINE SMOOTH",
"1459 148 OFFCURVE",
"1398 140 OFFCURVE",
"1306 135 CURVE",
"1298 0 LINE",
"1871 0 LINE",
"1880 158 LINE",
"1851 157 OFFCURVE",
"1770 155 OFFCURVE",
"1725 152 CURVE",
"1732 187 OFFCURVE",
"1742 262 OFFCURVE",
"1743 336 CURVE SMOOTH",
"1753 1121 LINE",
"1756 1286 OFFCURVE",
"1816 1294 OFFCURVE",
"1909 1299 CURVE",
"1916 1434 LINE"
);
}
);
width = 1986;
}
);
unicode = 004D;
},
{
glyphname = N;
lastChange = "2013-05-24 22:55:06 +0000";
layers = (
{
anchors = (
{
name = bottom;
position = "{754, 0}";
},
{
name = top;
position = "{829, 1438}";
}
);
layerId = UUID0;
name = "Regular Italic";
paths = (
{
closed = 1;
nodes = (
"1145 1434 LINE",
"1141 1343 LINE",
"1288 1352 LINE",
"1282 1312 OFFCURVE",
"1277 1263 OFFCURVE",
"1274 1204 CURVE SMOOTH",
"1231 262 LINE",
"1227 262 LINE",
"403 1434 LINE",
"160 1434 LINE",
"156 1343 LINE",
"293 1352 LINE",
"238 229 LINE SMOOTH",
"236 166 OFFCURVE",
"219 68 OFFCURVE",
"94 68 CURVE",
"92 0 LINE",
"467 0 LINE",
"471 90 LINE",
"324 82 LINE",
"333 146 OFFCURVE",
"334 215 OFFCURVE",
"338 285 CURVE SMOOTH",
"371 1174 LINE",
"375 1174 LINE",
"1212 -23 LINE",
"1311 -23 LINE",
"1368 1114 LINE SMOOTH",
"1376 1260 OFFCURVE",
"1364 1360 OFFCURVE",
"1518 1366 CURVE",
"1522 1434 LINE"
);
}
);
width = 1561;
},
{
anchors = (
{
name = bottom;
position = "{791, 0}";
},
{
name = top;
position = "{839, 1434}";
}
);
layerId = "6B2A2AD0-3CEC-4B3D-96BE-6A11A3496094";
name = "Bold Italic";
paths = (
{
closed = 1;
nodes = (
"1091 1434 LINE",
"1082 1276 LINE",
"1111 1277 OFFCURVE",
"1192 1279 OFFCURVE",
"1237 1282 CURVE",
"1230 1247 OFFCURVE",
"1223 1172 OFFCURVE",
"1219 1098 CURVE SMOOTH",
"1185 444 LINE",
"1183 444 LINE",
"1153 491 OFFCURVE",
"1115 552 OFFCURVE",
"1050 640 CURVE SMOOTH",
"466 1434 LINE",
"145 1434 LINE",
"136 1276 LINE",
"165 1277 OFFCURVE",
"246 1279 OFFCURVE",
"291 1282 CURVE",
"284 1247 OFFCURVE",
"277 1172 OFFCURVE",
"273 1098 CURVE SMOOTH",
"237 313 LINE",
"228 148 OFFCURVE",
"174 140 OFFCURVE",
"82 135 CURVE",
"74 0 LINE",
"541 0 LINE",
"550 158 LINE",
"521 157 OFFCURVE",
"440 155 OFFCURVE",
"395 152 CURVE",
"402 187 OFFCURVE",
"409 262 OFFCURVE",
"413 336 CURVE SMOOTH",
"443 975 LINE",
"445 975 LINE",
"480 920 OFFCURVE",
"517 867 OFFCURVE",
"549 822 CURVE SMOOTH",
"1160 -20 LINE",
"1334 -20 LINE",
"1394 1121 LINE SMOOTH",
"1403 1286 OFFCURVE",
"1457 1294 OFFCURVE",
"1550 1299 CURVE",
"1557 1434 LINE"
);
}
);
width = 1581;
}
);
unicode = 004E;
},
{
glyphname = O;
lastChange = "2013-05-24 22:55:06 +0000";
layers = (
{
anchors = (
{
name = top;
position = "{855, 1438}";
}
);
layerId = UUID0;
name = "Regular Italic";
paths = (
{
closed = 1;
nodes = (
"391 1467 OFFCURVE",
"100 1092 OFFCURVE",
"100 670 CURVE SMOOTH",
"100 338 OFFCURVE",
"301 -33 OFFCURVE",
"782 -33 CURVE SMOOTH",
"1284 -33 OFFCURVE",
"1528 408 OFFCURVE",
"1528 756 CURVE SMOOTH",
"1528 1089 OFFCURVE",
"1327 1467 OFFCURVE",
"846 1467 CURVE SMOOTH"
);
},
{
closed = 1;
nodes = (
"1161 1385 OFFCURVE",
"1332 1044 OFFCURVE",
"1332 723 CURVE SMOOTH",
"1332 410 OFFCURVE",
"1145 51 OFFCURVE",
"792 51 CURVE SMOOTH",
"426 51 OFFCURVE",
"292 436 OFFCURVE",
"296 715 CURVE SMOOTH",
"300 1030 OFFCURVE",
"493 1385 OFFCURVE",
"835 1385 CURVE SMOOTH"
);
}
);
width = 1614;
},
{
anchors = (
{
name = top;
position = "{818, 1434}";
}
);
layerId = "6B2A2AD0-3CEC-4B3D-96BE-6A11A3496094";
name = "Bold Italic";
paths = (
{
closed = 1;
nodes = (
"347 1467 OFFCURVE",
"98 1060 OFFCURVE",
"81 717 CURVE SMOOTH",
"62 361 OFFCURVE",
"228 -33 OFFCURVE",
"747 -33 CURVE SMOOTH",
"1231 -33 OFFCURVE",
"1477 378 OFFCURVE",
"1495 717 CURVE SMOOTH",
"1512 1058 OFFCURVE",
"1330 1467 OFFCURVE",
"832 1467 CURVE SMOOTH"
);
},
{
closed = 1;
nodes = (
"1082 1334 OFFCURVE",
"1199 1057 OFFCURVE",
"1180 682 CURVE SMOOTH",
"1167 431 OFFCURVE",
"1059 109 OFFCURVE",
"776 107 CURVE SMOOTH",
"466 105 OFFCURVE",
"383 485 OFFCURVE",
"397 741 CURVE SMOOTH",
"410 994 OFFCURVE",
"516 1320 OFFCURVE",
"797 1327 CURVE SMOOTH"
);
}
);
width = 1560;
}
);
unicode = 004F;
},
{
glyphname = Oslash;
lastChange = "2013-05-24 22:55:06 +0000";
layers = (
{
layerId = UUID0;
name = "Regular Italic";
paths = (
{
closed = 1;
nodes = (
"1191 1383 LINE",
"1097 1436 OFFCURVE",
"982 1467 OFFCURVE",
"844 1467 CURVE SMOOTH",
"389 1467 OFFCURVE",
"98 1092 OFFCURVE",
"98 670 CURVE SMOOTH",
"98 455 OFFCURVE",
"182 223 OFFCURVE",
"373 87 CURVE",
"254 -102 LINE",
"344 -158 LINE",
"466 32 LINE",
"554 -9 OFFCURVE",
"658 -33 OFFCURVE",
"780 -33 CURVE SMOOTH",
"1282 -33 OFFCURVE",
"1526 408 OFFCURVE",
"1526 756 CURVE SMOOTH",
"1526 956 OFFCURVE",
"1453 1172 OFFCURVE",
"1291 1313 CURVE",
"1397 1477 LINE",
"1294 1546 LINE"
);
},
{
closed = 1;
nodes = (
"949 1385 OFFCURVE",
"1045 1342 OFFCURVE",
"1121 1272 CURVE",
"451 210 LINE",
"337 348 OFFCURVE",
"291 550 OFFCURVE",
"294 715 CURVE",
"298 1030 OFFCURVE",
"491 1385 OFFCURVE",
"833 1385 CURVE SMOOTH"
);
},
{
closed = 1;
nodes = (
"1287 1050 OFFCURVE",
"1330 884 OFFCURVE",
"1330 723 CURVE SMOOTH",
"1330 410 OFFCURVE",
"1143 51 OFFCURVE",
"790 51 CURVE SMOOTH",
"686 51 OFFCURVE",
"600 82 OFFCURVE",
"531 133 CURVE",
"1203 1176 LINE"
);
}
);
width = 1612;
},
{
layerId = "6B2A2AD0-3CEC-4B3D-96BE-6A11A3496094";
name = "Bold Italic";
paths = (
{
closed = 1;
nodes = (
"1137 1403 LINE",
"1052 1443 OFFCURVE",
"951 1467 OFFCURVE",
"832 1467 CURVE SMOOTH",
"347 1467 OFFCURVE",
"98 1060 OFFCURVE",
"81 717 CURVE SMOOTH",
"69 490 OFFCURVE",
"131 249 OFFCURVE",
"312 103 CURVE",
"179 -107 LINE",
"326 -209 LINE",
"469 14 LINE",
"547 -16 OFFCURVE",
"639 -33 OFFCURVE",
"747 -33 CURVE SMOOTH",
"1231 -33 OFFCURVE",
"1477 378 OFFCURVE",
"1495 717 CURVE SMOOTH",
"1505 919 OFFCURVE",
"1445 1146 OFFCURVE",
"1290 1296 CURVE",
"1422 1503 LINE",
"1265 1604 LINE"
);
},
{
closed = 1;
nodes = (
"1174 956 OFFCURVE",
"1187 826 OFFCURVE",
"1180 682 CURVE SMOOTH",
"1167 431 OFFCURVE",
"1059 109 OFFCURVE",
"776 107 CURVE SMOOTH",
"693 106 OFFCURVE",
"626 133 OFFCURVE",
"573 177 CURVE",
"1139 1061 LINE"
);
},
{
closed = 1;
nodes = (
"895 1329 OFFCURVE",
"974 1298 OFFCURVE",
"1034 1240 CURVE",
"461 337 LINE",
"406 462 OFFCURVE",
"390 616 OFFCURVE",
"397 741 CURVE SMOOTH",
"410 994 OFFCURVE",
"516 1320 OFFCURVE",
"797 1327 CURVE SMOOTH"
);
}
);
width = 1559;
}
);
unicode = 00D8;
},
{
glyphname = OE;
lastChange = "2013-05-24 22:55:06 +0000";
layers = (
{
layerId = UUID0;
name = "Regular Italic";
paths = (
{
closed = 1;
nodes = (
"363 1455 OFFCURVE",
"121 1059 OFFCURVE",
"101 674 CURVE SMOOTH",
"80 266 OFFCURVE",
"333 -33 OFFCURVE",
"750 -33 CURVE SMOOTH",
"830 -33 OFFCURVE",
"925 -23 OFFCURVE",
"1033 0 CURVE",
"1938 0 LINE",
"1971 399 LINE",
"1901 399 LINE",
"1889 156 OFFCURVE",
"1770 70 OFFCURVE",
"1592 76 CURVE SMOOTH",
"1199 88 LINE",
"1205 123 OFFCURVE",
"1211 174 OFFCURVE",
"1213 248 CURVE",
"1238 702 LINE",
"1283 709 OFFCURVE",
"1342 711 OFFCURVE",
"1389 711 CURVE SMOOTH",
"1561 711 OFFCURVE",
"1631 711 OFFCURVE",
"1623 530 CURVE",
"1691 530 LINE",
"1713 977 LINE",
"1645 977 LINE",
"1637 797 OFFCURVE",
"1566 784 OFFCURVE",
"1394 784 CURVE SMOOTH",
"1242 784 LINE",
"1260 1114 LINE SMOOTH",
"1269 1280 OFFCURVE",
"1275 1354 OFFCURVE",
"1428 1358 CURVE SMOOTH",
"1604 1362 LINE SMOOTH",
"1758 1366 OFFCURVE",
"1879 1317 OFFCURVE",
"1867 1075 CURVE",
"1934 1075 LINE",
"1942 1434 LINE",
"1109 1434 LINE",
"1021 1450 OFFCURVE",
"923 1469 OFFCURVE",
"843 1467 CURVE SMOOTH"
);
},
{
closed = 1;
nodes = (
"930 1381 OFFCURVE",
"1027 1364 OFFCURVE",
"1103 1333 CURVE",
"1038 96 LINE",
"954 74 OFFCURVE",
"891 64 OFFCURVE",
"816 64 CURVE SMOOTH",
"464 64 OFFCURVE",
"275 317 OFFCURVE",
"292 705 CURVE SMOOTH",
"310 1126 OFFCURVE",
"560 1381 OFFCURVE",
"851 1381 CURVE SMOOTH"
);
}
);
width = 2073;
},
{
layerId = "6B2A2AD0-3CEC-4B3D-96BE-6A11A3496094";
name = "Bold Italic";
paths = (
{
closed = 1;
nodes = (
"329 1467 OFFCURVE",
"99 1064 OFFCURVE",
"79 691 CURVE SMOOTH",
"58 284 OFFCURVE",
"321 -27 OFFCURVE",
"742 -33 CURVE SMOOTH",
"831 -34 OFFCURVE",
"938 -28 OFFCURVE",
"1038 0 CURVE",
"1950 0 LINE",
"1986 451 LINE",
"1851 451 LINE",
"1839 229 OFFCURVE",
"1707 156 OFFCURVE",
"1586 156 CURVE SMOOTH",
"1311 155 LINE",
"1318 190 OFFCURVE",
"1325 262 OFFCURVE",
"1329 336 CURVE SMOOTH",
"1346 672 LINE",
"1400 673 LINE SMOOTH",
"1511 676 OFFCURVE",
"1601 665 OFFCURVE",
"1592 493 CURVE",
"1727 493 LINE",
"1753 991 LINE",
"1595 991 LINE",
"1595 941 OFFCURVE",
"1594 870 OFFCURVE",
"1595 814 CURVE",
"1354 814 LINE",
"1370 1121 LINE SMOOTH",
"1378 1280 OFFCURVE",
"1430 1297 OFFCURVE",
"1516 1299 CURVE SMOOTH",
"1590 1301 LINE SMOOTH",
"1701 1304 OFFCURVE",
"1837 1259 OFFCURVE",
"1825 1037 CURVE",
"1960 1037 LINE",
"1969 1434 LINE",
"1113 1434 LINE",
"1028 1457 OFFCURVE",
"917 1467 OFFCURVE",
"851 1467 CURVE SMOOTH"
);
},
{
closed = 1;
nodes = (
"936 1322 OFFCURVE",
"1024 1302 OFFCURVE",
"1091 1259 CURVE",
"1086 1220 OFFCURVE",
"1080 1159 OFFCURVE",
"1077 1098 CURVE SMOOTH",
"1028 160 LINE",
"958 135 OFFCURVE",
"887 125 OFFCURVE",
"801 132 CURVE SMOOTH",
"526 154 OFFCURVE",
"378 394 OFFCURVE",
"397 748 CURVE SMOOTH",
"412 1043 OFFCURVE",
"545 1307 OFFCURVE",
"841 1318 CURVE SMOOTH"
);
}
);
width = 2078;
}
);
unicode = 0152;
},
{
glyphname = P;
lastChange = "2013-05-24 22:55:06 +0000";
layers = (
{
layerId = UUID0;
name = "Regular Italic";
paths = (
{
closed = 1;
nodes = (
"449 1437 OFFCURVE",
"304 1436 OFFCURVE",
"160 1434 CURVE",
"154 1343 LINE",
"304 1352 LINE",
"297 1311 OFFCURVE",
"292 1260 OFFCURVE",
"289 1204 CURVE SMOOTH",
"242 319 LINE",
"236 174 OFFCURVE",
"242 74 OFFCURVE",
"89 68 CURVE",
"84 0 LINE",
"578 0 LINE",
"582 92 LINE",
"394 82 LINE",
"400 117 OFFCURVE",
"404 170 OFFCURVE",
"408 244 CURVE SMOOTH",
"424 541 LINE",
"450 539 OFFCURVE",
"489 539 OFFCURVE",
"503 539 CURVE SMOOTH",
"1064 539 OFFCURVE",
"1197 823 OFFCURVE",
"1199 1036 CURVE",
"1199 1298 OFFCURVE",
"1004 1437 OFFCURVE",
"609 1437 CURVE SMOOTH"
);
},
{
closed = 1;
nodes = (
"850 1357 OFFCURVE",
"1018 1260 OFFCURVE",
"1006 1001 CURVE SMOOTH",
"994 762 OFFCURVE",
"795 620 OFFCURVE",
"562 620 CURVE SMOOTH",
"511 620 OFFCURVE",
"480 621 OFFCURVE",
"428 626 CURVE",
"455 1124 LINE",
"461 1270 OFFCURVE",
"471 1357 OFFCURVE",
"601 1357 CURVE SMOOTH"
);
}
);
width = 1223;
},
{
layerId = "6B2A2AD0-3CEC-4B3D-96BE-6A11A3496094";
name = "Bold Italic";
paths = (
{
closed = 1;
nodes = (
"147 1434 LINE",
"139 1276 LINE",
"168 1277 OFFCURVE",
"249 1279 OFFCURVE",
"293 1282 CURVE",
"286 1247 OFFCURVE",
"279 1172 OFFCURVE",
"275 1098 CURVE SMOOTH",
"234 313 LINE SMOOTH",
"226 148 OFFCURVE",
"171 140 OFFCURVE",
"79 135 CURVE",
"72 0 LINE",
"675 0 LINE",
"683 158 LINE",
"654 157 OFFCURVE",
"553 155 OFFCURVE",
"509 152 CURVE",
"516 187 OFFCURVE",
"523 263 OFFCURVE",
"526 337 CURVE SMOOTH",
"536 518 LINE",
"584 517 OFFCURVE",
"622 517 OFFCURVE",
"685 519 CURVE SMOOTH",
"1073 530 OFFCURVE",
"1266 754 OFFCURVE",
"1284 973 CURVE SMOOTH",
"1310 1299 OFFCURVE",
"1084 1440 OFFCURVE",
"725 1438 CURVE SMOOTH"
);
},
{
closed = 1;
nodes = (
"818 1294 OFFCURVE",
"988 1265 OFFCURVE",
"974 992 CURVE SMOOTH",
"963 783 OFFCURVE",
"862 665 OFFCURVE",
"636 665 CURVE SMOOTH",
"604 665 OFFCURVE",
"573 668 OFFCURVE",
"544 671 CURVE",
"568 1132 LINE SMOOTH",
"576 1276 OFFCURVE",
"628 1294 OFFCURVE",
"715 1294 CURVE SMOOTH"
);
}
);
width = 1295;
}
);
unicode = 0050;
},
{
glyphname = Thorn;
lastChange = "2013-05-24 22:55:06 +0000";
layers = (
{
layerId = UUID0;
name = "Regular Italic";
paths = (
{
closed = 1;
nodes = (
"160 1434 LINE",
"156 1343 LINE",
"304 1352 LINE",
"297 1311 OFFCURVE",
"292 1260 OFFCURVE",
"289 1204 CURVE SMOOTH",
"242 319 LINE",
"236 174 OFFCURVE",
"242 74 OFFCURVE",
"89 68 CURVE",
"84 0 LINE",
"537 0 LINE",
"541 90 LINE",
"394 82 LINE",
"401 117 OFFCURVE",
"404 145 OFFCURVE",
"407 219 CURVE SMOOTH",
"412 326 LINE",
"445 326 LINE SMOOTH",
"1006 326 OFFCURVE",
"1145 610 OFFCURVE",
"1145 803 CURVE SMOOTH",
"1145 1040 OFFCURVE",
"959 1184 OFFCURVE",
"564 1184 CURVE SMOOTH",
"530 1184 OFFCURVE",
"493 1183 OFFCURVE",
"457 1182 CURVE",
"464 1297 OFFCURVE",
"482 1360 OFFCURVE",
"609 1366 CURVE",
"613 1434 LINE"
);
},
{
closed = 1;
nodes = (
"797 1104 OFFCURVE",
"967 1006 OFFCURVE",
"953 768 CURVE SMOOTH",
"940 549 OFFCURVE",
"766 408 OFFCURVE",
"508 406 CURVE SMOOTH",
"473 406 OFFCURVE",
"446 404 OFFCURVE",
"416 406 CURVE",
"453 1102 LINE",
"499 1104 OFFCURVE",
"537 1104 OFFCURVE",
"547 1104 CURVE SMOOTH"
);
}
);
width = 1182;
},
{
layerId = "6B2A2AD0-3CEC-4B3D-96BE-6A11A3496094";
name = "Bold Italic";
paths = (
{
closed = 1;
nodes = (
"147 1434 LINE",
"139 1276 LINE",
"168 1277 OFFCURVE",
"249 1279 OFFCURVE",
"293 1282 CURVE",
"286 1247 OFFCURVE",
"279 1172 OFFCURVE",
"275 1098 CURVE SMOOTH",
"234 313 LINE SMOOTH",
"226 148 OFFCURVE",
"171 140 OFFCURVE",
"79 135 CURVE",
"72 0 LINE",
"655 0 LINE",
"663 158 LINE",
"634 157 OFFCURVE",
"553 155 OFFCURVE",
"509 152 CURVE",
"515 182 OFFCURVE",
"521 246 OFFCURVE",
"525 311 CURVE",
"566 310 OFFCURVE",
"601 309 OFFCURVE",
"657 311 CURVE SMOOTH",
"1045 322 OFFCURVE",
"1248 516 OFFCURVE",
"1265 735 CURVE SMOOTH",
"1291 1061 OFFCURVE",
"1053 1174 OFFCURVE",
"694 1170 CURVE SMOOTH",
"572 1168 LINE",
"588 1287 OFFCURVE",
"640 1294 OFFCURVE",
"723 1299 CURVE",
"730 1434 LINE"
);
},
{
closed = 1;
nodes = (
"768 1025 OFFCURVE",
"964 1017 OFFCURVE",
"950 754 CURVE SMOOTH",
"940 555 OFFCURVE",
"834 457 OFFCURVE",
"608 457 CURVE SMOOTH",
"581 457 OFFCURVE",
"557 458 OFFCURVE",
"533 461 CURVE",
"563 1024 LINE",
"595 1025 OFFCURVE",
"634 1025 OFFCURVE",
"683 1025 CURVE SMOOTH"
);
}
);
width = 1290;
}
);
unicode = 00DE;
},
{
glyphname = Q;
lastChange = "2013-05-24 22:55:06 +0000";
layers = (
{
layerId = UUID0;
name = "Regular Italic";
paths = (
{
closed = 1;
nodes = (
"391 1467 OFFCURVE",
"100 1092 OFFCURVE",
"100 670 CURVE SMOOTH",
"100 338 OFFCURVE",
"301 -33 OFFCURVE",
"782 -33 CURVE SMOOTH",
"944 -33 OFFCURVE",
"994 -148 OFFCURVE",
"1198 -332 CURVE SMOOTH",
"1325 -446 OFFCURVE",
"1384 -446 OFFCURVE",
"1532 -446 CURVE SMOOTH",
"1597 -446 LINE",
"1597 -379 LINE",
"1585 -379 LINE SMOOTH",
"1517 -379 OFFCURVE",
"1460 -322 OFFCURVE",
"1270 -145 CURVE SMOOTH",
"1139 -24 OFFCURVE",
"1063 -17 OFFCURVE",
"948 -17 CURVE",
"948 -15 LINE",
"1338 69 OFFCURVE",
"1528 449 OFFCURVE",
"1528 756 CURVE SMOOTH",
"1528 1089 OFFCURVE",
"1327 1467 OFFCURVE",
"846 1467 CURVE SMOOTH"
);
},
{
closed = 1;
nodes = (
"1161 1385 OFFCURVE",
"1332 1044 OFFCURVE",
"1332 723 CURVE SMOOTH",
"1332 410 OFFCURVE",
"1145 51 OFFCURVE",
"792 51 CURVE SMOOTH",
"426 51 OFFCURVE",
"292 436 OFFCURVE",
"296 715 CURVE SMOOTH",
"300 1030 OFFCURVE",
"493 1385 OFFCURVE",
"835 1385 CURVE SMOOTH"
);
}
);
width = 1614;
},
{
layerId = "6B2A2AD0-3CEC-4B3D-96BE-6A11A3496094";
name = "Bold Italic";
paths = (
{
closed = 1;
nodes = (
"348 1467 OFFCURVE",
"98 1060 OFFCURVE",
"80 717 CURVE SMOOTH",
"62 365 OFFCURVE",
"224 -33 OFFCURVE",
"728 -33 CURVE SMOOTH",
"897 -33 OFFCURVE",
"965 -182 OFFCURVE",
"1131 -335 CURVE SMOOTH",
"1242 -437 OFFCURVE",
"1289 -446 OFFCURVE",
"1478 -446 CURVE SMOOTH",
"1563 -446 LINE",
"1571 -309 LINE",
"1482 -309 OFFCURVE",
"1472 -281 OFFCURVE",
"1291 -104 CURVE SMOOTH",
"1190 -5 OFFCURVE",
"1123 11 OFFCURVE",
"1006 11 CURVE",
"1006 13 LINE",
"1321 129 OFFCURVE",
"1485 445 OFFCURVE",
"1499 717 CURVE SMOOTH",
"1517 1058 OFFCURVE",
"1331 1467 OFFCURVE",
"833 1467 CURVE SMOOTH"
);
},
{
closed = 1;
nodes = (
"1083 1324 OFFCURVE",
"1200 1057 OFFCURVE",
"1180 682 CURVE SMOOTH",
"1167 431 OFFCURVE",
"1060 118 OFFCURVE",
"777 116 CURVE SMOOTH",
"467 114 OFFCURVE",
"384 485 OFFCURVE",
"398 741 CURVE SMOOTH",
"411 994 OFFCURVE",
"516 1310 OFFCURVE",
"798 1317 CURVE SMOOTH"
);
}
);
width = 1564;
}
);
unicode = 0051;
},
{
glyphname = R;
lastChange = "2013-05-24 22:55:06 +0000";
layers = (
{
anchors = (
{
name = bottom;
position = "{638, 0}";
},
{
name = top;
position = "{662, 1438}";
}
);
layerId = UUID0;
name = "Regular Italic";
paths = (
{
closed = 1;
nodes = (
"463 1439 OFFCURVE",
"314 1435 OFFCURVE",
"160 1434 CURVE",
"154 1343 LINE",
"304 1352 LINE",
"297 1311 OFFCURVE",
"291 1260 OFFCURVE",
"289 1204 CURVE",
"242 319 LINE",
"236 174 OFFCURVE",
"242 74 OFFCURVE",
"89 68 CURVE",
"84 0 LINE",
"537 0 LINE",
"541 90 LINE",
"394 82 LINE",
"400 117 OFFCURVE",
"404 170 OFFCURVE",
"408 244 CURVE SMOOTH",
"429 642 LINE",
"441 641 OFFCURVE",
"490 639 OFFCURVE",
"508 639 CURVE SMOOTH",
"532 639 OFFCURVE",
"555 639 OFFCURVE",
"577 640 CURVE",
"631 588 OFFCURVE",
"671 506 OFFCURVE",
"704 447 CURVE SMOOTH",
"830 227 LINE",
"883 137 OFFCURVE",
"937 51 OFFCURVE",
"1000 0 CURVE",
"1250 0 LINE",
"1254 68 LINE",
"1125 68 OFFCURVE",
"1078 152 OFFCURVE",
"1014 262 CURVE SMOOTH",
"887 481 LINE SMOOTH",
"841 560 OFFCURVE",
"803 619 OFFCURVE",
"752 658 CURVE",
"752 658 OFFCURVE",
"752 660 OFFCURVE",
"752 660 CURVE",
"1064 723 OFFCURVE",
"1141 908 OFFCURVE",
"1149 1063 CURVE",
"1162 1280 OFFCURVE",
"1016 1432 OFFCURVE",
"621 1437 CURVE SMOOTH"
);
},
{
closed = 1;
nodes = (
"861 1359 OFFCURVE",
"969 1253 OFFCURVE",
"959 1047 CURVE SMOOTH",
"947 811 OFFCURVE",
"785 725 OFFCURVE",
"560 717 CURVE SMOOTH",
"511 715 OFFCURVE",
"475 716 OFFCURVE",
"433 720 CURVE",
"455 1124 LINE",
"461 1270 OFFCURVE",
"465 1359 OFFCURVE",
"609 1359 CURVE SMOOTH"
);
}
);
width = 1280;
},
{
anchors = (
{
name = bottom;
position = "{697, 0}";
},
{
name = top;
position = "{722, 1441}";
}
);
layerId = "6B2A2AD0-3CEC-4B3D-96BE-6A11A3496094";
name = "Bold Italic";
paths = (
{
closed = 1;
nodes = (
"147 1434 LINE",
"139 1276 LINE",
"168 1277 OFFCURVE",
"249 1279 OFFCURVE",
"293 1282 CURVE",
"286 1247 OFFCURVE",
"279 1172 OFFCURVE",
"275 1098 CURVE SMOOTH",
"234 313 LINE SMOOTH",
"226 148 OFFCURVE",
"171 140 OFFCURVE",
"79 135 CURVE",
"72 0 LINE",
"675 0 LINE",
"683 158 LINE",
"654 157 OFFCURVE",
"553 155 OFFCURVE",
"509 152 CURVE",
"516 187 OFFCURVE",
"523 263 OFFCURVE",
"526 337 CURVE SMOOTH",
"538 558 LINE",
"578 557 OFFCURVE",
"602 557 OFFCURVE",
"646 558 CURVE",
"669 529 OFFCURVE",
"694 494 OFFCURVE",
"726 438 CURVE SMOOTH",
"863 193 LINE SMOOTH",
"912 105 OFFCURVE",
"957 35 OFFCURVE",
"1004 0 CURVE",
"1336 0 LINE",
"1343 135 LINE",
"1251 140 OFFCURVE",
"1208 189 OFFCURVE",
"1124 327 CURVE SMOOTH",
"1036 472 LINE SMOOTH",
"1002 527 OFFCURVE",
"951 580 OFFCURVE",
"901 600 CURVE",
"901 602 LINE",
"1143 669 OFFCURVE",
"1267 823 OFFCURVE",
"1281 997 CURVE SMOOTH",
"1307 1323 OFFCURVE",
"1084 1440 OFFCURVE",
"725 1438 CURVE SMOOTH"
);
},
{
closed = 1;
nodes = (
"798 1294 OFFCURVE",
"993 1276 OFFCURVE",
"979 1013 CURVE SMOOTH",
"968 804 OFFCURVE",
"872 705 OFFCURVE",
"646 705 CURVE SMOOTH",
"611 705 OFFCURVE",
"578 708 OFFCURVE",
"546 712 CURVE",
"568 1132 LINE SMOOTH",
"576 1276 OFFCURVE",
"628 1294 OFFCURVE",
"715 1294 CURVE SMOOTH"
);
}
);
width = 1394;
}
);
unicode = 0052;
},
{
glyphname = S;
lastChange = "2013-05-30 21:30:34 +0000";
layers = (
{
anchors = (
{
name = bottom;
position = "{597, 0}";
},
{
name = top;
position = "{649, 1438}";
}
);
layerId = UUID0;
name = "Regular Italic";
paths = (
{
closed = 1;
nodes = (
"250 1467 OFFCURVE",
"156 1243 OFFCURVE",
"148 1104 CURVE SMOOTH",
"121 631 OFFCURVE",
"903 715 OFFCURVE",
"883 307 CURVE SMOOTH",
"875 141 OFFCURVE",
"729 53 OFFCURVE",
"569 53 CURVE SMOOTH",
"352 53 OFFCURVE",
"189 168 OFFCURVE",
"187 420 CURVE",
"107 420 LINE",
"96 -16 LINE",
"203 -16 LINE",
"197 55 LINE",
"300 -14 OFFCURVE",
"450 -33 OFFCURVE",
"555 -33 CURVE SMOOTH",
"860 -33 OFFCURVE",
"1045 127 OFFCURVE",
"1055 354 CURVE",
"1081 840 OFFCURVE",
"291 768 OFFCURVE",
"311 1143 CURVE SMOOTH",
"318 1272 OFFCURVE",
"420 1385 OFFCURVE",
"590 1385 CURVE SMOOTH",
"830 1385 OFFCURVE",
"934 1197 OFFCURVE",
"936 1000 CURVE",
"1010 1000 LINE",
"1032 1449 LINE",
"928 1449 LINE",
"931 1362 LINE",
"824 1443 OFFCURVE",
"687 1467 OFFCURVE",
"582 1467 CURVE SMOOTH"
);
}
);
width = 1159;
},
{
anchors = (
{
name = bottom;
position = "{679, 0}";
},
{
name = top;
position = "{678, 1434}";
}
);
layerId = "6B2A2AD0-3CEC-4B3D-96BE-6A11A3496094";
name = "Bold Italic";
paths = (
{
closed = 1;
nodes = (
"252 1467 OFFCURVE",
"124 1245 OFFCURVE",
"115 1076 CURVE SMOOTH",
"101 807 OFFCURVE",
"293 679 OFFCURVE",
"552 573 CURVE SMOOTH",
"703 511 OFFCURVE",
"875 451 OFFCURVE",
"867 308 CURVE SMOOTH",
"862 202 OFFCURVE",
"756 115 OFFCURVE",
"610 115 CURVE SMOOTH",
"419 115 OFFCURVE",
"274 231 OFFCURVE",
"249 460 CURVE",
"115 460 LINE",
"90 -19 LINE",
"248 -19 LINE",
"245 68 LINE",
"247 68 LINE",
"353 2 OFFCURVE",
"489 -33 OFFCURVE",
"596 -33 CURVE SMOOTH",
"913 -33 OFFCURVE",
"1131 138 OFFCURVE",
"1144 380 CURVE SMOOTH",
"1158 648 OFFCURVE",
"902 771 OFFCURVE",
"701 854 CURVE SMOOTH",
"480 945 OFFCURVE",
"378 1015 OFFCURVE",
"385 1143 CURVE SMOOTH",
"390 1245 OFFCURVE",
"498 1318 OFFCURVE",
"614 1319 CURVE SMOOTH",
"805 1321 OFFCURVE",
"926 1203 OFFCURVE",
"951 974 CURVE",
"1085 974 LINE",
"1110 1453 LINE",
"952 1453 LINE",
"955 1369 LINE",
"953 1369 LINE",
"866 1434 OFFCURVE",
"722 1467 OFFCURVE",
"615 1467 CURVE SMOOTH"
);
}
);
width = 1229;
}
);
unicode = 0053;
},
{
glyphname = T;
lastChange = "2013-05-24 22:55:06 +0000";
layers = (
{
anchors = (
{
name = bottom;
position = "{656, 0}";
},
{
name = center;
position = "{669, 719}";
},
{
name = top;
position = "{724, 1438}";
}
);
layerId = UUID0;
name = "Regular Italic";
paths = (
{
closed = 1;
nodes = (
"109 1434 LINE",
"74 1001 LINE",
"150 1001 LINE",
"162 1243 OFFCURVE",
"232 1355 OFFCURVE",
"404 1356 CURVE SMOOTH",
"614 1357 LINE",
"551 319 LINE SMOOTH",
"543 180 OFFCURVE",
"533 74 OFFCURVE",
"400 68 CURVE",
"396 0 LINE",
"869 0 LINE",
"873 90 LINE",
"703 82 LINE",
"709 117 OFFCURVE",
"713 170 OFFCURVE",
"717 244 CURVE SMOOTH",
"784 1358 LINE",
"959 1360 LINE SMOOTH",
"1170 1362 OFFCURVE",
"1215 1243 OFFCURVE",
"1207 1001 CURVE",
"1285 1001 LINE",
"1295 1434 LINE"
);
}
);
width = 1303;
},
{
anchors = (
{
name = bottom;
position = "{700, 0}";
},
{
name = center;
position = "{664, 717}";
},
{
name = top;
position = "{716, 1434}";
}
);
layerId = "6B2A2AD0-3CEC-4B3D-96BE-6A11A3496094";
name = "Bold Italic";
paths = (
{
closed = 1;
nodes = (
"95 1434 LINE",
"59 970 LINE",
"194 970 LINE",
"205 1192 OFFCURVE",
"309 1293 OFFCURVE",
"464 1294 CURVE SMOOTH",
"559 1294 LINE",
"507 313 LINE SMOOTH",
"499 148 OFFCURVE",
"444 140 OFFCURVE",
"352 135 CURVE",
"345 0 LINE",
"938 0 LINE",
"946 158 LINE",
"917 157 OFFCURVE",
"826 155 OFFCURVE",
"782 152 CURVE",
"789 187 OFFCURVE",
"796 262 OFFCURVE",
"800 336 CURVE SMOOTH",
"850 1296 LINE",
"948 1297 LINE SMOOTH",
"1103 1298 OFFCURVE",
"1195 1192 OFFCURVE",
"1184 970 CURVE",
"1319 970 LINE",
"1331 1434 LINE"
);
}
);
width = 1328;
}
);
unicode = 0054;
},
{
glyphname = U;
lastChange = "2013-05-24 22:55:06 +0000";
layers = (
{
anchors = (
{
name = ogonek;
position = "{984, 10}";
},
{
name = top;
position = "{835, 1438}";
}
);
layerId = UUID0;
name = "Regular Italic";
paths = (
{
closed = 1;
nodes = (
"1139 1434 LINE",
"1135 1343 LINE",
"1282 1352 LINE",
"1276 1311 OFFCURVE",
"1272 1260 OFFCURVE",
"1268 1204 CURVE SMOOTH",
"1231 627 LINE SMOOTH",
"1209 307 OFFCURVE",
"1075 84 OFFCURVE",
"781 84 CURVE SMOOTH",
"414 84 OFFCURVE",
"371 381 OFFCURVE",
"387 686 CURVE SMOOTH",
"414 1204 LINE SMOOTH",
"418 1260 OFFCURVE",
"426 1366 OFFCURVE",
"566 1366 CURVE",
"570 1434 LINE",
"115 1434 LINE",
"111 1346 LINE",
"258 1352 LINE",
"250 1298 OFFCURVE",
"246 1257 OFFCURVE",
"242 1186 CURVE SMOOTH",
"215 696 LINE SMOOTH",
"189 190 OFFCURVE",
"312 -33 OFFCURVE",
"750 -33 CURVE SMOOTH",
"1159 -33 OFFCURVE",
"1315 281 OFFCURVE",
"1336 637 CURVE SMOOTH",
"1364 1114 LINE",
"1372 1260 OFFCURVE",
"1364 1360 OFFCURVE",
"1520 1366 CURVE",
"1522 1434 LINE"
);
}
);
width = 1524;
},
{
anchors = (
{
name = ogonek;
position = "{1008, 10}";
},
{
name = top;
position = "{864, 1434}";
}
);
layerId = "6B2A2AD0-3CEC-4B3D-96BE-6A11A3496094";
name = "Bold Italic";
paths = (
{
closed = 1;
nodes = (
"1074 1434 LINE",
"1066 1276 LINE",
"1095 1277 OFFCURVE",
"1176 1279 OFFCURVE",
"1220 1282 CURVE",
"1213 1247 OFFCURVE",
"1206 1172 OFFCURVE",
"1202 1098 CURVE SMOOTH",
"1174 561 LINE SMOOTH",
"1158 259 OFFCURVE",
"1017 115 OFFCURVE",
"792 123 CURVE SMOOTH",
"627 129 OFFCURVE",
"471 215 OFFCURVE",
"489 558 CURVE SMOOTH",
"519 1121 LINE",
"527 1286 OFFCURVE",
"582 1294 OFFCURVE",
"674 1299 CURVE",
"681 1434 LINE",
"97 1434 LINE",
"89 1276 LINE",
"118 1277 OFFCURVE",
"199 1279 OFFCURVE",
"243 1282 CURVE",
"236 1247 OFFCURVE",
"229 1172 OFFCURVE",
"225 1098 CURVE SMOOTH",
"199 602 LINE SMOOTH",
"181 251 OFFCURVE",
"290 -33 OFFCURVE",
"752 -33 CURVE SMOOTH",
"1079 -33 OFFCURVE",
"1334 137 OFFCURVE",
"1359 608 CURVE SMOOTH",
"1386 1121 LINE SMOOTH",
"1394 1286 OFFCURVE",
"1449 1294 OFFCURVE",
"1541 1299 CURVE",
"1548 1434 LINE"
);
}
);
width = 1547;
}
);
unicode = 0055;
},
{
glyphname = V;
lastChange = "2013-05-24 22:55:06 +0000";
layers = (
{
layerId = UUID0;
name = "Regular Italic";
paths = (
{
closed = 1;
nodes = (
"1009 1434 LINE",
"1005 1343 LINE",
"1163 1352 LINE",
"1145 1319 OFFCURVE",
"1124 1270 OFFCURVE",
"1095 1200 CURVE SMOOTH",
"1046 1079 OFFCURVE",
"973 905 OFFCURVE",
"833 563 CURVE SMOOTH",
"784 442 OFFCURVE",
"751 365 OFFCURVE",
"715 270 CURVE",
"710 270 LINE",
"680 362 OFFCURVE",
"624 512 OFFCURVE",
"565 666 CURVE SMOOTH",
"502 840 OFFCURVE",
"454 981 OFFCURVE",
"397 1143 CURVE SMOOTH",
"348 1278 OFFCURVE",
"375 1356 OFFCURVE",
"514 1364 CURVE",
"518 1434 LINE",
"51 1434 LINE",
"47 1343 LINE",
"162 1348 LINE",
"166 1286 OFFCURVE",
"182 1208 OFFCURVE",
"235 1069 CURVE SMOOTH",
"637 -23 LINE",
"690 -23 LINE",
"1151 1076 OFFCURVE",
"1168 1121 OFFCURVE",
"1186 1165 CURVE SMOOTH",
"1247 1313 OFFCURVE",
"1300 1360 OFFCURVE",
"1421 1366 CURVE",
"1425 1434 LINE"
);
}
);
width = 1362;
},
{
layerId = "6B2A2AD0-3CEC-4B3D-96BE-6A11A3496094";
name = "Bold Italic";
paths = (
{
closed = 1;
nodes = (
"1025 1434 LINE",
"1017 1276 LINE",
"1046 1277 OFFCURVE",
"1130 1281 OFFCURVE",
"1175 1284 CURVE",
"1174 1282 LINE",
"1137 1240 OFFCURVE",
"1099 1141 OFFCURVE",
"1081 1096 CURVE SMOOTH",
"903 667 LINE SMOOTH",
"865 574 OFFCURVE",
"823 463 OFFCURVE",
"788 382 CURVE",
"786 382 LINE",
"750 486 OFFCURVE",
"728 564 OFFCURVE",
"687 677 CURVE",
"522 1141 LINE SMOOTH",
"480 1262 OFFCURVE",
"547 1301 OFFCURVE",
"649 1299 CURVE",
"656 1434 LINE",
"60 1434 LINE",
"52 1276 LINE",
"81 1277 OFFCURVE",
"117 1279 OFFCURVE",
"161 1282 CURVE",
"159 1238 OFFCURVE",
"184 1155 OFFCURVE",
"209 1087 CURVE SMOOTH",
"625 -12 LINE",
"785 -12 LINE",
"1251 1080 LINE SMOOTH",
"1318 1237 OFFCURVE",
"1387 1294 OFFCURVE",
"1479 1299 CURVE",
"1486 1434 LINE"
);
}
);
width = 1438;
}
);
unicode = 0056;
},
{
glyphname = W;
lastChange = "2013-05-24 22:55:06 +0000";
layers = (
{
anchors = (
{
name = top;
position = "{1112, 1443}";
}
);
layerId = UUID0;
name = "Regular Italic";
paths = (
{
closed = 1;
nodes = (
"1054 1438 LINE",
"1013 1315 OFFCURVE",
"890 987 OFFCURVE",
"743 592 CURVE SMOOTH",
"722 537 OFFCURVE",
"671 404 OFFCURVE",
"638 312 CURVE",
"634 312 LINE",
"599 441 OFFCURVE",
"567 543 OFFCURVE",
"534 666 CURVE SMOOTH",
"491 831 OFFCURVE",
"443 963 OFFCURVE",
"404 1143 CURVE SMOOTH",
"367 1307 OFFCURVE",
"389 1358 OFFCURVE",
"548 1366 CURVE",
"552 1434 LINE",
"61 1434 LINE",
"57 1343 LINE",
"173 1348 LINE",
"180 1286 OFFCURVE",
"203 1213 OFFCURVE",
"244 1069 CURVE SMOOTH",
"552 -22 LINE",
"606 -22 LINE",
"1027 1087 LINE",
"1034 1087 LINE",
"1054 1006 OFFCURVE",
"1075 926 OFFCURVE",
"1116 784 CURVE SMOOTH",
"1349 -22 LINE",
"1402 -22 LINE",
"1550 332 OFFCURVE",
"1683 692 OFFCURVE",
"1828 1063 CURVE SMOOTH",
"1927 1315 OFFCURVE",
"1957 1350 OFFCURVE",
"2097 1366 CURVE",
"2101 1434 LINE",
"1685 1434 LINE",
"1681 1343 LINE",
"1845 1350 LINE",
"1817 1303 OFFCURVE",
"1791 1245 OFFCURVE",
"1775 1200 CURVE SMOOTH",
"1726 1073 OFFCURVE",
"1684 970 OFFCURVE",
"1533 561 CURVE SMOOTH",
"1497 465 OFFCURVE",
"1461 371 OFFCURVE",
"1430 293 CURVE",
"1426 293 LINE",
"1393 422 OFFCURVE",
"1357 543 OFFCURVE",
"1324 666 CURVE SMOOTH",
"1281 831 OFFCURVE",
"1154 1257 OFFCURVE",
"1111 1438 CURVE"
);
}
);
width = 2036;
},
{
anchors = (
{
name = top;
position = "{1120, 1434}";
}
);
layerId = "6B2A2AD0-3CEC-4B3D-96BE-6A11A3496094";
name = "Bold Italic";
paths = (
{
closed = 1;
nodes = (
"1655 1434 LINE",
"1647 1276 LINE",
"1676 1277 OFFCURVE",
"1760 1281 OFFCURVE",
"1805 1284 CURVE",
"1804 1282 LINE",
"1761 1238 OFFCURVE",
"1732 1161 OFFCURVE",
"1711 1096 CURVE",
"1574 667 LINE SMOOTH",
"1543 568 OFFCURVE",
"1510 474 OFFCURVE",
"1481 384 CURVE",
"1479 384 LINE",
"1462 486 OFFCURVE",
"1445 585 OFFCURVE",
"1421 679 CURVE SMOOTH",
"1228 1434 LINE",
"1045 1434 LINE",
"822 806 LINE SMOOTH",
"801 747 OFFCURVE",
"706 462 OFFCURVE",
"684 387 CURVE",
"682 387 LINE",
"663 519 OFFCURVE",
"648 584 OFFCURVE",
"628 677 CURVE SMOOTH",
"529 1145 LINE",
"501 1270 OFFCURVE",
"556 1301 OFFCURVE",
"658 1299 CURVE",
"665 1434 LINE",
"67 1434 LINE",
"59 1276 LINE",
"88 1277 OFFCURVE",
"124 1279 OFFCURVE",
"168 1282 CURVE",
"166 1238 OFFCURVE",
"191 1159 OFFCURVE",
"216 1091 CURVE",
"524 -12 LINE",
"697 -12 LINE",
"970 756 LINE SMOOTH",
"1003 848 OFFCURVE",
"1025 930 OFFCURVE",
"1045 1023 CURVE",
"1047 1023 LINE",
"1061 930 OFFCURVE",
"1075 828 OFFCURVE",
"1105 721 CURVE SMOOTH",
"1310 -12 LINE",
"1489 -12 LINE",
"1881 1080 LINE",
"1941 1239 OFFCURVE",
"2017 1294 OFFCURVE",
"2109 1299 CURVE",
"2116 1434 LINE"
);
}
);
width = 2068;
}
);
unicode = 0057;
},
{
glyphname = X;
lastChange = "2013-05-24 22:55:06 +0000";
layers = (
{
layerId = UUID0;
name = "Regular Italic";
paths = (
{
closed = 1;
nodes = (
"921 1434 LINE",
"917 1343 LINE",
"1089 1352 LINE",
"1044 1313 OFFCURVE",
"971 1212 OFFCURVE",
"897 1114 CURVE SMOOTH",
"684 829 LINE",
"585 975 OFFCURVE",
"494 1114 OFFCURVE",
"448 1196 CURVE SMOOTH",
"405 1272 OFFCURVE",
"356 1355 OFFCURVE",
"504 1362 CURVE SMOOTH",
"594 1366 LINE",
"598 1434 LINE",
"65 1434 LINE",
"61 1343 LINE",
"176 1348 LINE",
"215 1237 OFFCURVE",
"242 1190 OFFCURVE",
"581 693 CURVE",
"297 313 LINE SMOOTH",
"196 178 OFFCURVE",
"135 94 OFFCURVE",
"4 68 CURVE",
"0 0 LINE",
"401 0 LINE",
"405 90 LINE",
"235 80 LINE",
"305 158 OFFCURVE",
"360 240 OFFCURVE",
"414 313 CURVE SMOOTH",
"489 415 OFFCURVE",
"561 516 OFFCURVE",
"634 616 CURVE",
"755 441 OFFCURVE",
"853 304 OFFCURVE",
"909 217 CURVE SMOOTH",
"954 147 OFFCURVE",
"962 63 OFFCURVE",
"817 68 CURVE",
"813 0 LINE",
"1317 0 LINE",
"1321 90 LINE",
"1202 86 LINE",
"1160 154 OFFCURVE",
"1115 216 OFFCURVE",
"1071 276 CURVE SMOOTH",
"1010 359 OFFCURVE",
"871 556 OFFCURVE",
"736 753 CURVE",
"985 1081 LINE SMOOTH",
"1079 1204 OFFCURVE",
"1190 1348 OFFCURVE",
"1321 1366 CURVE",
"1325 1434 LINE"
);
}
);
width = 1335;
},
{
layerId = "6B2A2AD0-3CEC-4B3D-96BE-6A11A3496094";
name = "Bold Italic";
paths = (
{
closed = 1;
nodes = (
"910 1434 LINE",
"902 1276 LINE",
"931 1277 OFFCURVE",
"1011 1281 OFFCURVE",
"1055 1284 CURVE",
"1055 1282 LINE",
"1018 1250 OFFCURVE",
"989 1220 OFFCURVE",
"928 1143 CURVE",
"761 927 LINE",
"759 927 LINE",
"591 1159 LINE SMOOTH",
"534 1237 OFFCURVE",
"537 1299 OFFCURVE",
"687 1299 CURVE",
"694 1434 LINE",
"75 1434 LINE",
"67 1276 LINE",
"96 1277 OFFCURVE",
"106 1279 OFFCURVE",
"150 1282 CURVE",
"176 1213 OFFCURVE",
"220 1147 OFFCURVE",
"263 1089 CURVE SMOOTH",
"571 672 LINE",
"316 354 LINE SMOOTH",
"209 219 OFFCURVE",
"129 153 OFFCURVE",
"51 135 CURVE",
"44 0 LINE",
"495 0 LINE",
"503 158 LINE",
"474 157 OFFCURVE",
"401 153 OFFCURVE",
"357 150 CURVE",
"357 152 LINE",
"391 184 OFFCURVE",
"416 214 OFFCURVE",
"477 291 CURVE",
"669 539 LINE",
"671 539 LINE",
"865 275 LINE SMOOTH",
"923 197 OFFCURVE",
"940 135 OFFCURVE",
"790 135 CURVE",
"783 0 LINE",
"1390 0 LINE",
"1398 158 LINE",
"1369 157 OFFCURVE",
"1363 155 OFFCURVE",
"1319 152 CURVE",
"1299 199 OFFCURVE",
"1259 249 OFFCURVE",
"1216 307 CURVE SMOOTH",
"856 798 LINE",
"1067 1067 LINE SMOOTH",
"1184 1216 OFFCURVE",
"1273 1286 OFFCURVE",
"1369 1299 CURVE",
"1376 1434 LINE"
);
}
);
width = 1434;
}
);
unicode = 0058;
},
{
glyphname = Y;
lastChange = "2013-05-24 22:55:06 +0000";
layers = (
{
anchors = (
{
name = top;
position = "{736, 1438}";
}
);
layerId = UUID0;
name = "Regular Italic";
paths = (
{
closed = 1;
nodes = (
"952 1434 LINE",
"948 1343 LINE",
"1110 1350 LINE",
"1069 1307 OFFCURVE",
"1026 1233 OFFCURVE",
"1003 1194 CURVE SMOOTH",
"905 1028 OFFCURVE",
"819 885 OFFCURVE",
"713 698 CURVE",
"709 698 LINE",
"600 862 OFFCURVE",
"537 981 OFFCURVE",
"442 1143 CURVE SMOOTH",
"369 1274 OFFCURVE",
"375 1366 OFFCURVE",
"563 1366 CURVE",
"567 1434 LINE",
"47 1434 LINE",
"43 1343 LINE",
"170 1348 LINE",
"176 1296 OFFCURVE",
"203 1225 OFFCURVE",
"268 1116 CURVE SMOOTH",
"592 553 LINE",
"580 319 LINE SMOOTH",
"573 180 OFFCURVE",
"582 74 OFFCURVE",
"428 68 CURVE",
"424 0 LINE",
"897 0 LINE",
"901 90 LINE",
"731 82 LINE",
"737 117 OFFCURVE",
"743 170 OFFCURVE",
"745 244 CURVE SMOOTH",
"743 246 OFFCURVE",
"762 528 OFFCURVE",
"766 614 CURVE",
"854 764 OFFCURVE",
"946 926 OFFCURVE",
"1051 1102 CURVE SMOOTH",
"1155 1276 OFFCURVE",
"1231 1358 OFFCURVE",
"1366 1366 CURVE",
"1370 1434 LINE"
);
}
);
width = 1313;
},
{
anchors = (
{
name = top;
position = "{773, 1434}";
}
);
layerId = "6B2A2AD0-3CEC-4B3D-96BE-6A11A3496094";
name = "Bold Italic";
paths = (
{
closed = 1;
nodes = (
"949 1434 LINE",
"941 1276 LINE",
"970 1277 OFFCURVE",
"1054 1281 OFFCURVE",
"1098 1284 CURVE",
"1098 1282 LINE",
"1061 1240 OFFCURVE",
"1004 1139 OFFCURVE",
"980 1096 CURVE SMOOTH",
"863 887 LINE SMOOTH",
"808 783 OFFCURVE",
"772 718 OFFCURVE",
"757 687 CURVE",
"757 687 OFFCURVE",
"754 687 OFFCURVE",
"754 687 CURVE",
"735 745 OFFCURVE",
"678 852 OFFCURVE",
"661 884 CURVE SMOOTH",
"518 1141 LINE SMOOTH",
"459 1254 OFFCURVE",
"528 1306 OFFCURVE",
"647 1299 CURVE",
"654 1434 LINE",
"56 1434 LINE",
"48 1276 LINE",
"77 1277 OFFCURVE",
"103 1279 OFFCURVE",
"147 1282 CURVE",
"145 1238 OFFCURVE",
"179 1150 OFFCURVE",
"215 1087 CURVE SMOOTH",
"562 492 LINE",
"552 313 LINE SMOOTH",
"544 148 OFFCURVE",
"489 140 OFFCURVE",
"397 135 CURVE",
"390 0 LINE",
"983 0 LINE",
"991 158 LINE",
"962 157 OFFCURVE",
"871 155 OFFCURVE",
"827 152 CURVE",
"834 187 OFFCURVE",
"841 262 OFFCURVE",
"845 336 CURVE SMOOTH",
"857 568 LINE",
"1151 1080 LINE",
"1238 1228 OFFCURVE",
"1298 1284 OFFCURVE",
"1394 1299 CURVE",
"1401 1434 LINE"
);
}
);
width = 1361;
}
);
unicode = 0059;
},
{
glyphname = Z;
lastChange = "2013-05-24 22:55:06 +0000";
layers = (
{
anchors = (
{
name = top;
position = "{710, 1438}";
}
);
layerId = UUID0;
name = "Regular Italic";
paths = (
{
closed = 1;
nodes = (
"170 1434 LINE",
"135 1010 LINE",
"205 1010 LINE",
"217 1243 OFFCURVE",
"303 1343 OFFCURVE",
"465 1350 CURVE SMOOTH",
"993 1358 LINE",
"938 1298 OFFCURVE",
"895 1235 OFFCURVE",
"852 1174 CURVE SMOOTH",
"485 635 OFFCURVE",
"227 309 OFFCURVE",
"64 94 CURVE",
"57 0 LINE",
"1108 0 LINE",
"1143 420 LINE",
"1073 420 LINE",
"1061 190 OFFCURVE",
"918 86 OFFCURVE",
"737 84 CURVE SMOOTH",
"231 76 LINE",
"277 115 OFFCURVE",
"315 158 OFFCURVE",
"379 246 CURVE SMOOTH",
"1182 1362 LINE",
"1186 1434 LINE"
);
}
);
width = 1253;
},
{
anchors = (
{
name = top;
position = "{676, 1434}";
}
);
layerId = "6B2A2AD0-3CEC-4B3D-96BE-6A11A3496094";
name = "Bold Italic";
paths = (
{
closed = 1;
nodes = (
"150 1434 LINE",
"115 997 LINE",
"250 997 LINE",
"262 1219 OFFCURVE",
"373 1304 OFFCURVE",
"525 1300 CURVE SMOOTH",
"876 1291 LINE",
"875 1289 LINE",
"821 1226 OFFCURVE",
"776 1165 OFFCURVE",
"722 1088 CURVE SMOOTH",
"60 154 LINE",
"52 0 LINE",
"1102 0 LINE",
"1137 438 LINE",
"1002 438 LINE",
"990 216 OFFCURVE",
"879 133 OFFCURVE",
"727 136 CURVE SMOOTH",
"353 144 LINE",
"354 146 LINE",
"418 218 OFFCURVE",
"481 302 OFFCURVE",
"542 388 CURVE SMOOTH",
"1179 1280 LINE",
"1187 1434 LINE"
);
}
);
width = 1234;
}
);
unicode = 005A;
},
{
glyphname = a;
lastChange = "2013-05-24 22:55:06 +0000";
layers = (
{
anchors = (
{
name = ogonek;
position = "{966, 10}";
},
{
name = top;
position = "{632, 1048}";
}
);
layerId = UUID0;
name = "Regular Italic";
paths = (
{
closed = 1;
nodes = (
"275 1047 OFFCURVE",
"76 717 OFFCURVE",
"76 334 CURVE SMOOTH",
"76 76 OFFCURVE",
"189 -23 OFFCURVE",
"336 -23 CURVE SMOOTH",
"449 -23 OFFCURVE",
"606 33 OFFCURVE",
"736 436 CURVE",
"742 436 LINE",
"721 334 OFFCURVE",
"705 239 OFFCURVE",
"705 162 CURVE SMOOTH",
"705 51 OFFCURVE",
"746 -23 OFFCURVE",
"856 -23 CURVE SMOOTH",
"1020 -23 OFFCURVE",
"1104 170 OFFCURVE",
"1123 266 CURVE",
"1065 278 LINE",
"1024 133 OFFCURVE",
"961 80 OFFCURVE",
"916 80 CURVE SMOOTH",
"856 80 OFFCURVE",
"858 147 OFFCURVE",
"858 203 CURVE SMOOTH",
"858 336 OFFCURVE",
"906 686 OFFCURVE",
"949 1012 CURVE",
"860 1034 OFFCURVE",
"756 1047 OFFCURVE",
"674 1047 CURVE SMOOTH"
);
},
{
closed = 1;
nodes = (
"674 973 OFFCURVE",
"729 965 OFFCURVE",
"770 948 CURVE",
"768 582 OFFCURVE",
"568 67 OFFCURVE",
"381 67 CURVE SMOOTH",
"281 67 OFFCURVE",
"248 194 OFFCURVE",
"248 368 CURVE SMOOTH",
"248 669 OFFCURVE",
"363 973 OFFCURVE",
"611 973 CURVE SMOOTH"
);
}
);
width = 1122;
},
{
anchors = (
{
name = ogonek;
position = "{947, 10}";
},
{
name = top;
position = "{663, 1024}";
}
);
layerId = "6B2A2AD0-3CEC-4B3D-96BE-6A11A3496094";
name = "Bold Italic";
paths = (
{
closed = 1;
nodes = (
"276 1047 OFFCURVE",
"52 724 OFFCURVE",
"52 351 CURVE SMOOTH",
"52 97 OFFCURVE",
"174 -23 OFFCURVE",
"323 -23 CURVE SMOOTH",
"448 -23 OFFCURVE",
"571 46 OFFCURVE",
"671 283 CURVE",
"673 283 LINE",
"668 248 OFFCURVE",
"665 199 OFFCURVE",
"665 163 CURVE SMOOTH",
"665 18 OFFCURVE",
"742 -23 OFFCURVE",
"830 -23 CURVE SMOOTH",
"1009 -23 OFFCURVE",
"1092 180 OFFCURVE",
"1115 297 CURVE",
"1004 330 LINE",
"969 207 OFFCURVE",
"931 167 OFFCURVE",
"900 167 CURVE SMOOTH",
"885 167 OFFCURVE",
"870 178 OFFCURVE",
"870 227 CURVE SMOOTH",
"870 367 OFFCURVE",
"935 798 OFFCURVE",
"964 1003 CURVE",
"852 1031 OFFCURVE",
"746 1047 OFFCURVE",
"669 1047 CURVE SMOOTH"
);
},
{
closed = 1;
nodes = (
"625 911 OFFCURVE",
"664 904 OFFCURVE",
"678 899 CURVE",
"661 592 OFFCURVE",
"559 159 OFFCURVE",
"409 159 CURVE SMOOTH",
"361 159 OFFCURVE",
"331 228 OFFCURVE",
"331 339 CURVE SMOOTH",
"331 714 OFFCURVE",
"439 911 OFFCURVE",
"593 911 CURVE SMOOTH"
);
}
);
width = 1125;
}
);
unicode = 0061;
},
{
glyphname = ae;
lastChange = "2013-05-24 22:55:06 +0000";
layers = (
{
layerId = UUID0;
name = "Regular Italic";
paths = (
{
closed = 1;
nodes = (
"982 1047 OFFCURVE",
"864 982 OFFCURVE",
"784 861 CURVE",
"780 861 LINE",
"737 974 OFFCURVE",
"657 1047 OFFCURVE",
"522 1047 CURVE SMOOTH",
"286 1047 OFFCURVE",
"130 908 OFFCURVE",
"125 789 CURVE SMOOTH",
"123 738 OFFCURVE",
"157 702 OFFCURVE",
"205 701 CURVE SMOOTH",
"254 700 OFFCURVE",
"288 740 OFFCURVE",
"288 781 CURVE SMOOTH",
"288 800 OFFCURVE",
"286 823 OFFCURVE",
"270 844 CURVE",
"292 921 OFFCURVE",
"376 977 OFFCURVE",
"481 977 CURVE SMOOTH",
"659 977 OFFCURVE",
"675 817 OFFCURVE",
"663 647 CURVE SMOOTH",
"657 565 OFFCURVE",
"657 543 OFFCURVE",
"657 541 CURVE",
"378 552 OFFCURVE",
"53 438 OFFCURVE",
"53 199 CURVE SMOOTH",
"53 66 OFFCURVE",
"139 -23 OFFCURVE",
"315 -23 CURVE SMOOTH",
"444 -23 OFFCURVE",
"579 37 OFFCURVE",
"696 166 CURVE",
"770 31 OFFCURVE",
"866 -23 OFFCURVE",
"1028 -23 CURVE SMOOTH",
"1167 -23 OFFCURVE",
"1330 48 OFFCURVE",
"1454 289 CURVE",
"1388 327 LINE",
"1309 188 OFFCURVE",
"1194 80 OFFCURVE",
"1067 80 CURVE SMOOTH",
"878 80 OFFCURVE",
"811 239 OFFCURVE",
"810 472 CURVE",
"1296 524 OFFCURVE",
"1407 705 OFFCURVE",
"1407 826 CURVE SMOOTH",
"1407 876 OFFCURVE",
"1384 1047 OFFCURVE",
"1134 1047 CURVE SMOOTH"
);
},
{
closed = 1;
nodes = (
"647 398 OFFCURVE",
"653 309 OFFCURVE",
"669 233 CURVE",
"583 143 OFFCURVE",
"466 82 OFFCURVE",
"358 92 CURVE SMOOTH",
"296 98 OFFCURVE",
"219 131 OFFCURVE",
"223 232 CURVE SMOOTH",
"230 432 OFFCURVE",
"464 470 OFFCURVE",
"651 476 CURVE"
);
},
{
closed = 1;
nodes = (
"1157 980 OFFCURVE",
"1243 954 OFFCURVE",
"1243 830 CURVE SMOOTH",
"1243 654 OFFCURVE",
"1028 566 OFFCURVE",
"811 545 CURVE",
"835 793 OFFCURVE",
"938 975 OFFCURVE",
"1098 979 CURVE SMOOTH"
);
}
);
width = 1530;
},
{
layerId = "6B2A2AD0-3CEC-4B3D-96BE-6A11A3496094";
name = "Bold Italic";
paths = (
{
closed = 1;
nodes = (
"981 1047 OFFCURVE",
"870 991 OFFCURVE",
"794 896 CURVE",
"759 1013 OFFCURVE",
"662 1047 OFFCURVE",
"532 1047 CURVE SMOOTH",
"292 1047 OFFCURVE",
"118 928 OFFCURVE",
"110 777 CURVE SMOOTH",
"106 702 OFFCURVE",
"149 639 OFFCURVE",
"230 637 CURVE SMOOTH",
"325 635 OFFCURVE",
"371 708 OFFCURVE",
"374 765 CURVE SMOOTH",
"375 785 OFFCURVE",
"373 824 OFFCURVE",
"354 847 CURVE",
"389 883 OFFCURVE",
"438 899 OFFCURVE",
"492 901 CURVE SMOOTH",
"595 905 OFFCURVE",
"630 823 OFFCURVE",
"625 717 CURVE SMOOTH",
"619 583 LINE",
"344 572 OFFCURVE",
"53 509 OFFCURVE",
"39 250 CURVE SMOOTH",
"31 94 OFFCURVE",
"129 -23 OFFCURVE",
"325 -23 CURVE SMOOTH",
"445 -21 OFFCURVE",
"581 8 OFFCURVE",
"703 125 CURVE",
"774 31 OFFCURVE",
"852 -24 OFFCURVE",
"994 -23 CURVE SMOOTH",
"1154 -22 OFFCURVE",
"1318 39 OFFCURVE",
"1436 308 CURVE",
"1320 365 LINE",
"1246 194 OFFCURVE",
"1117 165 OFFCURVE",
"1049 165 CURVE SMOOTH",
"961 165 OFFCURVE",
"861 233 OFFCURVE",
"861 466 CURVE",
"1102 501 OFFCURVE",
"1414 566 OFFCURVE",
"1414 789 CURVE SMOOTH",
"1414 968 OFFCURVE",
"1283 1047 OFFCURVE",
"1102 1047 CURVE SMOOTH"
);
},
{
closed = 1;
nodes = (
"608 385 OFFCURVE",
"614 324 OFFCURVE",
"627 240 CURVE",
"582 194 OFFCURVE",
"489 170 OFFCURVE",
"426 170 CURVE SMOOTH",
"368 170 OFFCURVE",
"306 208 OFFCURVE",
"308 284 CURVE SMOOTH",
"311 401 OFFCURVE",
"457 443 OFFCURVE",
"610 458 CURVE"
);
},
{
closed = 1;
nodes = (
"1120 912 OFFCURVE",
"1173 884 OFFCURVE",
"1175 818 CURVE SMOOTH",
"1178 716 OFFCURVE",
"1089 638 OFFCURVE",
"868 598 CURVE",
"884 751 OFFCURVE",
"940 912 OFFCURVE",
"1079 912 CURVE SMOOTH"
);
}
);
width = 1497;
}
);
unicode = 00E6;
},
{
glyphname = b;
lastChange = "2013-05-24 22:55:06 +0000";
layers = (
{
layerId = UUID0;
name = "Regular Italic";
paths = (
{
closed = 1;
nodes = (
"340 1546 LINE",
"308 1518 OFFCURVE",
"260 1491 OFFCURVE",
"80 1491 CURVE",
"72 1409 LINE",
"219 1417 LINE",
"213 1380 OFFCURVE",
"213 1378 OFFCURVE",
"207 1309 CURVE SMOOTH",
"166 834 OFFCURVE",
"154 553 OFFCURVE",
"117 20 CURVE",
"201 -12 OFFCURVE",
"318 -23 OFFCURVE",
"385 -23 CURVE SMOOTH",
"791 -23 OFFCURVE",
"953 293 OFFCURVE",
"953 670 CURVE SMOOTH",
"953 868 OFFCURVE",
"885 1047 OFFCURVE",
"697 1047 CURVE SMOOTH",
"574 1047 OFFCURVE",
"410 1006 OFFCURVE",
"301 610 CURVE",
"295 610 LINE",
"316 827 OFFCURVE",
"336 1020 OFFCURVE",
"355 1200 CURVE SMOOTH",
"365 1292 OFFCURVE",
"381 1432 OFFCURVE",
"400 1546 CURVE"
);
},
{
closed = 1;
nodes = (
"734 955 OFFCURVE",
"772 840 OFFCURVE",
"777 653 CURVE SMOOTH",
"781 404 OFFCURVE",
"719 53 OFFCURVE",
"420 49 CURVE SMOOTH",
"367 49 OFFCURVE",
"301 63 OFFCURVE",
"269 96 CURVE",
"277 438 OFFCURVE",
"443 942 OFFCURVE",
"637 951 CURVE SMOOTH"
);
}
);
width = 1047;
},
{
layerId = "6B2A2AD0-3CEC-4B3D-96BE-6A11A3496094";
name = "Bold Italic";
paths = (
{
closed = 1;
nodes = (
"350 1546 LINE",
"320 1520 OFFCURVE",
"228 1485 OFFCURVE",
"38 1485 CURVE",
"30 1330 LINE",
"59 1331 OFFCURVE",
"128 1333 OFFCURVE",
"172 1336 CURVE",
"163 1275 OFFCURVE",
"158 1194 OFFCURVE",
"155 1147 CURVE SMOOTH",
"130 717 OFFCURVE",
"113 467 OFFCURVE",
"96 32 CURVE",
"203 -8 OFFCURVE",
"359 -23 OFFCURVE",
"424 -23 CURVE SMOOTH",
"826 -23 OFFCURVE",
"978 287 OFFCURVE",
"978 655 CURVE SMOOTH",
"978 860 OFFCURVE",
"893 1047 OFFCURVE",
"687 1047 CURVE SMOOTH",
"600 1047 OFFCURVE",
"476 984 OFFCURVE",
"382 804 CURVE",
"380 804 LINE",
"399 915 OFFCURVE",
"412 1083 OFFCURVE",
"417 1128 CURVE SMOOTH",
"426 1211 OFFCURVE",
"444 1428 OFFCURVE",
"461 1546 CURVE"
);
},
{
closed = 1;
nodes = (
"652 858 OFFCURVE",
"698 814 OFFCURVE",
"698 666 CURVE SMOOTH",
"698 474 OFFCURVE",
"675 113 OFFCURVE",
"453 113 CURVE SMOOTH",
"426 113 OFFCURVE",
"374 120 OFFCURVE",
"352 131 CURVE",
"361 520 OFFCURVE",
"472 858 OFFCURVE",
"605 858 CURVE SMOOTH"
);
}
);
width = 1050;
}
);
unicode = 0062;
},
{
glyphname = c;
lastChange = "2013-05-24 22:55:06 +0000";
layers = (
{
anchors = (
{
name = bottom;
position = "{518, 0}";
},
{
name = top;
position = "{577, 1044}";
}
);
layerId = UUID0;
name = "Regular Italic";
paths = (
{
closed = 1;
nodes = (
"230 1047 OFFCURVE",
"80 694 OFFCURVE",
"80 426 CURVE SMOOTH",
"80 119 OFFCURVE",
"234 -23 OFFCURVE",
"475 -23 CURVE SMOOTH",
"635 -23 OFFCURVE",
"791 64 OFFCURVE",
"895 301 CURVE",
"823 335 LINE",
"744 140 OFFCURVE",
"617 78 OFFCURVE",
"510 78 CURVE SMOOTH",
"365 78 OFFCURVE",
"260 186 OFFCURVE",
"260 473 CURVE SMOOTH",
"260 690 OFFCURVE",
"330 975 OFFCURVE",
"567 975 CURVE SMOOTH",
"647 975 OFFCURVE",
"715 942 OFFCURVE",
"729 866 CURVE",
"707 842 OFFCURVE",
"703 813 OFFCURVE",
"703 789 CURVE SMOOTH",
"703 757 OFFCURVE",
"726 704 OFFCURVE",
"790 706 CURVE SMOOTH",
"844 707 OFFCURVE",
"877 748 OFFCURVE",
"877 807 CURVE SMOOTH",
"877 942 OFFCURVE",
"746 1047 OFFCURVE",
"570 1047 CURVE SMOOTH"
);
}
);
width = 969;
},
{
anchors = (
{
name = bottom;
position = "{510, 0}";
},
{
name = top;
position = "{582, 1024}";
}
);
layerId = "6B2A2AD0-3CEC-4B3D-96BE-6A11A3496094";
name = "Bold Italic";
paths = (
{
closed = 1;
nodes = (
"218 1047 OFFCURVE",
"55 688 OFFCURVE",
"55 424 CURVE SMOOTH",
"55 120 OFFCURVE",
"218 -21 OFFCURVE",
"457 -23 CURVE",
"627 -21 OFFCURVE",
"786 53 OFFCURVE",
"904 322 CURVE",
"787 379 LINE",
"702 186 OFFCURVE",
"581 159 OFFCURVE",
"505 166 CURVE SMOOTH",
"419 174 OFFCURVE",
"328 254 OFFCURVE",
"335 477 CURVE SMOOTH",
"340 640 OFFCURVE",
"380 912 OFFCURVE",
"556 912 CURVE SMOOTH",
"604 912 OFFCURVE",
"642 891 OFFCURVE",
"653 866 CURVE",
"638 839 OFFCURVE",
"633 805 OFFCURVE",
"633 781 CURVE SMOOTH",
"633 733 OFFCURVE",
"666 657 OFFCURVE",
"760 660 CURVE SMOOTH",
"840 662 OFFCURVE",
"890 718 OFFCURVE",
"890 800 CURVE SMOOTH",
"890 950 OFFCURVE",
"747 1047 OFFCURVE",
"559 1047 CURVE SMOOTH"
);
}
);
width = 956;
}
);
unicode = 0063;
},
{
glyphname = ccedilla;
lastChange = "2013-05-24 22:55:06 +0000";
layers = (
{
layerId = UUID0;
name = "Regular Italic";
paths = (
{
closed = 1;
nodes = (
"230 1047 OFFCURVE",
"80 694 OFFCURVE",
"80 426 CURVE SMOOTH",
"80 160 OFFCURVE",
"196 17 OFFCURVE",
"383 -15 CURVE",
"322 -205 LINE",
"391 -240 LINE",
"451 -199 OFFCURVE",
"555 -188 OFFCURVE",
"555 -272 CURVE SMOOTH",
"555 -352 OFFCURVE",
"432 -403 OFFCURVE",
"293 -428 CURVE",
"301 -492 LINE",
"443 -471 OFFCURVE",
"693 -418 OFFCURVE",
"707 -252 CURVE SMOOTH",
"713 -178 OFFCURVE",
"662 -119 OFFCURVE",
"572 -119 CURVE SMOOTH",
"525 -119 OFFCURVE",
"473 -133 OFFCURVE",
"434 -158 CURVE",
"482 -23 LINE",
"639 -20 OFFCURVE",
"792 67 OFFCURVE",
"895 301 CURVE",
"823 335 LINE",
"744 140 OFFCURVE",
"617 78 OFFCURVE",
"510 78 CURVE SMOOTH",
"365 78 OFFCURVE",
"260 186 OFFCURVE",
"260 473 CURVE SMOOTH",
"260 690 OFFCURVE",
"330 975 OFFCURVE",
"567 975 CURVE SMOOTH",
"647 975 OFFCURVE",
"715 942 OFFCURVE",
"729 866 CURVE",
"707 842 OFFCURVE",
"703 813 OFFCURVE",
"703 789 CURVE SMOOTH",
"703 757 OFFCURVE",
"726 704 OFFCURVE",
"790 706 CURVE SMOOTH",
"844 707 OFFCURVE",
"877 748 OFFCURVE",
"877 807 CURVE SMOOTH",
"877 942 OFFCURVE",
"746 1047 OFFCURVE",
"570 1047 CURVE SMOOTH"
);
}
);
width = 971;
},
{
layerId = "6B2A2AD0-3CEC-4B3D-96BE-6A11A3496094";
name = "Bold Italic";
paths = (
{
closed = 1;
nodes = (
"219 1047 OFFCURVE",
"56 688 OFFCURVE",
"56 424 CURVE SMOOTH",
"56 171 OFFCURVE",
"169 31 OFFCURVE",
"345 -10 CURVE",
"277 -240 LINE",
"352 -272 LINE",
"393 -239 OFFCURVE",
"497 -224 OFFCURVE",
"493 -294 CURVE SMOOTH",
"489 -378 OFFCURVE",
"302 -412 OFFCURVE",
"237 -424 CURVE",
"247 -530 LINE",
"406 -508 OFFCURVE",
"717 -443 OFFCURVE",
"727 -252 CURVE SMOOTH",
"732 -154 OFFCURVE",
"670 -111 OFFCURVE",
"585 -109 CURVE SMOOTH",
"548 -108 OFFCURVE",
"478 -123 OFFCURVE",
"443 -141 CURVE",
"441 -141 LINE",
"492 -21 LINE",
"649 -10 OFFCURVE",
"795 71 OFFCURVE",
"905 322 CURVE",
"788 379 LINE",
"703 186 OFFCURVE",
"582 159 OFFCURVE",
"506 166 CURVE SMOOTH",
"420 174 OFFCURVE",
"329 254 OFFCURVE",
"336 477 CURVE SMOOTH",
"341 640 OFFCURVE",
"381 912 OFFCURVE",
"557 912 CURVE SMOOTH",
"605 912 OFFCURVE",
"643 891 OFFCURVE",
"654 866 CURVE",
"639 839 OFFCURVE",
"634 805 OFFCURVE",
"634 781 CURVE SMOOTH",
"634 733 OFFCURVE",
"667 657 OFFCURVE",
"761 660 CURVE SMOOTH",
"841 662 OFFCURVE",
"891 718 OFFCURVE",
"891 800 CURVE SMOOTH",
"891 950 OFFCURVE",
"748 1047 OFFCURVE",
"560 1047 CURVE SMOOTH"
);
}
);
width = 958;
}
);
unicode = 00E7;
},
{
glyphname = d;
lastChange = "2013-05-24 22:55:06 +0000";
layers = (
{
anchors = (
{
name = center;
position = "{596, 524}";
},
{
name = topright;
position = "{1144, 1048}";
}
);
layerId = UUID0;
name = "Regular Italic";
paths = (
{
closed = 1;
nodes = (
"961 1546 LINE",
"928 1518 OFFCURVE",
"881 1491 OFFCURVE",
"701 1491 CURVE",
"692 1409 LINE",
"842 1417 LINE",
"832 1378 OFFCURVE",
"826 1341 OFFCURVE",
"819 1292 CURVE SMOOTH",
"807 1197 OFFCURVE",
"797 1113 OFFCURVE",
"789 1038 CURVE",
"752 1044 OFFCURVE",
"714 1047 OFFCURVE",
"674 1047 CURVE SMOOTH",
"279 1047 OFFCURVE",
"78 765 OFFCURVE",
"78 366 CURVE SMOOTH",
"78 151 OFFCURVE",
"166 -23 OFFCURVE",
"355 -23 CURVE SMOOTH",
"475 -23 OFFCURVE",
"625 51 OFFCURVE",
"738 426 CURVE",
"744 426 LINE",
"723 324 OFFCURVE",
"713 240 OFFCURVE",
"713 162 CURVE SMOOTH",
"713 51 OFFCURVE",
"760 -23 OFFCURVE",
"871 -23 CURVE SMOOTH",
"1034 -23 OFFCURVE",
"1118 170 OFFCURVE",
"1137 266 CURVE",
"1077 279 LINE",
"1037 133 OFFCURVE",
"975 80 OFFCURVE",
"930 80 CURVE SMOOTH",
"877 80 OFFCURVE",
"875 135 OFFCURVE",
"875 188 CURVE SMOOTH",
"875 336 OFFCURVE",
"905 612 OFFCURVE",
"934 874 CURVE",
"971 1194 LINE SMOOTH",
"981 1286 OFFCURVE",
"1004 1444 OFFCURVE",
"1020 1546 CURVE"
);
},
{
closed = 1;
nodes = (
"686 973 OFFCURVE",
"734 968 OFFCURVE",
"779 953 CURVE",
"762 801 OFFCURVE",
"748 687 OFFCURVE",
"727 592 CURVE SMOOTH",
"668 323 OFFCURVE",
"527 73 OFFCURVE",
"398 73 CURVE SMOOTH",
"291 73 OFFCURVE",
"254 216 OFFCURVE",
"254 402 CURVE SMOOTH",
"254 652 OFFCURVE",
"350 973 OFFCURVE",
"639 973 CURVE SMOOTH"
);
}
);
width = 1137;
},
{
anchors = (
{
name = center;
position = "{578, 512}";
},
{
name = topright;
position = "{1135, 1024}";
}
);
layerId = "6B2A2AD0-3CEC-4B3D-96BE-6A11A3496094";
name = "Bold Italic";
paths = (
{
closed = 1;
nodes = (
"933 1546 LINE",
"903 1520 OFFCURVE",
"811 1485 OFFCURVE",
"621 1485 CURVE",
"613 1330 LINE",
"642 1331 OFFCURVE",
"711 1333 OFFCURVE",
"755 1336 CURVE",
"746 1275 OFFCURVE",
"738 1191 OFFCURVE",
"733 1144 CURVE SMOOTH",
"722 1043 LINE",
"702 1045 OFFCURVE",
"644 1047 OFFCURVE",
"624 1047 CURVE SMOOTH",
"234 1047 OFFCURVE",
"57 757 OFFCURVE",
"57 368 CURVE SMOOTH",
"57 147 OFFCURVE",
"154 -23 OFFCURVE",
"360 -23 CURVE SMOOTH",
"468 -23 OFFCURVE",
"608 45 OFFCURVE",
"706 286 CURVE",
"708 286 LINE",
"702 240 OFFCURVE",
"700 217 OFFCURVE",
"700 163 CURVE SMOOTH",
"700 18 OFFCURVE",
"776 -23 OFFCURVE",
"864 -23 CURVE SMOOTH",
"1043 -23 OFFCURVE",
"1119 180 OFFCURVE",
"1142 297 CURVE",
"1031 330 LINE",
"996 207 OFFCURVE",
"963 167 OFFCURVE",
"932 167 CURVE SMOOTH",
"917 167 OFFCURVE",
"902 178 OFFCURVE",
"902 227 CURVE SMOOTH",
"902 351 OFFCURVE",
"937 611 OFFCURVE",
"969 891 CURVE SMOOTH",
"1044 1546 LINE"
);
},
{
closed = 1;
nodes = (
"625 911 OFFCURVE",
"689 904 OFFCURVE",
"707 895 CURVE",
"673 492 OFFCURVE",
"582 163 OFFCURVE",
"436 163 CURVE SMOOTH",
"377 163 OFFCURVE",
"336 231 OFFCURVE",
"336 371 CURVE SMOOTH",
"336 533 OFFCURVE",
"366 911 OFFCURVE",
"599 911 CURVE SMOOTH"
);
}
);
width = 1155;
}
);
unicode = 0064;
},
{
color = 4;
glyphname = eth;
lastChange = "2013-05-30 16:45:32 +0000";
layers = (
{
layerId = UUID0;
name = "Regular Italic";
paths = (
{
closed = 1;
nodes = (
"559 1508 LINE",
"471 1546 OFFCURVE",
"367 1563 OFFCURVE",
"244 1553 CURVE",
"244 1484 LINE",
"346 1487 OFFCURVE",
"429 1469 OFFCURVE",
"495 1437 CURVE",
"367 1294 LINE",
"436 1229 LINE",
"570 1390 LINE",
"700 1285 OFFCURVE",
"747 1107 OFFCURVE",
"762 929 CURVE",
"702 1001 OFFCURVE",
"627 1027 OFFCURVE",
"541 1030 CURVE SMOOTH",
"299 1038 OFFCURVE",
"82 803 OFFCURVE",
"82 428 CURVE SMOOTH",
"82 131 OFFCURVE",
"246 -23 OFFCURVE",
"430 -23 CURVE SMOOTH",
"696 -23 OFFCURVE",
"936 160 OFFCURVE",
"936 713 CURVE SMOOTH",
"936 1040 OFFCURVE",
"848 1328 OFFCURVE",
"635 1467 CURVE",
"737 1589 LINE",
"678 1642 LINE"
);
},
{
closed = 1;
nodes = (
"637 948 OFFCURVE",
"717 906 OFFCURVE",
"769 804 CURVE",
"769 776 OFFCURVE",
"770 748 OFFCURVE",
"770 721 CURVE SMOOTH",
"770 469 OFFCURVE",
"703 55 OFFCURVE",
"467 55 CURVE SMOOTH",
"348 55 OFFCURVE",
"258 196 OFFCURVE",
"258 450 CURVE SMOOTH",
"258 776 OFFCURVE",
"418 948 OFFCURVE",
"541 948 CURVE SMOOTH"
);
}
);
width = 1057;
},
{
layerId = "6B2A2AD0-3CEC-4B3D-96BE-6A11A3496094";
name = "Bold Italic";
paths = (
{
closed = 1;
nodes = (
"482 1481 LINE",
"420 1512 OFFCURVE",
"330 1545 OFFCURVE",
"211 1556 CURVE",
"177 1411 LINE",
"249 1397 OFFCURVE",
"309 1373 OFFCURVE",
"357 1344 CURVE",
"251 1227 LINE",
"369 1118 LINE",
"495 1263 LINE",
"588 1211 OFFCURVE",
"705 1045 OFFCURVE",
"719 932 CURVE",
"717 932 LINE",
"676 976 OFFCURVE",
"623 1025 OFFCURVE",
"519 1025 CURVE SMOOTH",
"190 1025 OFFCURVE",
"59 688 OFFCURVE",
"59 453 CURVE SMOOTH",
"59 104 OFFCURVE",
"253 -23 OFFCURVE",
"470 -23 CURVE SMOOTH",
"816 -23 OFFCURVE",
"972 290 OFFCURVE",
"972 638 CURVE SMOOTH",
"972 985 OFFCURVE",
"822 1250 OFFCURVE",
"595 1409 CURVE",
"707 1512 LINE",
"594 1618 LINE"
);
},
{
closed = 1;
nodes = (
"678 891 OFFCURVE",
"704 724 OFFCURVE",
"704 532 CURVE SMOOTH",
"704 363 OFFCURVE",
"656 112 OFFCURVE",
"498 112 CURVE SMOOTH",
"370 112 OFFCURVE",
"334 262 OFFCURVE",
"334 465 CURVE SMOOTH",
"334 665 OFFCURVE",
"392 891 OFFCURVE",
"550 891 CURVE SMOOTH"
);
}
);
width = 1069;
}
);
unicode = 00F0;
},
{
glyphname = dcroat;
lastChange = "2013-05-30 16:43:27 +0000";
layers = (
{
components = (
{
name = d;
transform = "{1, 0, 0, 1, 0, 0}";
}
);
layerId = UUID0;
name = "Regular Italic";
paths = (
{
closed = 1;
nodes = (
"436 1272 LINE",
"430 1183 LINE",
"1133 1191 LINE",
"1139 1272 LINE"
);
}
);
width = 1137;
},
{
background = {
paths = (
{
closed = 1;
nodes = (
"436 1282 LINE",
"430 1193 LINE",
"1133 1201 LINE",
"1139 1282 LINE"
);
}
);
};
components = (
{
name = d;
transform = "{1, 0, 0, 1, 0, 0}";
}
);
layerId = "6B2A2AD0-3CEC-4B3D-96BE-6A11A3496094";
name = "Bold Italic";
paths = (
{
closed = 1;
nodes = (
"403 1266 LINE",
"394 1119 LINE",
"1146 1126 LINE",
"1155 1266 LINE"
);
}
);
width = 1155;
}
);
unicode = 0111;
},
{
glyphname = e;
lastChange = "2013-05-24 22:55:06 +0000";
layers = (
{
anchors = (
{
name = bottom;
position = "{517, 0}";
},
{
name = ogonek;
position = "{628, 10}";
},
{
name = top;
position = "{568, 1048}";
}
);
layerId = UUID0;
name = "Regular Italic";
paths = (
{
closed = 1;
nodes = (
"242 1047 OFFCURVE",
"80 737 OFFCURVE",
"80 420 CURVE SMOOTH",
"80 154 OFFCURVE",
"199 -23 OFFCURVE",
"459 -23 CURVE SMOOTH",
"645 -23 OFFCURVE",
"783 74 OFFCURVE",
"897 289 CURVE",
"830 327 LINE",
"740 155 OFFCURVE",
"613 80 OFFCURVE",
"494 80 CURVE SMOOTH",
"333 80 OFFCURVE",
"261 211 OFFCURVE",
"260 465 CURVE",
"515 493 OFFCURVE",
"864 585 OFFCURVE",
"864 811 CURVE SMOOTH",
"864 986 OFFCURVE",
"723 1047 OFFCURVE",
"578 1047 CURVE SMOOTH"
);
},
{
closed = 1;
nodes = (
"647 977 OFFCURVE",
"695 908 OFFCURVE",
"695 821 CURVE SMOOTH",
"695 663 OFFCURVE",
"477 568 OFFCURVE",
"262 539 CURVE",
"277 759 OFFCURVE",
"361 977 OFFCURVE",
"549 977 CURVE SMOOTH"
);
}
);
width = 977;
},
{
anchors = (
{
name = bottom;
position = "{532, 0}";
},
{
name = ogonek;
position = "{640, 10}";
},
{
name = top;
position = "{538, 1024}";
}
);
layerId = "6B2A2AD0-3CEC-4B3D-96BE-6A11A3496094";
name = "Bold Italic";
paths = (
{
closed = 1;
nodes = (
"212 1047 OFFCURVE",
"56 688 OFFCURVE",
"56 424 CURVE SMOOTH",
"56 120 OFFCURVE",
"214 -25 OFFCURVE",
"465 -23 CURVE SMOOTH",
"625 -22 OFFCURVE",
"784 38 OFFCURVE",
"902 307 CURVE",
"786 363 LINE",
"712 192 OFFCURVE",
"588 165 OFFCURVE",
"520 165 CURVE SMOOTH",
"432 165 OFFCURVE",
"336 222 OFFCURVE",
"336 455 CURVE",
"577 490 OFFCURVE",
"880 566 OFFCURVE",
"880 789 CURVE SMOOTH",
"880 968 OFFCURVE",
"754 1047 OFFCURVE",
"573 1047 CURVE SMOOTH"
);
},
{
closed = 1;
nodes = (
"591 912 OFFCURVE",
"639 884 OFFCURVE",
"641 818 CURVE SMOOTH",
"644 716 OFFCURVE",
"564 627 OFFCURVE",
"343 587 CURVE",
"359 740 OFFCURVE",
"411 912 OFFCURVE",
"550 912 CURVE SMOOTH"
);
}
);
width = 963;
}
);
unicode = 0065;
},
{
glyphname = f;
lastChange = "2013-05-24 22:55:06 +0000";
layers = (
{
layerId = UUID0;
name = "Regular Italic";
paths = (
{
closed = 1;
nodes = (
"375 1551 OFFCURVE",
"282 1320 OFFCURVE",
"240 1024 CURVE",
"60 1024 LINE",
"50 936 LINE",
"229 938 LINE",
"214 798 OFFCURVE",
"205 647 OFFCURVE",
"193 502 CURVE",
"144 -41 OFFCURVE",
"160 -475 OFFCURVE",
"-32 -475 CURVE SMOOTH",
"-57 -475 OFFCURVE",
"-78 -470 OFFCURVE",
"-93 -459 CURVE",
"-93 -404 OFFCURVE",
"-123 -366 OFFCURVE",
"-173 -365 CURVE SMOOTH",
"-234 -363 OFFCURVE",
"-256 -418 OFFCURVE",
"-256 -449 CURVE SMOOTH",
"-256 -518 OFFCURVE",
"-201 -555 OFFCURVE",
"-96 -555 CURVE SMOOTH",
"316 -555 OFFCURVE",
"316 -12 OFFCURVE",
"361 483 CURVE SMOOTH",
"375 641 OFFCURVE",
"381 799 OFFCURVE",
"390 940 CURVE",
"680 944 LINE",
"686 1024 LINE",
"396 1024 LINE",
"415 1280 OFFCURVE",
"452 1467 OFFCURVE",
"582 1478 CURVE SMOOTH",
"605 1480 OFFCURVE",
"633 1476 OFFCURVE",
"642 1470 CURVE",
"639 1411 OFFCURVE",
"671 1369 OFFCURVE",
"723 1368 CURVE SMOOTH",
"784 1366 OFFCURVE",
"805 1419 OFFCURVE",
"805 1450 CURVE SMOOTH",
"805 1519 OFFCURVE",
"747 1558 OFFCURVE",
"647 1556 CURVE SMOOTH"
);
}
);
width = 666;
},
{
layerId = "6B2A2AD0-3CEC-4B3D-96BE-6A11A3496094";
name = "Bold Italic";
paths = (
{
closed = 1;
nodes = (
"394 1556 OFFCURVE",
"267 1340 OFFCURVE",
"232 1024 CURVE",
"67 1024 LINE",
"49 875 LINE",
"87 875 OFFCURVE",
"157 876 OFFCURVE",
"212 877 CURVE",
"195 649 OFFCURVE",
"165 210 OFFCURVE",
"145 -23 CURVE SMOOTH",
"132 -182 OFFCURVE",
"111 -410 OFFCURVE",
"18 -410 CURVE SMOOTH",
"7 -410 OFFCURVE",
"-3 -408 OFFCURVE",
"-8 -405 CURVE",
"3 -334 OFFCURVE",
"-47 -281 OFFCURVE",
"-108 -279 CURVE SMOOTH",
"-201 -276 OFFCURVE",
"-236 -360 OFFCURVE",
"-236 -407 CURVE SMOOTH",
"-236 -497 OFFCURVE",
"-165 -555 OFFCURVE",
"-41 -555 CURVE SMOOTH",
"238 -555 OFFCURVE",
"366 -339 OFFCURVE",
"403 -23 CURVE SMOOTH",
"430 208 OFFCURVE",
"462 645 OFFCURVE",
"477 879 CURVE",
"736 883 LINE",
"749 1024 LINE",
"486 1024 LINE",
"499 1183 OFFCURVE",
"520 1411 OFFCURVE",
"613 1411 CURVE SMOOTH",
"624 1411 OFFCURVE",
"634 1409 OFFCURVE",
"639 1406 CURVE",
"628 1335 OFFCURVE",
"678 1282 OFFCURVE",
"739 1280 CURVE SMOOTH",
"832 1277 OFFCURVE",
"867 1357 OFFCURVE",
"867 1404 CURVE SMOOTH",
"867 1494 OFFCURVE",
"797 1556 OFFCURVE",
"673 1556 CURVE SMOOTH"
);
}
);
width = 722;
}
);
unicode = 0066;
},
{
glyphname = g;
lastChange = "2013-05-24 22:55:06 +0000";
layers = (
{
anchors = (
{
name = top;
position = "{603, 1048}";
}
);
layerId = UUID0;
name = "Regular Italic";
paths = (
{
closed = 1;
nodes = (
"265 1047 OFFCURVE",
"78 727 OFFCURVE",
"78 375 CURVE SMOOTH",
"78 147 OFFCURVE",
"164 -23 OFFCURVE",
"355 -23 CURVE SMOOTH",
"477 -23 OFFCURVE",
"619 41 OFFCURVE",
"733 436 CURVE",
"740 436 LINE",
"688 96 OFFCURVE",
"736 -483 OFFCURVE",
"346 -483 CURVE SMOOTH",
"297 -483 OFFCURVE",
"231 -467 OFFCURVE",
"205 -425 CURVE",
"213 -407 OFFCURVE",
"218 -389 OFFCURVE",
"218 -372 CURVE SMOOTH",
"218 -310 OFFCURVE",
"174 -278 OFFCURVE",
"125 -278 CURVE SMOOTH",
"70 -278 OFFCURVE",
"29 -325 OFFCURVE",
"29 -382 CURVE SMOOTH",
"33 -517 OFFCURVE",
"233 -555 OFFCURVE",
"332 -555 CURVE SMOOTH",
"633 -555 OFFCURVE",
"824 -367 OFFCURVE",
"856 29 CURVE SMOOTH",
"881 332 OFFCURVE",
"916 682 OFFCURVE",
"936 1012 CURVE",
"871 1034 OFFCURVE",
"767 1047 OFFCURVE",
"675 1047 CURVE SMOOTH"
);
},
{
closed = 1;
nodes = (
"693 973 OFFCURVE",
"742 965 OFFCURVE",
"778 946 CURVE",
"760 596 OFFCURVE",
"590 74 OFFCURVE",
"398 74 CURVE SMOOTH",
"287 74 OFFCURVE",
"250 221 OFFCURVE",
"250 410 CURVE SMOOTH",
"250 639 OFFCURVE",
"343 973 OFFCURVE",
"644 973 CURVE SMOOTH"
);
}
);
width = 1061;
},
{
anchors = (
{
name = top;
position = "{616, 1024}";
}
);
layerId = "6B2A2AD0-3CEC-4B3D-96BE-6A11A3496094";
name = "Bold Italic";
paths = (
{
closed = 1;
nodes = (
"232 1047 OFFCURVE",
"55 730 OFFCURVE",
"55 351 CURVE SMOOTH",
"55 97 OFFCURVE",
"189 -23 OFFCURVE",
"338 -23 CURVE SMOOTH",
"463 -23 OFFCURVE",
"584 44 OFFCURVE",
"687 283 CURVE",
"689 283 LINE",
"655 173 OFFCURVE",
"637 75 OFFCURVE",
"619 -68 CURVE SMOOTH",
"594 -270 OFFCURVE",
"554 -420 OFFCURVE",
"391 -420 CURVE SMOOTH",
"360 -420 OFFCURVE",
"306 -406 OFFCURVE",
"292 -385 CURVE",
"301 -366 OFFCURVE",
"306 -342 OFFCURVE",
"306 -323 CURVE SMOOTH",
"306 -245 OFFCURVE",
"250 -195 OFFCURVE",
"177 -195 CURVE SMOOTH",
"80 -195 OFFCURVE",
"39 -285 OFFCURVE",
"39 -345 CURVE SMOOTH",
"39 -481 OFFCURVE",
"171 -555 OFFCURVE",
"373 -555 CURVE SMOOTH",
"724 -555 OFFCURVE",
"862 -306 OFFCURVE",
"898 82 CURVE SMOOTH",
"920 319 OFFCURVE",
"953 808 OFFCURVE",
"962 1003 CURVE",
"852 1031 OFFCURVE",
"726 1047 OFFCURVE",
"649 1047 CURVE SMOOTH"
);
},
{
closed = 1;
nodes = (
"635 911 OFFCURVE",
"678 905 OFFCURVE",
"694 899 CURVE",
"677 592 OFFCURVE",
"570 159 OFFCURVE",
"421 159 CURVE SMOOTH",
"373 159 OFFCURVE",
"334 228 OFFCURVE",
"334 339 CURVE SMOOTH",
"334 705 OFFCURVE",
"412 909 OFFCURVE",
"601 911 CURVE SMOOTH"
);
}
);
width = 1064;
}
);
unicode = 0067;
},
{
glyphname = h;
lastChange = "2013-05-26 14:46:19 +0000";
layers = (
{
anchors = (
{
name = center;
position = "{613, 524}";
},
{
name = top;
position = "{334, 1428}";
}
);
layerId = UUID0;
name = "Regular Italic";
paths = (
{
closed = 1;
nodes = (
"369 1546 LINE",
"336 1518 OFFCURVE",
"289 1491 OFFCURVE",
"109 1491 CURVE",
"100 1409 LINE",
"244 1417 LINE",
"238 1382 OFFCURVE",
"236 1378 OFFCURVE",
"225 1309 CURVE SMOOTH",
"178 991 OFFCURVE",
"123 240 OFFCURVE",
"123 53 CURVE SMOOTH",
"123 31 OFFCURVE",
"123 18 OFFCURVE",
"125 0 CURVE",
"293 0 LINE",
"291 35 OFFCURVE",
"289 68 OFFCURVE",
"289 109 CURVE SMOOTH",
"289 487 OFFCURVE",
"498 951 OFFCURVE",
"680 951 CURVE SMOOTH",
"760 951 OFFCURVE",
"778 873 OFFCURVE",
"778 826 CURVE SMOOTH",
"778 611 OFFCURVE",
"719 327 OFFCURVE",
"719 175 CURVE SMOOTH",
"719 48 OFFCURVE",
"756 -23 OFFCURVE",
"885 -23 CURVE SMOOTH",
"1049 -23 OFFCURVE",
"1127 169 OFFCURVE",
"1145 265 CURVE",
"1094 278 LINE",
"1053 132 OFFCURVE",
"989 79 OFFCURVE",
"944 79 CURVE SMOOTH",
"895 79 OFFCURVE",
"889 124 OFFCURVE",
"889 175 CURVE SMOOTH",
"889 292 OFFCURVE",
"946 554 OFFCURVE",
"946 781 CURVE SMOOTH",
"946 923 OFFCURVE",
"885 1047 OFFCURVE",
"721 1047 CURVE SMOOTH",
"588 1047 OFFCURVE",
"457 963 OFFCURVE",
"318 590 CURVE",
"311 590 LINE",
"322 733 OFFCURVE",
"354 1059 OFFCURVE",
"373 1198 CURVE SMOOTH",
"385 1290 OFFCURVE",
"412 1444 OFFCURVE",
"428 1546 CURVE"
);
}
);
width = 1171;
},
{
anchors = (
{
name = center;
position = "{588, 512}";
},
{
name = top;
position = "{358, 1443}";
}
);
layerId = "6B2A2AD0-3CEC-4B3D-96BE-6A11A3496094";
name = "Bold Italic";
paths = (
{
closed = 1;
nodes = (
"371 1546 LINE",
"341 1520 OFFCURVE",
"250 1485 OFFCURVE",
"60 1485 CURVE",
"52 1330 LINE",
"81 1331 OFFCURVE",
"151 1333 OFFCURVE",
"195 1336 CURVE",
"182 1280 OFFCURVE",
"173 1192 OFFCURVE",
"168 1145 CURVE SMOOTH",
"140 902 OFFCURVE",
"104 434 OFFCURVE",
"104 98 CURVE SMOOTH",
"104 72 OFFCURVE",
"104 57 OFFCURVE",
"110 0 CURVE",
"373 0 LINE",
"371 32 OFFCURVE",
"367 111 OFFCURVE",
"367 148 CURVE SMOOTH",
"367 434 OFFCURVE",
"529 859 OFFCURVE",
"653 859 CURVE SMOOTH",
"695 859 OFFCURVE",
"711 833 OFFCURVE",
"711 772 CURVE SMOOTH",
"711 646 OFFCURVE",
"660 370 OFFCURVE",
"660 208 CURVE SMOOTH",
"660 63 OFFCURVE",
"703 -23 OFFCURVE",
"854 -23 CURVE SMOOTH",
"1039 -23 OFFCURVE",
"1141 180 OFFCURVE",
"1164 297 CURVE",
"1053 330 LINE",
"1018 207 OFFCURVE",
"985 167 OFFCURVE",
"954 167 CURVE SMOOTH",
"939 167 OFFCURVE",
"923 176 OFFCURVE",
"923 221 CURVE SMOOTH",
"923 371 OFFCURVE",
"974 581 OFFCURVE",
"974 732 CURVE SMOOTH",
"974 923 OFFCURVE",
"900 1047 OFFCURVE",
"726 1047 CURVE SMOOTH",
"609 1047 OFFCURVE",
"470 984 OFFCURVE",
"374 738 CURVE",
"372 738 LINE",
"403 882 OFFCURVE",
"425 1083 OFFCURVE",
"431 1128 CURVE SMOOTH",
"442 1211 OFFCURVE",
"466 1428 OFFCURVE",
"482 1546 CURVE"
);
}
);
width = 1176;
}
);
unicode = 0068;
},
{
glyphname = i;
lastChange = "2013-05-24 22:55:06 +0000";
layers = (
{
layerId = UUID0;
name = "Regular Italic";
paths = (
{
closed = 1;
nodes = (
"108 1047 OFFCURVE",
"33 854 OFFCURVE",
"14 758 CURVE",
"71 746 LINE",
"112 891 OFFCURVE",
"176 944 OFFCURVE",
"221 944 CURVE SMOOTH",
"268 944 OFFCURVE",
"278 887 OFFCURVE",
"278 852 CURVE SMOOTH",
"278 619 OFFCURVE",
"198 407 OFFCURVE",
"198 170 CURVE SMOOTH",
"198 43 OFFCURVE",
"258 -23 OFFCURVE",
"383 -23 CURVE SMOOTH",
"536 -23 OFFCURVE",
"612 151 OFFCURVE",
"637 266 CURVE",
"579 278 LINE",
"538 133 OFFCURVE",
"475 80 OFFCURVE",
"430 80 CURVE SMOOTH",
"385 80 OFFCURVE",
"366 110 OFFCURVE",
"366 166 CURVE SMOOTH",
"366 395 OFFCURVE",
"444 670 OFFCURVE",
"444 834 CURVE SMOOTH",
"444 961 OFFCURVE",
"387 1047 OFFCURVE",
"272 1047 CURVE SMOOTH"
);
},
{
closed = 1;
nodes = (
"330 1489 OFFCURVE",
"278 1442 OFFCURVE",
"278 1372 CURVE SMOOTH",
"278 1303 OFFCURVE",
"327 1257 OFFCURVE",
"387 1257 CURVE SMOOTH",
"446 1257 OFFCURVE",
"497 1303 OFFCURVE",
"497 1372 CURVE SMOOTH",
"497 1442 OFFCURVE",
"452 1489 OFFCURVE",
"389 1489 CURVE SMOOTH"
);
}
);
width = 664;
},
{
layerId = "6B2A2AD0-3CEC-4B3D-96BE-6A11A3496094";
name = "Bold Italic";
paths = (
{
closed = 1;
nodes = (
"135 1047 OFFCURVE",
"27 844 OFFCURVE",
"4 727 CURVE",
"115 694 LINE",
"150 817 OFFCURVE",
"183 857 OFFCURVE",
"214 857 CURVE SMOOTH",
"229 857 OFFCURVE",
"245 848 OFFCURVE",
"245 803 CURVE SMOOTH",
"245 674 OFFCURVE",
"179 369 OFFCURVE",
"179 208 CURVE SMOOTH",
"179 63 OFFCURVE",
"224 -23 OFFCURVE",
"375 -23 CURVE SMOOTH",
"560 -23 OFFCURVE",
"663 180 OFFCURVE",
"686 297 CURVE",
"575 330 LINE",
"540 207 OFFCURVE",
"507 167 OFFCURVE",
"476 167 CURVE SMOOTH",
"461 167 OFFCURVE",
"445 176 OFFCURVE",
"445 221 CURVE SMOOTH",
"445 312 OFFCURVE",
"509 675 OFFCURVE",
"509 809 CURVE SMOOTH",
"509 954 OFFCURVE",
"461 1047 OFFCURVE",
"320 1047 CURVE SMOOTH"
);
},
{
closed = 1;
nodes = (
"309 1562 OFFCURVE",
"232 1487 OFFCURVE",
"227 1393 CURVE SMOOTH",
"223 1301 OFFCURVE",
"284 1226 OFFCURVE",
"378 1226 CURVE SMOOTH",
"470 1226 OFFCURVE",
"534 1301 OFFCURVE",
"538 1393 CURVE SMOOTH",
"543 1487 OFFCURVE",
"481 1562 OFFCURVE",
"392 1562 CURVE SMOOTH"
);
}
);
width = 704;
}
);
unicode = 0069;
},
{
glyphname = dotlessi;
lastChange = "2013-05-24 22:55:06 +0000";
layers = (
{
layerId = UUID0;
name = "Regular Italic";
paths = (
{
closed = 1;
nodes = (
"108 1047 OFFCURVE",
"33 854 OFFCURVE",
"14 758 CURVE",
"71 746 LINE",
"112 891 OFFCURVE",
"176 944 OFFCURVE",
"221 944 CURVE SMOOTH",
"268 944 OFFCURVE",
"278 887 OFFCURVE",
"278 852 CURVE SMOOTH",
"278 619 OFFCURVE",
"198 407 OFFCURVE",
"198 170 CURVE SMOOTH",
"198 43 OFFCURVE",
"258 -23 OFFCURVE",
"383 -23 CURVE SMOOTH",
"536 -23 OFFCURVE",
"612 151 OFFCURVE",
"637 266 CURVE",
"579 278 LINE",
"538 133 OFFCURVE",
"475 80 OFFCURVE",
"430 80 CURVE SMOOTH",
"385 80 OFFCURVE",
"366 110 OFFCURVE",
"366 166 CURVE SMOOTH",
"366 395 OFFCURVE",
"444 670 OFFCURVE",
"444 834 CURVE SMOOTH",
"444 961 OFFCURVE",
"387 1047 OFFCURVE",
"272 1047 CURVE SMOOTH"
);
}
);
width = 664;
},
{
layerId = "6B2A2AD0-3CEC-4B3D-96BE-6A11A3496094";
name = "Bold Italic";
paths = (
{
closed = 1;
nodes = (
"135 1047 OFFCURVE",
"27 844 OFFCURVE",
"4 727 CURVE",
"115 694 LINE",
"150 817 OFFCURVE",
"183 857 OFFCURVE",
"214 857 CURVE SMOOTH",
"229 857 OFFCURVE",
"245 848 OFFCURVE",
"245 803 CURVE SMOOTH",
"245 674 OFFCURVE",
"179 369 OFFCURVE",
"179 208 CURVE SMOOTH",
"179 63 OFFCURVE",
"224 -23 OFFCURVE",
"375 -23 CURVE SMOOTH",
"560 -23 OFFCURVE",
"663 180 OFFCURVE",
"686 297 CURVE",
"575 330 LINE",
"540 207 OFFCURVE",
"507 167 OFFCURVE",
"476 167 CURVE SMOOTH",
"461 167 OFFCURVE",
"445 176 OFFCURVE",
"445 221 CURVE SMOOTH",
"445 312 OFFCURVE",
"509 675 OFFCURVE",
"509 809 CURVE SMOOTH",
"509 954 OFFCURVE",
"461 1047 OFFCURVE",
"320 1047 CURVE SMOOTH"
);
}
);
width = 704;
}
);
unicode = 0131;
},
{
glyphname = icircumflex;
lastChange = "2013-05-24 22:55:06 +0000";
layers = (
{
layerId = UUID0;
name = "Regular Italic";
paths = (
{
closed = 1;
nodes = (
"108 1047 OFFCURVE",
"33 854 OFFCURVE",
"14 758 CURVE",
"71 746 LINE",
"112 891 OFFCURVE",
"176 944 OFFCURVE",
"221 944 CURVE SMOOTH",
"268 944 OFFCURVE",
"278 887 OFFCURVE",
"278 852 CURVE SMOOTH",
"278 619 OFFCURVE",
"198 407 OFFCURVE",
"198 170 CURVE SMOOTH",
"198 43 OFFCURVE",
"258 -23 OFFCURVE",
"383 -23 CURVE SMOOTH",
"536 -23 OFFCURVE",
"612 151 OFFCURVE",
"637 266 CURVE",
"579 278 LINE",
"538 133 OFFCURVE",
"475 80 OFFCURVE",
"430 80 CURVE SMOOTH",
"385 80 OFFCURVE",
"366 110 OFFCURVE",
"366 166 CURVE SMOOTH",
"366 395 OFFCURVE",
"444 670 OFFCURVE",
"444 834 CURVE SMOOTH",
"444 961 OFFCURVE",
"387 1047 OFFCURVE",
"272 1047 CURVE SMOOTH"
);
},
{
closed = 1;
nodes = (
"346 1589 LINE",
"22 1268 LINE",
"67 1214 LINE",
"325 1438 LINE",
"330 1438 LINE",
"555 1206 LINE",
"608 1260 LINE",
"350 1589 LINE"
);
}
);
width = 664;
},
{
layerId = "6B2A2AD0-3CEC-4B3D-96BE-6A11A3496094";
name = "Bold Italic";
paths = (
{
closed = 1;
nodes = (
"135 1047 OFFCURVE",
"27 844 OFFCURVE",
"4 727 CURVE",
"115 694 LINE",
"150 817 OFFCURVE",
"183 857 OFFCURVE",
"214 857 CURVE SMOOTH",
"229 857 OFFCURVE",
"245 848 OFFCURVE",
"245 803 CURVE SMOOTH",
"245 674 OFFCURVE",
"179 369 OFFCURVE",
"179 208 CURVE SMOOTH",
"179 63 OFFCURVE",
"224 -23 OFFCURVE",
"375 -23 CURVE SMOOTH",
"560 -23 OFFCURVE",
"663 180 OFFCURVE",
"686 297 CURVE",
"575 330 LINE",
"540 207 OFFCURVE",
"507 167 OFFCURVE",
"476 167 CURVE SMOOTH",
"461 167 OFFCURVE",
"445 176 OFFCURVE",
"445 221 CURVE SMOOTH",
"445 312 OFFCURVE",
"509 675 OFFCURVE",
"509 809 CURVE SMOOTH",
"509 954 OFFCURVE",
"461 1047 OFFCURVE",
"320 1047 CURVE SMOOTH"
);
},
{
closed = 1;
nodes = (
"399 1603 LINE",
"42 1266 LINE",
"114 1169 LINE",
"377 1374 LINE",
"379 1374 LINE",
"621 1162 LINE",
"710 1256 LINE",
"420 1603 LINE"
);
}
);
width = 704;
}
);
unicode = 00EE;
},
{
glyphname = j;
lastChange = "2013-05-24 22:55:06 +0000";
layers = (
{
layerId = UUID0;
name = "Regular Italic";
paths = (
{
closed = 1;
nodes = (
"124 1047 OFFCURVE",
"53 846 OFFCURVE",
"39 750 CURVE",
"96 738 LINE",
"133 883 OFFCURVE",
"192 938 OFFCURVE",
"233 940 CURVE SMOOTH",
"280 942 OFFCURVE",
"295 893 OFFCURVE",
"297 854 CURVE SMOOTH",
"303 733 OFFCURVE",
"296 561 OFFCURVE",
"284 410 CURVE SMOOTH",
"278 330 OFFCURVE",
"235 -471 OFFCURVE",
"2 -471 CURVE SMOOTH",
"-12 -471 OFFCURVE",
"-28 -466 OFFCURVE",
"-38 -460 CURVE",
"-30 -390 OFFCURVE",
"-70 -349 OFFCURVE",
"-125 -349 CURVE SMOOTH",
"-184 -349 OFFCURVE",
"-213 -398 OFFCURVE",
"-213 -444 CURVE SMOOTH",
"-213 -527 OFFCURVE",
"-127 -555 OFFCURVE",
"-58 -555 CURVE SMOOTH",
"341 -555 OFFCURVE",
"402 -24 OFFCURVE",
"444 393 CURVE SMOOTH",
"461 561 OFFCURVE",
"465 725 OFFCURVE",
"465 838 CURVE SMOOTH",
"465 976 OFFCURVE",
"403 1047 OFFCURVE",
"295 1047 CURVE SMOOTH"
);
},
{
closed = 1;
nodes = (
"323 1491 OFFCURVE",
"274 1442 OFFCURVE",
"274 1372 CURVE SMOOTH",
"274 1303 OFFCURVE",
"323 1260 OFFCURVE",
"383 1260 CURVE SMOOTH",
"442 1260 OFFCURVE",
"493 1305 OFFCURVE",
"493 1374 CURVE SMOOTH",
"493 1444 OFFCURVE",
"446 1491 OFFCURVE",
"383 1491 CURVE SMOOTH"
);
}
);
width = 608;
},
{
layerId = "6B2A2AD0-3CEC-4B3D-96BE-6A11A3496094";
name = "Bold Italic";
paths = (
{
closed = 1;
nodes = (
"136 1047 OFFCURVE",
"38 844 OFFCURVE",
"15 727 CURVE",
"126 694 LINE",
"161 817 OFFCURVE",
"194 857 OFFCURVE",
"225 857 CURVE SMOOTH",
"240 857 OFFCURVE",
"256 848 OFFCURVE",
"256 803 CURVE SMOOTH",
"256 676 OFFCURVE",
"247 477 OFFCURVE",
"235 297 CURVE SMOOTH",
"224 145 OFFCURVE",
"179 -418 OFFCURVE",
"38 -420 CURVE SMOOTH",
"27 -420 OFFCURVE",
"13 -418 OFFCURVE",
"8 -415 CURVE",
"24 -332 OFFCURVE",
"-32 -276 OFFCURVE",
"-93 -274 CURVE SMOOTH",
"-189 -271 OFFCURVE",
"-221 -357 OFFCURVE",
"-221 -404 CURVE SMOOTH",
"-221 -494 OFFCURVE",
"-145 -555 OFFCURVE",
"-21 -555 CURVE SMOOTH",
"375 -555 OFFCURVE",
"465 -87 OFFCURVE",
"498 274 CURVE SMOOTH",
"515 463 OFFCURVE",
"522 670 OFFCURVE",
"520 809 CURVE SMOOTH",
"518 954 OFFCURVE",
"462 1047 OFFCURVE",
"321 1047 CURVE SMOOTH"
);
},
{
closed = 1;
nodes = (
"319 1562 OFFCURVE",
"242 1487 OFFCURVE",
"237 1393 CURVE SMOOTH",
"233 1301 OFFCURVE",
"294 1226 OFFCURVE",
"388 1226 CURVE SMOOTH",
"480 1226 OFFCURVE",
"544 1301 OFFCURVE",
"548 1393 CURVE SMOOTH",
"553 1487 OFFCURVE",
"491 1562 OFFCURVE",
"402 1562 CURVE SMOOTH"
);
}
);
width = 640;
}
);
unicode = 006A;
},
{
glyphname = k;
lastChange = "2013-05-24 23:12:39 +0000";
layers = (
{
anchors = (
{
name = bottom;
position = "{544, 0}";
}
);
layerId = UUID0;
name = "Regular Italic";
paths = (
{
closed = 1;
nodes = (
"365 1546 LINE",
"332 1518 OFFCURVE",
"289 1491 OFFCURVE",
"109 1491 CURVE",
"100 1409 LINE",
"244 1417 LINE",
"238 1382 OFFCURVE",
"235 1378 OFFCURVE",
"225 1309 CURVE SMOOTH",
"177 987 OFFCURVE",
"123 242 OFFCURVE",
"123 53 CURVE SMOOTH",
"123 31 OFFCURVE",
"123 18 OFFCURVE",
"125 0 CURVE",
"293 0 LINE",
"291 35 OFFCURVE",
"289 68 OFFCURVE",
"289 109 CURVE SMOOTH",
"289 209 OFFCURVE",
"307 326 OFFCURVE",
"337 439 CURVE",
"391 440 LINE",
"468 438 OFFCURVE",
"499 380 OFFCURVE",
"551 246 CURVE SMOOTH",
"623 57 OFFCURVE",
"682 -23 OFFCURVE",
"787 -23 CURVE SMOOTH",
"914 -23 OFFCURVE",
"983 93 OFFCURVE",
"1008 208 CURVE",
"950 220 LINE",
"926 118 OFFCURVE",
"893 89 OFFCURVE",
"848 93 CURVE SMOOTH",
"791 99 OFFCURVE",
"747 211 OFFCURVE",
"705 307 CURVE SMOOTH",
"659 410 OFFCURVE",
"618 449 OFFCURVE",
"524 451 CURVE",
"524 453 LINE",
"793 501 OFFCURVE",
"920 679 OFFCURVE",
"920 826 CURVE SMOOTH",
"920 936 OFFCURVE",
"862 1047 OFFCURVE",
"721 1047 CURVE SMOOTH",
"576 1047 OFFCURVE",
"443 952 OFFCURVE",
"320 590 CURVE",
"313 590 LINE",
"328 795 OFFCURVE",
"348 1008 OFFCURVE",
"373 1198 CURVE SMOOTH",
"385 1290 OFFCURVE",
"404 1444 OFFCURVE",
"424 1546 CURVE"
);
},
{
closed = 1;
nodes = (
"742 957 OFFCURVE",
"754 873 OFFCURVE",
"754 822 CURVE SMOOTH",
"754 613 OFFCURVE",
"615 498 OFFCURVE",
"356 498 CURVE SMOOTH",
"354 498 LINE",
"427 734 OFFCURVE",
"547 943 OFFCURVE",
"658 951 CURVE SMOOTH"
);
}
);
width = 1065;
},
{
anchors = (
{
name = bottom;
position = "{540, 0}";
}
);
layerId = "6B2A2AD0-3CEC-4B3D-96BE-6A11A3496094";
name = "Bold Italic";
paths = (
{
closed = 1;
nodes = (
"382 1546 LINE",
"352 1520 OFFCURVE",
"260 1485 OFFCURVE",
"70 1485 CURVE",
"62 1330 LINE",
"91 1331 OFFCURVE",
"164 1333 OFFCURVE",
"208 1336 CURVE",
"196 1275 OFFCURVE",
"185 1199 OFFCURVE",
"178 1144 CURVE SMOOTH",
"118 685 OFFCURVE",
"95 178 OFFCURVE",
"95 101 CURVE SMOOTH",
"95 74 OFFCURVE",
"94 57 OFFCURVE",
"100 0 CURVE",
"367 0 LINE",
"362 37 OFFCURVE",
"361 101 OFFCURVE",
"361 138 CURVE SMOOTH",
"361 209 OFFCURVE",
"368 327 OFFCURVE",
"384 406 CURVE",
"440 417 OFFCURVE",
"462 342 OFFCURVE",
"498 242 CURVE SMOOTH",
"571 41 OFFCURVE",
"637 -23 OFFCURVE",
"758 -23 CURVE SMOOTH",
"903 -23 OFFCURVE",
"995 140 OFFCURVE",
"1026 287 CURVE",
"916 322 LINE",
"884 216 OFFCURVE",
"857 181 OFFCURVE",
"827 181 CURVE SMOOTH",
"793 181 OFFCURVE",
"767 235 OFFCURVE",
"730 324 CURVE SMOOTH",
"706 381 OFFCURVE",
"665 448 OFFCURVE",
"551 452 CURVE",
"551 454 LINE",
"843 517 OFFCURVE",
"940 704 OFFCURVE",
"940 829 CURVE SMOOTH",
"940 962 OFFCURVE",
"871 1047 OFFCURVE",
"718 1047 CURVE SMOOTH",
"612 1047 OFFCURVE",
"482 980 OFFCURVE",
"391 801 CURVE",
"389 801 LINE",
"403 875 OFFCURVE",
"419 955 OFFCURVE",
"431 1066 CURVE SMOOTH",
"449 1236 OFFCURVE",
"474 1396 OFFCURVE",
"493 1546 CURVE"
);
},
{
closed = 1;
nodes = (
"677 911 OFFCURVE",
"694 875 OFFCURVE",
"694 821 CURVE SMOOTH",
"694 646 OFFCURVE",
"603 537 OFFCURVE",
"399 537 CURVE",
"446 778 OFFCURVE",
"574 911 OFFCURVE",
"642 911 CURVE SMOOTH"
);
}
);
width = 1060;
}
);
unicode = 006B;
},
{
glyphname = l;
lastChange = "2013-05-24 23:12:33 +0000";
layers = (
{
anchors = (
{
name = bottom;
position = "{335, 0}";
},
{
name = top;
position = "{317, 1443}";
},
{
name = topright;
position = "{534, 1048}";
}
);
layerId = UUID0;
name = "Regular Italic";
paths = (
{
closed = 1;
nodes = (
"380 1546 LINE",
"347 1518 OFFCURVE",
"300 1491 OFFCURVE",
"120 1491 CURVE",
"111 1409 LINE",
"257 1417 LINE",
"251 1389 OFFCURVE",
"249 1380 OFFCURVE",
"238 1307 CURVE SMOOTH",
"189 946 OFFCURVE",
"122 316 OFFCURVE",
"126 144 CURVE SMOOTH",
"128 34 OFFCURVE",
"179 -23 OFFCURVE",
"290 -23 CURVE SMOOTH",
"454 -23 OFFCURVE",
"537 169 OFFCURVE",
"556 265 CURVE",
"497 278 LINE",
"456 132 OFFCURVE",
"394 79 OFFCURVE",
"349 79 CURVE SMOOTH",
"296 79 OFFCURVE",
"292 134 OFFCURVE",
"292 187 CURVE SMOOTH",
"292 384 OFFCURVE",
"347 909 OFFCURVE",
"384 1198 CURVE SMOOTH",
"396 1290 OFFCURVE",
"423 1444 OFFCURVE",
"439 1546 CURVE"
);
}
);
width = 580;
},
{
anchors = (
{
name = bottom;
position = "{354, 0}";
},
{
name = top;
position = "{311, 1435}";
},
{
name = topright;
position = "{601, 1024}";
}
);
layerId = "6B2A2AD0-3CEC-4B3D-96BE-6A11A3496094";
name = "Bold Italic";
paths = (
{
closed = 1;
nodes = (
"387 1546 LINE",
"357 1520 OFFCURVE",
"267 1485 OFFCURVE",
"77 1485 CURVE",
"69 1330 LINE",
"98 1331 OFFCURVE",
"169 1333 OFFCURVE",
"213 1336 CURVE",
"203 1275 OFFCURVE",
"192 1199 OFFCURVE",
"186 1144 CURVE SMOOTH",
"145 797 OFFCURVE",
"100 422 OFFCURVE",
"100 175 CURVE SMOOTH",
"100 30 OFFCURVE",
"186 -23 OFFCURVE",
"285 -23 CURVE SMOOTH",
"482 -23 OFFCURVE",
"566 159 OFFCURVE",
"600 297 CURVE",
"489 330 LINE",
"454 207 OFFCURVE",
"421 167 OFFCURVE",
"390 167 CURVE SMOOTH",
"375 167 OFFCURVE",
"360 178 OFFCURVE",
"360 227 CURVE SMOOTH",
"360 351 OFFCURVE",
"391 611 OFFCURVE",
"498 1546 CURVE"
);
}
);
width = 621;
}
);
unicode = 006C;
},
{
glyphname = lslash;
lastChange = "2013-05-24 22:55:06 +0000";
layers = (
{
layerId = UUID0;
name = "Regular Italic";
paths = (
{
closed = 1;
nodes = (
"385 1546 LINE",
"352 1518 OFFCURVE",
"305 1491 OFFCURVE",
"125 1491 CURVE",
"116 1409 LINE",
"262 1417 LINE",
"256 1389 OFFCURVE",
"254 1380 OFFCURVE",
"243 1307 CURVE",
"220 1138 OFFCURVE",
"193 912 OFFCURVE",
"171 700 CURVE",
"4 584 LINE",
"-2 469 LINE",
"160 583 LINE",
"141 388 OFFCURVE",
"129 220 OFFCURVE",
"131 144 CURVE SMOOTH",
"133 34 OFFCURVE",
"184 -23 OFFCURVE",
"295 -23 CURVE SMOOTH",
"459 -23 OFFCURVE",
"542 169 OFFCURVE",
"561 265 CURVE",
"502 278 LINE",
"461 132 OFFCURVE",
"399 79 OFFCURVE",
"354 79 CURVE SMOOTH",
"301 79 OFFCURVE",
"297 134 OFFCURVE",
"297 187 CURVE SMOOTH",
"297 293 OFFCURVE",
"313 496 OFFCURVE",
"333 705 CURVE",
"528 842 LINE",
"535 952 LINE",
"345 820 LINE",
"360 959 OFFCURVE",
"375 1094 OFFCURVE",
"389 1198 CURVE SMOOTH",
"401 1290 OFFCURVE",
"428 1444 OFFCURVE",
"444 1546 CURVE"
);
}
);
width = 586;
},
{
layerId = "6B2A2AD0-3CEC-4B3D-96BE-6A11A3496094";
name = "Bold Italic";
paths = (
{
closed = 1;
nodes = (
"430 1546 LINE",
"400 1520 OFFCURVE",
"310 1485 OFFCURVE",
"120 1485 CURVE",
"112 1330 LINE",
"141 1331 OFFCURVE",
"212 1333 OFFCURVE",
"256 1336 CURVE",
"246 1275 OFFCURVE",
"235 1199 OFFCURVE",
"229 1144 CURVE SMOOTH",
"212 1001 OFFCURVE",
"194 853 OFFCURVE",
"179 712 CURVE",
"18 602 LINE",
"7 378 LINE",
"158 482 LINE",
"148 368 OFFCURVE",
"143 263 OFFCURVE",
"143 175 CURVE SMOOTH",
"143 30 OFFCURVE",
"229 -23 OFFCURVE",
"328 -23 CURVE SMOOTH",
"525 -23 OFFCURVE",
"609 159 OFFCURVE",
"643 297 CURVE",
"532 330 LINE",
"497 207 OFFCURVE",
"464 167 OFFCURVE",
"433 167 CURVE SMOOTH",
"418 167 OFFCURVE",
"403 178 OFFCURVE",
"403 227 CURVE SMOOTH",
"403 298 OFFCURVE",
"413 416 OFFCURVE",
"442 678 CURVE",
"599 787 LINE",
"611 1006 LINE",
"468 908 LINE",
"541 1546 LINE"
);
}
);
width = 666;
}
);
unicode = 0142;
},
{
glyphname = m;
lastChange = "2013-05-24 22:55:06 +0000";
layers = (
{
layerId = UUID0;
name = "Regular Italic";
paths = (
{
closed = 1;
nodes = (
"1246 1047 OFFCURVE",
"1110 969 OFFCURVE",
"975 596 CURVE",
"968 596 LINE",
"993 698 OFFCURVE",
"1003 735 OFFCURVE",
"1003 813 CURVE SMOOTH",
"1003 913 OFFCURVE",
"949 1047 OFFCURVE",
"785 1047 CURVE SMOOTH",
"672 1047 OFFCURVE",
"538 963 OFFCURVE",
"409 590 CURVE",
"403 590 LINE",
"430 739 OFFCURVE",
"499 1047 OFFCURVE",
"282 1047 CURVE SMOOTH",
"119 1047 OFFCURVE",
"35 854 OFFCURVE",
"16 758 CURVE",
"73 746 LINE",
"114 891 OFFCURVE",
"178 944 OFFCURVE",
"223 944 CURVE SMOOTH",
"270 944 OFFCURVE",
"278 901 OFFCURVE",
"278 852 CURVE SMOOTH",
"278 791 OFFCURVE",
"274 783 OFFCURVE",
"237 463 CURVE SMOOTH",
"207 205 OFFCURVE",
"198 123 OFFCURVE",
"198 53 CURVE SMOOTH",
"198 31 OFFCURVE",
"198 18 OFFCURVE",
"200 0 CURVE",
"372 0 LINE",
"370 35 OFFCURVE",
"368 68 OFFCURVE",
"368 109 CURVE SMOOTH",
"368 455 OFFCURVE",
"555 951 OFFCURVE",
"743 951 CURVE SMOOTH",
"823 951 OFFCURVE",
"839 881 OFFCURVE",
"841 834 CURVE SMOOTH",
"846 662 OFFCURVE",
"768 260 OFFCURVE",
"768 53 CURVE SMOOTH",
"768 31 OFFCURVE",
"768 18 OFFCURVE",
"770 0 CURVE",
"942 0 LINE",
"940 35 OFFCURVE",
"938 68 OFFCURVE",
"938 109 CURVE SMOOTH",
"938 455 OFFCURVE",
"1120 951 OFFCURVE",
"1313 951 CURVE SMOOTH",
"1392 951 OFFCURVE",
"1411 873 OFFCURVE",
"1411 826 CURVE SMOOTH",
"1411 609 OFFCURVE",
"1337 325 OFFCURVE",
"1337 175 CURVE SMOOTH",
"1337 48 OFFCURVE",
"1372 -23 OFFCURVE",
"1501 -23 CURVE SMOOTH",
"1665 -23 OFFCURVE",
"1751 169 OFFCURVE",
"1769 265 CURVE",
"1712 278 LINE",
"1671 132 OFFCURVE",
"1605 79 OFFCURVE",
"1560 79 CURVE SMOOTH",
"1511 79 OFFCURVE",
"1505 124 OFFCURVE",
"1505 175 CURVE SMOOTH",
"1505 292 OFFCURVE",
"1573 554 OFFCURVE",
"1573 781 CURVE SMOOTH",
"1573 923 OFFCURVE",
"1522 1047 OFFCURVE",
"1358 1047 CURVE SMOOTH"
);
}
);
width = 1794;
},
{
layerId = "6B2A2AD0-3CEC-4B3D-96BE-6A11A3496094";
name = "Bold Italic";
paths = (
{
closed = 1;
nodes = (
"1233 1047 OFFCURVE",
"1103 984 OFFCURVE",
"1007 738 CURVE",
"1005 738 LINE",
"1031 930 OFFCURVE",
"962 1047 OFFCURVE",
"809 1047 CURVE SMOOTH",
"692 1047 OFFCURVE",
"549 984 OFFCURVE",
"453 738 CURVE",
"451 738 LINE",
"457 784 OFFCURVE",
"463 807 OFFCURVE",
"463 861 CURVE SMOOTH",
"463 1006 OFFCURVE",
"379 1047 OFFCURVE",
"291 1047 CURVE SMOOTH",
"112 1047 OFFCURVE",
"40 844 OFFCURVE",
"17 727 CURVE",
"128 694 LINE",
"163 817 OFFCURVE",
"196 857 OFFCURVE",
"227 857 CURVE SMOOTH",
"242 857 OFFCURVE",
"256 848 OFFCURVE",
"256 803 CURVE SMOOTH",
"256 703 OFFCURVE",
"182 274 OFFCURVE",
"182 98 CURVE SMOOTH",
"182 72 OFFCURVE",
"182 57 OFFCURVE",
"188 0 CURVE",
"451 0 LINE",
"449 32 OFFCURVE",
"445 111 OFFCURVE",
"445 148 CURVE SMOOTH",
"445 434 OFFCURVE",
"605 859 OFFCURVE",
"729 859 CURVE SMOOTH",
"771 859 OFFCURVE",
"787 833 OFFCURVE",
"787 772 CURVE SMOOTH",
"787 646 OFFCURVE",
"739 370 OFFCURVE",
"739 138 CURVE SMOOTH",
"739 112 OFFCURVE",
"739 57 OFFCURVE",
"745 0 CURVE",
"1010 0 LINE",
"1006 52 OFFCURVE",
"1003 121 OFFCURVE",
"1003 158 CURVE SMOOTH",
"1003 444 OFFCURVE",
"1154 859 OFFCURVE",
"1278 859 CURVE SMOOTH",
"1320 859 OFFCURVE",
"1336 833 OFFCURVE",
"1336 772 CURVE SMOOTH",
"1336 646 OFFCURVE",
"1285 370 OFFCURVE",
"1285 208 CURVE SMOOTH",
"1285 63 OFFCURVE",
"1326 -23 OFFCURVE",
"1477 -23 CURVE SMOOTH",
"1662 -23 OFFCURVE",
"1764 180 OFFCURVE",
"1787 297 CURVE",
"1676 330 LINE",
"1641 207 OFFCURVE",
"1608 167 OFFCURVE",
"1577 167 CURVE SMOOTH",
"1562 167 OFFCURVE",
"1546 176 OFFCURVE",
"1546 221 CURVE SMOOTH",
"1546 371 OFFCURVE",
"1597 581 OFFCURVE",
"1597 732 CURVE SMOOTH",
"1597 923 OFFCURVE",
"1524 1047 OFFCURVE",
"1350 1047 CURVE SMOOTH"
);
}
);
width = 1799;
}
);
unicode = 006D;
},
{
glyphname = n;
lastChange = "2013-05-24 23:12:23 +0000";
layers = (
{
anchors = (
{
name = bottom;
position = "{642, 0}";
},
{
name = top;
position = "{695, 1048}";
}
);
layerId = UUID0;
name = "Regular Italic";
paths = (
{
closed = 1;
nodes = (
"678 1047 OFFCURVE",
"547 953 OFFCURVE",
"407 580 CURVE",
"401 580 LINE",
"428 729 OFFCURVE",
"497 1047 OFFCURVE",
"280 1047 CURVE SMOOTH",
"117 1047 OFFCURVE",
"33 854 OFFCURVE",
"14 758 CURVE",
"71 746 LINE",
"112 891 OFFCURVE",
"176 944 OFFCURVE",
"221 944 CURVE SMOOTH",
"268 944 OFFCURVE",
"276 901 OFFCURVE",
"276 852 CURVE SMOOTH",
"276 791 OFFCURVE",
"274 783 OFFCURVE",
"237 463 CURVE SMOOTH",
"207 205 OFFCURVE",
"196 123 OFFCURVE",
"196 53 CURVE SMOOTH",
"196 31 OFFCURVE",
"196 18 OFFCURVE",
"198 0 CURVE",
"370 0 LINE",
"368 35 OFFCURVE",
"366 68 OFFCURVE",
"366 109 CURVE SMOOTH",
"366 455 OFFCURVE",
"581 951 OFFCURVE",
"770 951 CURVE SMOOTH",
"850 951 OFFCURVE",
"866 873 OFFCURVE",
"866 826 CURVE SMOOTH",
"866 607 OFFCURVE",
"803 327 OFFCURVE",
"803 175 CURVE SMOOTH",
"803 48 OFFCURVE",
"839 -23 OFFCURVE",
"969 -23 CURVE SMOOTH",
"1132 -23 OFFCURVE",
"1216 169 OFFCURVE",
"1235 265 CURVE",
"1177 278 LINE",
"1136 132 OFFCURVE",
"1073 79 OFFCURVE",
"1028 79 CURVE SMOOTH",
"979 79 OFFCURVE",
"973 124 OFFCURVE",
"973 175 CURVE SMOOTH",
"973 292 OFFCURVE",
"1034 554 OFFCURVE",
"1034 781 CURVE SMOOTH",
"1034 923 OFFCURVE",
"975 1047 OFFCURVE",
"811 1047 CURVE SMOOTH"
);
}
);
width = 1260;
},
{
anchors = (
{
name = bottom;
position = "{670, 0}";
},
{
name = top;
position = "{699, 1024}";
}
);
layerId = "6B2A2AD0-3CEC-4B3D-96BE-6A11A3496094";
name = "Bold Italic";
paths = (
{
closed = 1;
nodes = (
"685 1047 OFFCURVE",
"549 984 OFFCURVE",
"453 738 CURVE",
"451 738 LINE",
"457 784 OFFCURVE",
"463 807 OFFCURVE",
"463 861 CURVE SMOOTH",
"463 1006 OFFCURVE",
"379 1047 OFFCURVE",
"291 1047 CURVE SMOOTH",
"112 1047 OFFCURVE",
"40 844 OFFCURVE",
"17 727 CURVE",
"128 694 LINE",
"163 817 OFFCURVE",
"196 857 OFFCURVE",
"227 857 CURVE SMOOTH",
"242 857 OFFCURVE",
"256 848 OFFCURVE",
"256 803 CURVE SMOOTH",
"256 703 OFFCURVE",
"182 274 OFFCURVE",
"182 98 CURVE SMOOTH",
"182 72 OFFCURVE",
"182 57 OFFCURVE",
"188 0 CURVE",
"452 0 LINE",
"450 32 OFFCURVE",
"446 111 OFFCURVE",
"446 148 CURVE SMOOTH",
"446 434 OFFCURVE",
"605 859 OFFCURVE",
"729 859 CURVE SMOOTH",
"771 859 OFFCURVE",
"787 833 OFFCURVE",
"787 772 CURVE SMOOTH",
"787 646 OFFCURVE",
"736 370 OFFCURVE",
"736 208 CURVE SMOOTH",
"736 63 OFFCURVE",
"777 -23 OFFCURVE",
"928 -23 CURVE SMOOTH",
"1113 -23 OFFCURVE",
"1215 180 OFFCURVE",
"1238 297 CURVE",
"1127 330 LINE",
"1092 207 OFFCURVE",
"1059 167 OFFCURVE",
"1028 167 CURVE SMOOTH",
"1013 167 OFFCURVE",
"997 176 OFFCURVE",
"997 221 CURVE SMOOTH",
"997 371 OFFCURVE",
"1048 581 OFFCURVE",
"1048 732 CURVE SMOOTH",
"1048 923 OFFCURVE",
"976 1047 OFFCURVE",
"802 1047 CURVE SMOOTH"
);
}
);
width = 1250;
}
);
unicode = 006E;
},
{
glyphname = o;
lastChange = "2013-05-24 22:55:06 +0000";
layers = (
{
anchors = (
{
name = top;
position = "{601, 1048}";
}
);
layerId = UUID0;
name = "Regular Italic";
paths = (
{
closed = 1;
nodes = (
"271 1047 OFFCURVE",
"80 768 OFFCURVE",
"80 436 CURVE SMOOTH",
"80 182 OFFCURVE",
"203 -23 OFFCURVE",
"473 -23 CURVE SMOOTH",
"791 -23 OFFCURVE",
"975 268 OFFCURVE",
"975 598 CURVE SMOOTH",
"975 885 OFFCURVE",
"807 1047 OFFCURVE",
"586 1047 CURVE SMOOTH"
);
},
{
closed = 1;
nodes = (
"756 967 OFFCURVE",
"799 727 OFFCURVE",
"795 535 CURVE SMOOTH",
"791 336 OFFCURVE",
"709 51 OFFCURVE",
"492 55 CURVE SMOOTH",
"303 59 OFFCURVE",
"256 315 OFFCURVE",
"260 504 CURVE SMOOTH",
"264 766 OFFCURVE",
"373 973 OFFCURVE",
"555 971 CURVE SMOOTH"
);
}
);
width = 1067;
},
{
anchors = (
{
name = top;
position = "{559, 1024}";
}
);
layerId = "6B2A2AD0-3CEC-4B3D-96BE-6A11A3496094";
name = "Bold Italic";
paths = (
{
closed = 1;
nodes = (
"257 1047 OFFCURVE",
"57 770 OFFCURVE",
"57 443 CURVE SMOOTH",
"57 187 OFFCURVE",
"192 -23 OFFCURVE",
"470 -23 CURVE SMOOTH",
"789 -23 OFFCURVE",
"984 265 OFFCURVE",
"984 590 CURVE SMOOTH",
"984 880 OFFCURVE",
"800 1047 OFFCURVE",
"572 1047 CURVE SMOOTH"
);
},
{
closed = 1;
nodes = (
"678 909 OFFCURVE",
"705 679 OFFCURVE",
"701 530 CURVE SMOOTH",
"696 363 OFFCURVE",
"643 113 OFFCURVE",
"502 113 CURVE SMOOTH",
"371 113 OFFCURVE",
"336 336 OFFCURVE",
"336 500 CURVE SMOOTH",
"336 724 OFFCURVE",
"416 913 OFFCURVE",
"540 911 CURVE SMOOTH"
);
}
);
width = 1055;
}
);
unicode = 006F;
},
{
glyphname = oslash;
lastChange = "2013-05-24 22:55:06 +0000";
layers = (
{
layerId = UUID0;
name = "Regular Italic";
paths = (
{
closed = 1;
nodes = (
"804 982 LINE",
"742 1024 OFFCURVE",
"668 1047 OFFCURVE",
"586 1047 CURVE SMOOTH",
"271 1047 OFFCURVE",
"80 768 OFFCURVE",
"80 436 CURVE SMOOTH",
"80 294 OFFCURVE",
"118 168 OFFCURVE",
"198 84 CURVE",
"70 -106 LINE",
"135 -158 LINE",
"265 30 LINE",
"321 -4 OFFCURVE",
"390 -23 OFFCURVE",
"473 -23 CURVE SMOOTH",
"791 -23 OFFCURVE",
"975 268 OFFCURVE",
"975 598 CURVE SMOOTH",
"975 731 OFFCURVE",
"939 837 OFFCURVE",
"878 913 CURVE",
"1002 1092 LINE",
"918 1151 LINE"
);
},
{
closed = 1;
nodes = (
"791 689 OFFCURVE",
"796 608 OFFCURVE",
"795 535 CURVE SMOOTH",
"791 336 OFFCURVE",
"709 51 OFFCURVE",
"492 55 CURVE SMOOTH",
"425 56 OFFCURVE",
"376 89 OFFCURVE",
"341 139 CURVE",
"772 761 LINE"
);
},
{
closed = 1;
nodes = (
"636 970 OFFCURVE",
"691 929 OFFCURVE",
"728 869 CURVE",
"296 229 LINE",
"267 314 OFFCURVE",
"258 416 OFFCURVE",
"260 504 CURVE SMOOTH",
"264 766 OFFCURVE",
"373 974 OFFCURVE",
"555 971 CURVE SMOOTH"
);
}
);
width = 1067;
},
{
layerId = "6B2A2AD0-3CEC-4B3D-96BE-6A11A3496094";
name = "Bold Italic";
paths = (
{
closed = 1;
nodes = (
"771 998 LINE",
"712 1030 OFFCURVE",
"644 1047 OFFCURVE",
"572 1047 CURVE SMOOTH",
"257 1047 OFFCURVE",
"57 770 OFFCURVE",
"57 443 CURVE SMOOTH",
"57 316 OFFCURVE",
"90 200 OFFCURVE",
"158 116 CURVE",
"27 -68 LINE",
"135 -157 LINE",
"268 24 LINE",
"324 -6 OFFCURVE",
"391 -23 OFFCURVE",
"470 -23 CURVE SMOOTH",
"789 -23 OFFCURVE",
"984 265 OFFCURVE",
"984 590 CURVE SMOOTH",
"984 714 OFFCURVE",
"950 816 OFFCURVE",
"893 892 CURVE",
"1021 1066 LINE",
"891 1167 LINE"
);
},
{
closed = 1;
nodes = (
"725 620 OFFCURVE",
"728 572 OFFCURVE",
"727 530 CURVE SMOOTH",
"722 363 OFFCURVE",
"662 113 OFFCURVE",
"506 113 CURVE SMOOTH",
"451 113 OFFCURVE",
"409 145 OFFCURVE",
"379 194 CURVE",
"718 668 LINE"
);
},
{
closed = 1;
nodes = (
"597 911 OFFCURVE",
"638 878 OFFCURVE",
"667 829 CURVE",
"326 337 LINE",
"315 391 OFFCURVE",
"310 448 OFFCURVE",
"310 500 CURVE SMOOTH",
"310 724 OFFCURVE",
"404 911 OFFCURVE",
"540 911 CURVE SMOOTH"
);
}
);
width = 1055;
}
);
unicode = 00F8;
},
{
glyphname = oe;
lastChange = "2013-05-24 22:55:06 +0000";
layers = (
{
layerId = UUID0;
name = "Regular Italic";
paths = (
{
closed = 1;
nodes = (
"1054 1047 OFFCURVE",
"912 931 OFFCURVE",
"854 831 CURVE",
"848 831 LINE",
"801 966 OFFCURVE",
"701 1045 OFFCURVE",
"567 1047 CURVE SMOOTH",
"252 1051 OFFCURVE",
"82 768 OFFCURVE",
"82 436 CURVE SMOOTH",
"82 182 OFFCURVE",
"184 -23 OFFCURVE",
"455 -23 CURVE SMOOTH",
"598 -23 OFFCURVE",
"731 73 OFFCURVE",
"799 182 CURVE",
"803 182 LINE",
"861 43 OFFCURVE",
"981 -23 OFFCURVE",
"1112 -23 CURVE SMOOTH",
"1298 -23 OFFCURVE",
"1443 74 OFFCURVE",
"1558 289 CURVE",
"1490 327 LINE",
"1400 155 OFFCURVE",
"1252 70 OFFCURVE",
"1136 80 CURVE SMOOTH",
"1025 90 OFFCURVE",
"905 189 OFFCURVE",
"916 474 CURVE",
"1206 501 OFFCURVE",
"1511 602 OFFCURVE",
"1511 823 CURVE SMOOTH",
"1511 1005 OFFCURVE",
"1359 1047 OFFCURVE",
"1214 1047 CURVE SMOOTH"
);
},
{
closed = 1;
nodes = (
"760 967 OFFCURVE",
"758 649 OFFCURVE",
"754 508 CURVE SMOOTH",
"748 281 OFFCURVE",
"672 55 OFFCURVE",
"473 57 CURVE SMOOTH",
"285 59 OFFCURVE",
"252 315 OFFCURVE",
"256 504 CURVE SMOOTH",
"260 766 OFFCURVE",
"350 975 OFFCURVE",
"533 971 CURVE SMOOTH"
);
},
{
closed = 1;
nodes = (
"1281 985 OFFCURVE",
"1348 940 OFFCURVE",
"1348 830 CURVE SMOOTH",
"1348 645 OFFCURVE",
"1110 571 OFFCURVE",
"915 544 CURVE",
"928 765 OFFCURVE",
"1043 963 OFFCURVE",
"1184 976 CURVE SMOOTH"
);
}
);
width = 1632;
},
{
layerId = "6B2A2AD0-3CEC-4B3D-96BE-6A11A3496094";
name = "Bold Italic";
paths = (
{
closed = 1;
nodes = (
"1078 1047 OFFCURVE",
"958 991 OFFCURVE",
"862 847 CURVE",
"860 847 LINE",
"788 1001 OFFCURVE",
"661 1047 OFFCURVE",
"558 1047 CURVE SMOOTH",
"243 1047 OFFCURVE",
"58 770 OFFCURVE",
"58 443 CURVE SMOOTH",
"58 187 OFFCURVE",
"188 -23 OFFCURVE",
"466 -23 CURVE SMOOTH",
"566 -23 OFFCURVE",
"703 10 OFFCURVE",
"796 172 CURVE",
"798 172 LINE",
"876 14 OFFCURVE",
"1022 -23 OFFCURVE",
"1107 -23 CURVE SMOOTH",
"1267 -23 OFFCURVE",
"1426 38 OFFCURVE",
"1544 307 CURVE",
"1423 364 LINE",
"1349 193 OFFCURVE",
"1230 165 OFFCURVE",
"1162 165 CURVE SMOOTH",
"1074 165 OFFCURVE",
"978 222 OFFCURVE",
"978 455 CURVE",
"1219 490 OFFCURVE",
"1522 566 OFFCURVE",
"1522 789 CURVE SMOOTH",
"1522 968 OFFCURVE",
"1396 1047 OFFCURVE",
"1215 1047 CURVE SMOOTH"
);
},
{
closed = 1;
nodes = (
"674 909 OFFCURVE",
"695 679 OFFCURVE",
"691 530 CURVE SMOOTH",
"686 363 OFFCURVE",
"639 113 OFFCURVE",
"498 113 CURVE SMOOTH",
"367 113 OFFCURVE",
"337 336 OFFCURVE",
"337 500 CURVE SMOOTH",
"337 724 OFFCURVE",
"412 913 OFFCURVE",
"536 911 CURVE SMOOTH"
);
},
{
closed = 1;
nodes = (
"1233 912 OFFCURVE",
"1281 884 OFFCURVE",
"1283 818 CURVE SMOOTH",
"1286 716 OFFCURVE",
"1206 627 OFFCURVE",
"985 587 CURVE",
"1001 740 OFFCURVE",
"1053 912 OFFCURVE",
"1192 912 CURVE SMOOTH"
);
}
);
width = 1605;
}
);
unicode = 0153;
},
{
glyphname = p;
lastChange = "2013-05-24 22:55:06 +0000";
layers = (
{
layerId = UUID0;
name = "Regular Italic";
paths = (
{
closed = 1;
nodes = (
"680 1047 OFFCURVE",
"549 974 OFFCURVE",
"437 599 CURVE",
"430 599 LINE",
"459 745 OFFCURVE",
"516 1047 OFFCURVE",
"303 1047 CURVE SMOOTH",
"140 1047 OFFCURVE",
"56 854 OFFCURVE",
"37 758 CURVE",
"97 746 LINE",
"137 891 OFFCURVE",
"199 944 OFFCURVE",
"244 944 CURVE SMOOTH",
"297 944 OFFCURVE",
"299 889 OFFCURVE",
"299 836 CURVE SMOOTH",
"299 731 OFFCURVE",
"248 297 OFFCURVE",
"211 -174 CURVE SMOOTH",
"199 -334 OFFCURVE",
"201 -461 OFFCURVE",
"86 -461 CURVE",
"86 -522 LINE",
"473 -522 LINE",
"473 -438 LINE",
"344 -444 LINE",
"357 -397 OFFCURVE",
"357 -330 OFFCURVE",
"361 -274 CURVE SMOOTH",
"377 -17 LINE",
"408 -21 OFFCURVE",
"439 -23 OFFCURVE",
"473 -23 CURVE SMOOTH",
"869 -23 OFFCURVE",
"1078 251 OFFCURVE",
"1078 650 CURVE SMOOTH",
"1078 865 OFFCURVE",
"989 1047 OFFCURVE",
"801 1047 CURVE SMOOTH"
);
},
{
closed = 1;
nodes = (
"871 951 OFFCURVE",
"901 800 OFFCURVE",
"901 613 CURVE SMOOTH",
"901 364 OFFCURVE",
"797 47 OFFCURVE",
"508 47 CURVE SMOOTH",
"463 47 OFFCURVE",
"426 57 OFFCURVE",
"383 71 CURVE",
"389 143 OFFCURVE",
"396 205 OFFCURVE",
"406 266 CURVE SMOOTH",
"457 598 OFFCURVE",
"609 951 OFFCURVE",
"758 951 CURVE SMOOTH"
);
}
);
width = 1169;
},
{
layerId = "6B2A2AD0-3CEC-4B3D-96BE-6A11A3496094";
name = "Bold Italic";
paths = (
{
closed = 1;
nodes = (
"697 1047 OFFCURVE",
"550 984 OFFCURVE",
"454 738 CURVE",
"452 738 LINE",
"458 784 OFFCURVE",
"460 807 OFFCURVE",
"460 861 CURVE SMOOTH",
"460 1006 OFFCURVE",
"380 1047 OFFCURVE",
"292 1047 CURVE SMOOTH",
"113 1047 OFFCURVE",
"41 844 OFFCURVE",
"18 727 CURVE",
"129 694 LINE",
"164 817 OFFCURVE",
"197 857 OFFCURVE",
"228 857 CURVE SMOOTH",
"243 857 OFFCURVE",
"258 846 OFFCURVE",
"258 797 CURVE SMOOTH",
"258 710 OFFCURVE",
"245 437 OFFCURVE",
"186 -204 CURVE SMOOTH",
"176 -312 OFFCURVE",
"159 -389 OFFCURVE",
"57 -389 CURVE",
"57 -522 LINE",
"576 -522 LINE",
"576 -366 LINE",
"547 -367 OFFCURVE",
"484 -369 OFFCURVE",
"440 -372 CURVE",
"448 -311 OFFCURVE",
"454 -228 OFFCURVE",
"456 -189 CURVE SMOOTH",
"465 -21 LINE",
"488 -22 OFFCURVE",
"517 -23 OFFCURVE",
"531 -23 CURVE SMOOTH",
"921 -23 OFFCURVE",
"1108 267 OFFCURVE",
"1108 656 CURVE SMOOTH",
"1108 887 OFFCURVE",
"1001 1047 OFFCURVE",
"805 1047 CURVE SMOOTH"
);
},
{
closed = 1;
nodes = (
"788 861 OFFCURVE",
"829 803 OFFCURVE",
"829 653 CURVE SMOOTH",
"829 491 OFFCURVE",
"789 113 OFFCURVE",
"556 113 CURVE SMOOTH",
"539 113 OFFCURVE",
"502 117 OFFCURVE",
"473 125 CURVE",
"509 606 OFFCURVE",
"596 861 OFFCURVE",
"729 861 CURVE SMOOTH"
);
}
);
width = 1178;
}
);
unicode = 0070;
},
{
glyphname = thorn;
lastChange = "2013-05-24 22:55:06 +0000";
layers = (
{
layerId = UUID0;
name = "Regular Italic";
paths = (
{
closed = 1;
nodes = (
"342 1546 LINE",
"309 1518 OFFCURVE",
"262 1491 OFFCURVE",
"82 1491 CURVE",
"73 1409 LINE",
"222 1417 LINE",
"214 1370 OFFCURVE",
"210 1327 OFFCURVE",
"206 1268 CURVE SMOOTH",
"164 717 OFFCURVE",
"141 391 OFFCURVE",
"102 -176 CURVE SMOOTH",
"92 -336 OFFCURVE",
"92 -461 OFFCURVE",
"-23 -461 CURVE",
"-23 -522 LINE",
"364 -522 LINE",
"364 -438 LINE",
"235 -444 LINE",
"248 -397 OFFCURVE",
"248 -330 OFFCURVE",
"252 -274 CURVE",
"264 -15 LINE",
"311 -21 OFFCURVE",
"354 -23 OFFCURVE",
"387 -23 CURVE SMOOTH",
"792 -23 OFFCURVE",
"954 291 OFFCURVE",
"954 668 CURVE SMOOTH",
"954 866 OFFCURVE",
"887 1047 OFFCURVE",
"698 1047 CURVE SMOOTH",
"575 1047 OFFCURVE",
"411 1006 OFFCURVE",
"303 610 CURVE",
"297 612 LINE",
"317 829 OFFCURVE",
"337 1020 OFFCURVE",
"355 1200 CURVE SMOOTH",
"365 1292 OFFCURVE",
"383 1432 OFFCURVE",
"401 1546 CURVE"
);
},
{
closed = 1;
nodes = (
"735 955 OFFCURVE",
"774 838 OFFCURVE",
"778 651 CURVE SMOOTH",
"782 402 OFFCURVE",
"721 53 OFFCURVE",
"422 49 CURVE SMOOTH",
"368 49 OFFCURVE",
"297 63 OFFCURVE",
"264 96 CURVE",
"272 438 OFFCURVE",
"444 942 OFFCURVE",
"639 951 CURVE SMOOTH"
);
}
);
width = 1049;
},
{
layerId = "6B2A2AD0-3CEC-4B3D-96BE-6A11A3496094";
name = "Bold Italic";
paths = (
{
closed = 1;
nodes = (
"350 1546 LINE",
"320 1520 OFFCURVE",
"228 1485 OFFCURVE",
"38 1485 CURVE",
"30 1330 LINE",
"59 1331 OFFCURVE",
"128 1333 OFFCURVE",
"172 1336 CURVE",
"163 1275 OFFCURVE",
"161 1194 OFFCURVE",
"158 1147 CURVE SMOOTH",
"128 660 OFFCURVE",
"110 313 OFFCURVE",
"78 -204 CURVE SMOOTH",
"71 -312 OFFCURVE",
"51 -389 OFFCURVE",
"-51 -389 CURVE",
"-51 -522 LINE",
"468 -522 LINE",
"468 -366 LINE",
"439 -367 OFFCURVE",
"376 -369 OFFCURVE",
"332 -372 CURVE",
"340 -311 OFFCURVE",
"346 -228 OFFCURVE",
"348 -189 CURVE SMOOTH",
"356 -20 LINE",
"380 -22 OFFCURVE",
"415 -23 OFFCURVE",
"431 -23 CURVE SMOOTH",
"821 -23 OFFCURVE",
"992 269 OFFCURVE",
"992 658 CURVE SMOOTH",
"992 873 OFFCURVE",
"906 1047 OFFCURVE",
"701 1047 CURVE SMOOTH",
"590 1047 OFFCURVE",
"482 985 OFFCURVE",
"384 798 CURVE",
"382 798 LINE",
"401 950 OFFCURVE",
"408 1003 OFFCURVE",
"420 1128 CURVE SMOOTH",
"461 1546 LINE"
);
},
{
closed = 1;
nodes = (
"662 861 OFFCURVE",
"713 805 OFFCURVE",
"713 655 CURVE SMOOTH",
"713 493 OFFCURVE",
"689 113 OFFCURVE",
"456 113 CURVE SMOOTH",
"437 113 OFFCURVE",
"393 118 OFFCURVE",
"363 127 CURVE",
"392 626 OFFCURVE",
"480 861 OFFCURVE",
"603 861 CURVE SMOOTH"
);
}
);
width = 1064;
}
);
unicode = 00FE;
},
{
glyphname = q;
lastChange = "2013-05-24 22:55:06 +0000";
layers = (
{
layerId = UUID0;
name = "Regular Italic";
paths = (
{
closed = 1;
nodes = (
"283 1043 OFFCURVE",
"76 756 OFFCURVE",
"78 357 CURVE SMOOTH",
"80 142 OFFCURVE",
"170 -26 OFFCURVE",
"359 -23 CURVE SMOOTH",
"480 -21 OFFCURVE",
"623 49 OFFCURVE",
"731 426 CURVE",
"738 426 LINE",
"713 240 OFFCURVE",
"690 31 OFFCURVE",
"674 -174 CURVE SMOOTH",
"662 -334 OFFCURVE",
"664 -461 OFFCURVE",
"549 -461 CURVE",
"549 -522 LINE",
"936 -522 LINE",
"936 -438 LINE",
"807 -444 LINE",
"819 -397 OFFCURVE",
"824 -330 OFFCURVE",
"828 -274 CURVE SMOOTH",
"852 88 OFFCURVE",
"918 682 OFFCURVE",
"944 1026 CURVE",
"883 1039 OFFCURVE",
"746 1047 OFFCURVE",
"678 1047 CURVE SMOOTH"
);
},
{
closed = 1;
nodes = (
"699 977 OFFCURVE",
"750 971 OFFCURVE",
"791 959 CURVE",
"772 594 OFFCURVE",
"596 75 OFFCURVE",
"402 73 CURVE SMOOTH",
"289 73 OFFCURVE",
"256 209 OFFCURVE",
"254 396 CURVE SMOOTH",
"252 645 OFFCURVE",
"357 973 OFFCURVE",
"645 977 CURVE SMOOTH"
);
}
);
width = 1061;
},
{
layerId = "6B2A2AD0-3CEC-4B3D-96BE-6A11A3496094";
name = "Bold Italic";
paths = (
{
closed = 1;
nodes = (
"231 1047 OFFCURVE",
"55 735 OFFCURVE",
"55 367 CURVE SMOOTH",
"55 165 OFFCURVE",
"151 -23 OFFCURVE",
"346 -23 CURVE SMOOTH",
"443 -23 OFFCURVE",
"553 12 OFFCURVE",
"660 218 CURVE",
"662 218 LINE",
"649 146 OFFCURVE",
"640 51 OFFCURVE",
"634 -20 CURVE SMOOTH",
"628 -96 OFFCURVE",
"625 -148 OFFCURVE",
"619 -208 CURVE SMOOTH",
"609 -316 OFFCURVE",
"603 -389 OFFCURVE",
"489 -389 CURVE",
"489 -522 LINE",
"1007 -522 LINE",
"1007 -366 LINE",
"978 -367 OFFCURVE",
"913 -369 OFFCURVE",
"869 -372 CURVE",
"877 -311 OFFCURVE",
"882 -230 OFFCURVE",
"885 -191 CURVE SMOOTH",
"973 1012 LINE",
"871 1030 OFFCURVE",
"729 1047 OFFCURVE",
"643 1047 CURVE SMOOTH"
);
},
{
closed = 1;
nodes = (
"633 911 OFFCURVE",
"684 907 OFFCURVE",
"701 900 CURVE",
"690 557 OFFCURVE",
"568 163 OFFCURVE",
"440 163 CURVE SMOOTH",
"398 163 OFFCURVE",
"335 210 OFFCURVE",
"335 379 CURVE SMOOTH",
"335 632 OFFCURVE",
"392 911 OFFCURVE",
"614 911 CURVE SMOOTH"
);
}
);
width = 1070;
}
);
unicode = 0071;
},
{
glyphname = r;
lastChange = "2013-05-24 23:11:46 +0000";
layers = (
{
anchors = (
{
name = bottom;
position = "{355, 0}";
},
{
name = top;
position = "{521, 1048}";
}
);
layerId = UUID0;
name = "Regular Italic";
paths = (
{
closed = 1;
nodes = (
"659 1047 OFFCURVE",
"525 954 OFFCURVE",
"406 600 CURVE",
"400 600 LINE",
"449 852 OFFCURVE",
"459 1047 OFFCURVE",
"280 1047 CURVE SMOOTH",
"117 1047 OFFCURVE",
"33 854 OFFCURVE",
"14 758 CURVE",
"71 746 LINE",
"112 891 OFFCURVE",
"176 944 OFFCURVE",
"221 944 CURVE SMOOTH",
"278 944 OFFCURVE",
"278 881 OFFCURVE",
"276 825 CURVE SMOOTH",
"274 782 OFFCURVE",
"266 739 OFFCURVE",
"237 473 CURVE SMOOTH",
"209 215 OFFCURVE",
"205 123 OFFCURVE",
"205 53 CURVE SMOOTH",
"205 31 OFFCURVE",
"205 18 OFFCURVE",
"207 0 CURVE",
"377 0 LINE",
"375 35 OFFCURVE",
"373 47 OFFCURVE",
"373 88 CURVE SMOOTH",
"373 420 OFFCURVE",
"557 958 OFFCURVE",
"747 915 CURVE",
"754 861 OFFCURVE",
"792 830 OFFCURVE",
"842 830 CURVE SMOOTH",
"900 830 OFFCURVE",
"936 879 OFFCURVE",
"936 928 CURVE SMOOTH",
"936 1001 OFFCURVE",
"874 1047 OFFCURVE",
"792 1047 CURVE SMOOTH"
);
}
);
width = 932;
},
{
anchors = (
{
name = bottom;
position = "{415, 0}";
},
{
name = top;
position = "{512, 1024}";
}
);
layerId = "6B2A2AD0-3CEC-4B3D-96BE-6A11A3496094";
name = "Bold Italic";
paths = (
{
closed = 1;
nodes = (
"679 1047 OFFCURVE",
"554 989 OFFCURVE",
"445 678 CURVE",
"443 678 LINE",
"456 755 OFFCURVE",
"462 817 OFFCURVE",
"462 861 CURVE SMOOTH",
"462 1006 OFFCURVE",
"379 1047 OFFCURVE",
"291 1047 CURVE SMOOTH",
"112 1047 OFFCURVE",
"40 844 OFFCURVE",
"17 727 CURVE",
"128 694 LINE",
"163 817 OFFCURVE",
"196 857 OFFCURVE",
"227 857 CURVE SMOOTH",
"242 857 OFFCURVE",
"256 848 OFFCURVE",
"256 803 CURVE SMOOTH",
"256 703 OFFCURVE",
"182 274 OFFCURVE",
"182 98 CURVE SMOOTH",
"182 72 OFFCURVE",
"182 57 OFFCURVE",
"188 0 CURVE",
"456 0 LINE",
"454 32 OFFCURVE",
"450 111 OFFCURVE",
"450 148 CURVE SMOOTH",
"450 439 OFFCURVE",
"587 871 OFFCURVE",
"703 858 CURVE",
"700 792 OFFCURVE",
"755 751 OFFCURVE",
"815 751 CURVE SMOOTH",
"898 751 OFFCURVE",
"952 820 OFFCURVE",
"952 890 CURVE SMOOTH",
"952 986 OFFCURVE",
"883 1047 OFFCURVE",
"781 1047 CURVE SMOOTH"
);
}
);
width = 941;
}
);
unicode = 0072;
},
{
glyphname = s;
lastChange = "2013-05-28 17:46:36 +0000";
layers = (
{
anchors = (
{
name = bottom;
position = "{443, 0}";
},
{
name = top;
position = "{466, 1048}";
}
);
layerId = UUID0;
name = "Regular Italic";
paths = (
{
closed = 1;
nodes = (
"254 1047 OFFCURVE",
"111 920 OFFCURVE",
"111 770 CURVE SMOOTH",
"111 522 OFFCURVE",
"607 456 OFFCURVE",
"607 248 CURVE SMOOTH",
"607 125 OFFCURVE",
"532 53 OFFCURVE",
"386 53 CURVE SMOOTH",
"312 53 OFFCURVE",
"236 88 OFFCURVE",
"215 147 CURVE",
"229 169 OFFCURVE",
"233 190 OFFCURVE",
"233 210 CURVE SMOOTH",
"233 254 OFFCURVE",
"204 297 OFFCURVE",
"150 297 CURVE SMOOTH",
"100 297 OFFCURVE",
"61 256 OFFCURVE",
"61 196 CURVE SMOOTH",
"61 55 OFFCURVE",
"224 -23 OFFCURVE",
"390 -23 CURVE SMOOTH",
"618 -23 OFFCURVE",
"775 104 OFFCURVE",
"775 276 CURVE SMOOTH",
"775 563 OFFCURVE",
"271 619 OFFCURVE",
"271 817 CURVE SMOOTH",
"271 914 OFFCURVE",
"369 979 OFFCURVE",
"459 979 CURVE SMOOTH",
"551 979 OFFCURVE",
"604 943 OFFCURVE",
"619 898 CURVE",
"605 875 OFFCURVE",
"600 854 OFFCURVE",
"600 833 CURVE SMOOTH",
"600 790 OFFCURVE",
"633 751 OFFCURVE",
"682 751 CURVE SMOOTH",
"731 751 OFFCURVE",
"768 788 OFFCURVE",
"768 846 CURVE SMOOTH",
"768 968 OFFCURVE",
"619 1047 OFFCURVE",
"465 1047 CURVE SMOOTH"
);
}
);
width = 877;
},
{
anchors = (
{
name = bottom;
position = "{458, 0}";
},
{
name = top;
position = "{486, 1024}";
}
);
layerId = "6B2A2AD0-3CEC-4B3D-96BE-6A11A3496094";
name = "Bold Italic";
paths = (
{
closed = 1;
nodes = (
"227 1047 OFFCURVE",
"88 895 OFFCURVE",
"88 752 CURVE SMOOTH",
"88 608 OFFCURVE",
"176 536 OFFCURVE",
"371 425 CURVE SMOOTH",
"478 364 OFFCURVE",
"577 316 OFFCURVE",
"577 240 CURVE SMOOTH",
"577 175 OFFCURVE",
"535 112 OFFCURVE",
"415 112 CURVE SMOOTH",
"374 112 OFFCURVE",
"301 141 OFFCURVE",
"287 171 CURVE",
"327 264 OFFCURVE",
"269 358 OFFCURVE",
"174 358 CURVE SMOOTH",
"101 358 OFFCURVE",
"43 299 OFFCURVE",
"43 215 CURVE SMOOTH",
"43 69 OFFCURVE",
"213 -23 OFFCURVE",
"409 -23 CURVE SMOOTH",
"645 -23 OFFCURVE",
"828 109 OFFCURVE",
"828 293 CURVE SMOOTH",
"828 463 OFFCURVE",
"658 551 OFFCURVE",
"523 629 CURVE SMOOTH",
"356 725 OFFCURVE",
"332 747 OFFCURVE",
"332 804 CURVE SMOOTH",
"332 872 OFFCURVE",
"412 912 OFFCURVE",
"470 912 CURVE SMOOTH",
"506 912 OFFCURVE",
"559 900 OFFCURVE",
"581 871 CURVE",
"542 783 OFFCURVE",
"597 687 OFFCURVE",
"693 687 CURVE SMOOTH",
"772 687 OFFCURVE",
"821 749 OFFCURVE",
"821 822 CURVE SMOOTH",
"821 962 OFFCURVE",
"642 1047 OFFCURVE",
"477 1047 CURVE SMOOTH"
);
}
);
width = 914;
}
);
unicode = 0073;
},
{
glyphname = germandbls;
lastChange = "2013-05-24 22:55:06 +0000";
layers = (
{
layerId = UUID0;
name = "Regular Italic";
paths = (
{
closed = 1;
nodes = (
"422 1556 OFFCURVE",
"301 1329 OFFCURVE",
"246 1024 CURVE",
"58 1024 LINE",
"48 936 LINE",
"232 939 LINE",
"213 801 OFFCURVE",
"203 651 OFFCURVE",
"191 502 CURVE SMOOTH",
"146 -41 OFFCURVE",
"159 -475 OFFCURVE",
"-33 -475 CURVE SMOOTH",
"-48 -475 OFFCURVE",
"-79 -470 OFFCURVE",
"-95 -459 CURVE",
"-95 -404 OFFCURVE",
"-123 -364 OFFCURVE",
"-173 -363 CURVE SMOOTH",
"-234 -361 OFFCURVE",
"-258 -418 OFFCURVE",
"-258 -449 CURVE SMOOTH",
"-258 -518 OFFCURVE",
"-203 -554 OFFCURVE",
"-98 -555 CURVE SMOOTH",
"302 -559 OFFCURVE",
"318 -12 OFFCURVE",
"359 483 CURVE SMOOTH",
"381 758 OFFCURVE",
"390 995 OFFCURVE",
"428 1169 CURVE SMOOTH",
"471 1364 OFFCURVE",
"560 1489 OFFCURVE",
"758 1489 CURVE SMOOTH",
"932 1489 OFFCURVE",
"1003 1370 OFFCURVE",
"994 1257 CURVE SMOOTH",
"974 997 OFFCURVE",
"706 997 OFFCURVE",
"691 774 CURVE SMOOTH",
"677 553 OFFCURVE",
"1094 456 OFFCURVE",
"1094 248 CURVE SMOOTH",
"1094 125 OFFCURVE",
"1039 53 OFFCURVE",
"914 53 CURVE SMOOTH",
"840 53 OFFCURVE",
"774 88 OFFCURVE",
"753 147 CURVE",
"767 169 OFFCURVE",
"771 190 OFFCURVE",
"771 210 CURVE SMOOTH",
"771 254 OFFCURVE",
"742 297 OFFCURVE",
"688 297 CURVE SMOOTH",
"638 297 OFFCURVE",
"599 256 OFFCURVE",
"599 196 CURVE SMOOTH",
"599 55 OFFCURVE",
"752 -23 OFFCURVE",
"918 -23 CURVE SMOOTH",
"1125 -23 OFFCURVE",
"1262 104 OFFCURVE",
"1262 276 CURVE SMOOTH",
"1262 563 OFFCURVE",
"834 653 OFFCURVE",
"834 813 CURVE SMOOTH",
"834 971 OFFCURVE",
"1114 1006 OFFCURVE",
"1147 1245 CURVE SMOOTH",
"1166 1383 OFFCURVE",
"1071 1557 OFFCURVE",
"767 1556 CURVE"
);
}
);
width = 1331;
},
{
layerId = "6B2A2AD0-3CEC-4B3D-96BE-6A11A3496094";
name = "Bold Italic";
paths = (
{
closed = 1;
nodes = (
"542 1556 OFFCURVE",
"279 1443 OFFCURVE",
"232 1024 CURVE",
"67 1024 LINE",
"49 875 LINE",
"87 875 OFFCURVE",
"157 876 OFFCURVE",
"212 877 CURVE",
"195 649 OFFCURVE",
"165 210 OFFCURVE",
"145 -23 CURVE SMOOTH",
"132 -182 OFFCURVE",
"111 -410 OFFCURVE",
"18 -410 CURVE SMOOTH",
"7 -410 OFFCURVE",
"-3 -408 OFFCURVE",
"-8 -405 CURVE",
"3 -334 OFFCURVE",
"-47 -281 OFFCURVE",
"-108 -279 CURVE SMOOTH",
"-201 -276 OFFCURVE",
"-236 -360 OFFCURVE",
"-236 -407 CURVE SMOOTH",
"-236 -497 OFFCURVE",
"-165 -555 OFFCURVE",
"-41 -555 CURVE SMOOTH",
"238 -555 OFFCURVE",
"366 -339 OFFCURVE",
"403 -23 CURVE",
"482 932 LINE SMOOTH",
"499 1143 OFFCURVE",
"550 1409 OFFCURVE",
"808 1409 CURVE SMOOTH",
"894 1409 OFFCURVE",
"995 1380 OFFCURVE",
"1005 1253 CURVE SMOOTH",
"1023 1019 OFFCURVE",
"623 971 OFFCURVE",
"623 711 CURVE SMOOTH",
"623 611 OFFCURVE",
"693 532 OFFCURVE",
"881 425 CURVE SMOOTH",
"988 364 OFFCURVE",
"1077 316 OFFCURVE",
"1077 240 CURVE SMOOTH",
"1077 175 OFFCURVE",
"1045 112 OFFCURVE",
"925 112 CURVE SMOOTH",
"884 112 OFFCURVE",
"821 141 OFFCURVE",
"807 171 CURVE",
"847 264 OFFCURVE",
"789 358 OFFCURVE",
"694 358 CURVE SMOOTH",
"621 358 OFFCURVE",
"563 299 OFFCURVE",
"563 215 CURVE SMOOTH",
"563 69 OFFCURVE",
"723 -23 OFFCURVE",
"919 -23 CURVE SMOOTH",
"1155 -23 OFFCURVE",
"1328 109 OFFCURVE",
"1328 293 CURVE SMOOTH",
"1328 463 OFFCURVE",
"1168 551 OFFCURVE",
"1033 629 CURVE SMOOTH",
"866 725 OFFCURVE",
"868 756 OFFCURVE",
"868 804 CURVE SMOOTH",
"868 941 OFFCURVE",
"1233 1012 OFFCURVE",
"1233 1266 CURVE SMOOTH",
"1233 1512 OFFCURVE",
"959 1556 OFFCURVE",
"781 1556 CURVE SMOOTH"
);
}
);
width = 1375;
}
);
unicode = 00DF;
},
{
glyphname = t;
lastChange = "2013-05-26 15:09:32 +0000";
layers = (
{
anchors = (
{
name = bottom;
position = "{407, 0}";
},
{
name = center;
position = "{400, 524}";
}
);
layerId = UUID0;
name = "Regular Italic";
paths = (
{
closed = 1;
nodes = (
"366 1313 LINE",
"313 1128 OFFCURVE",
"219 1024 OFFCURVE",
"51 1024 CURVE",
"45 938 LINE",
"227 940 LINE",
"192 645 OFFCURVE",
"174 373 OFFCURVE",
"174 219 CURVE SMOOTH",
"174 90 OFFCURVE",
"227 -23 OFFCURVE",
"387 -23 CURVE SMOOTH",
"518 -23 OFFCURVE",
"602 51 OFFCURVE",
"682 190 CURVE",
"629 225 LINE",
"551 94 OFFCURVE",
"475 82 OFFCURVE",
"436 82 CURVE SMOOTH",
"346 82 OFFCURVE",
"340 180 OFFCURVE",
"340 260 CURVE SMOOTH",
"340 442 OFFCURVE",
"375 713 OFFCURVE",
"399 942 CURVE",
"727 947 LINE",
"733 1024 LINE",
"407 1024 LINE",
"419 1120 OFFCURVE",
"434 1233 OFFCURVE",
"444 1313 CURVE"
);
}
);
width = 745;
},
{
anchors = (
{
name = bottom;
position = "{447, 0}";
},
{
name = center;
position = "{405, 512}";
}
);
layerId = "6B2A2AD0-3CEC-4B3D-96BE-6A11A3496094";
name = "Bold Italic";
paths = (
{
closed = 1;
nodes = (
"380 1333 LINE",
"346 1152 OFFCURVE",
"258 1024 OFFCURVE",
"55 1024 CURVE",
"37 875 LINE",
"75 875 OFFCURVE",
"145 876 OFFCURVE",
"200 877 CURVE",
"178 681 OFFCURVE",
"160 449 OFFCURVE",
"154 309 CURVE SMOOTH",
"149 139 OFFCURVE",
"189 -23 OFFCURVE",
"414 -23 CURVE SMOOTH",
"568 -23 OFFCURVE",
"707 63 OFFCURVE",
"798 237 CURVE",
"695 304 LINE",
"632 191 OFFCURVE",
"541 174 OFFCURVE",
"509 174 CURVE SMOOTH",
"420 174 OFFCURVE",
"412 257 OFFCURVE",
"412 310 CURVE SMOOTH",
"412 402 OFFCURVE",
"440 681 OFFCURVE",
"464 879 CURVE",
"721 883 LINE",
"734 1024 LINE",
"477 1024 LINE",
"519 1333 LINE"
);
}
);
width = 809;
}
);
unicode = 0074;
},
{
glyphname = u;
lastChange = "2013-05-26 17:49:28 +0000";
layers = (
{
anchors = (
{
name = ogonek;
position = "{1066, 10}";
},
{
name = top;
position = "{634, 1048}";
}
);
layerId = UUID0;
name = "Regular Italic";
paths = (
{
closed = 1;
nodes = (
"108 1047 OFFCURVE",
"31 854 OFFCURVE",
"12 758 CURVE",
"69 746 LINE",
"110 891 OFFCURVE",
"168 944 OFFCURVE",
"213 944 CURVE SMOOTH",
"262 944 OFFCURVE",
"268 899 OFFCURVE",
"268 848 CURVE SMOOTH",
"268 731 OFFCURVE",
"203 471 OFFCURVE",
"203 244 CURVE SMOOTH",
"203 102 OFFCURVE",
"263 -23 OFFCURVE",
"427 -23 CURVE SMOOTH",
"560 -23 OFFCURVE",
"674 63 OFFCURVE",
"813 436 CURVE",
"819 436 LINE",
"799 334 OFFCURVE",
"782 239 OFFCURVE",
"782 162 CURVE SMOOTH",
"782 51 OFFCURVE",
"829 -23 OFFCURVE",
"940 -23 CURVE SMOOTH",
"1104 -23 OFFCURVE",
"1188 170 OFFCURVE",
"1206 266 CURVE",
"1149 278 LINE",
"1108 133 OFFCURVE",
"1044 82 OFFCURVE",
"999 82 CURVE SMOOTH",
"956 82 OFFCURVE",
"944 123 OFFCURVE",
"944 172 CURVE SMOOTH",
"944 233 OFFCURVE",
"946 233 OFFCURVE",
"983 553 CURVE SMOOTH",
"1014 811 OFFCURVE",
"1024 901 OFFCURVE",
"1024 971 CURVE SMOOTH",
"1024 993 OFFCURVE",
"1024 1006 OFFCURVE",
"1022 1024 CURVE",
"850 1024 LINE",
"852 989 OFFCURVE",
"854 956 OFFCURVE",
"854 915 CURVE SMOOTH",
"854 569 OFFCURVE",
"655 74 OFFCURVE",
"467 74 CURVE SMOOTH",
"387 74 OFFCURVE",
"371 156 OFFCURVE",
"371 203 CURVE SMOOTH",
"371 375 OFFCURVE",
"438 692 OFFCURVE",
"438 848 CURVE SMOOTH",
"438 975 OFFCURVE",
"381 1047 OFFCURVE",
"272 1047 CURVE SMOOTH"
);
}
);
width = 1214;
},
{
anchors = (
{
name = ogonek;
position = "{1046, 10}";
},
{
name = top;
position = "{646, 1024}";
}
);
background = {
paths = (
{
closed = 1;
nodes = (
"804 824 OFFCURVE",
"814 747 OFFCURVE",
"773 313 CURVE SMOOTH",
"768 258 OFFCURVE",
"759 223 OFFCURVE",
"759 163 CURVE SMOOTH",
"759 18 OFFCURVE",
"843 -23 OFFCURVE",
"931 -23 CURVE SMOOTH",
"1110 -23 OFFCURVE",
"1182 180 OFFCURVE",
"1205 297 CURVE",
"1094 330 LINE",
"1059 207 OFFCURVE",
"1026 167 OFFCURVE",
"995 167 CURVE SMOOTH",
"980 167 OFFCURVE",
"966 176 OFFCURVE",
"966 221 CURVE SMOOTH",
"966 321 OFFCURVE",
"1042 750 OFFCURVE",
"1042 926 CURVE SMOOTH",
"1042 952 OFFCURVE",
"1042 967 OFFCURVE",
"1036 1024 CURVE",
"772 1024 LINE"
);
}
);
};
layerId = "6B2A2AD0-3CEC-4B3D-96BE-6A11A3496094";
name = "Bold Italic";
paths = (
{
closed = 1;
nodes = (
"122 1047 OFFCURVE",
"20 844 OFFCURVE",
"-3 727 CURVE",
"108 694 LINE",
"143 817 OFFCURVE",
"176 857 OFFCURVE",
"207 857 CURVE SMOOTH",
"222 857 OFFCURVE",
"240 848 OFFCURVE",
"240 803 CURVE SMOOTH",
"240 653 OFFCURVE",
"187 443 OFFCURVE",
"187 292 CURVE SMOOTH",
"187 101 OFFCURVE",
"259 -23 OFFCURVE",
"433 -23 CURVE SMOOTH",
"550 -23 OFFCURVE",
"673 50 OFFCURVE",
"769 296 CURVE",
"771 296 LINE",
"765 250 OFFCURVE",
"759 217 OFFCURVE",
"759 163 CURVE SMOOTH",
"759 18 OFFCURVE",
"843 -23 OFFCURVE",
"931 -23 CURVE SMOOTH",
"1110 -23 OFFCURVE",
"1182 180 OFFCURVE",
"1205 297 CURVE",
"1094 330 LINE",
"1059 207 OFFCURVE",
"1026 167 OFFCURVE",
"995 167 CURVE SMOOTH",
"980 167 OFFCURVE",
"966 176 OFFCURVE",
"966 221 CURVE SMOOTH",
"966 321 OFFCURVE",
"1042 750 OFFCURVE",
"1042 926 CURVE SMOOTH",
"1042 952 OFFCURVE",
"1042 967 OFFCURVE",
"1036 1024 CURVE",
"772 1024 LINE",
"776 992 OFFCURVE",
"778 913 OFFCURVE",
"778 876 CURVE SMOOTH",
"778 590 OFFCURVE",
"620 165 OFFCURVE",
"506 165 CURVE SMOOTH",
"464 165 OFFCURVE",
"448 191 OFFCURVE",
"448 252 CURVE SMOOTH",
"448 378 OFFCURVE",
"501 654 OFFCURVE",
"501 816 CURVE SMOOTH",
"501 961 OFFCURVE",
"458 1047 OFFCURVE",
"307 1047 CURVE SMOOTH"
);
}
);
width = 1225;
}
);
unicode = 0075;
},
{
glyphname = v;
lastChange = "2013-05-24 22:55:06 +0000";
layers = (
{
layerId = UUID0;
name = "Regular Italic";
paths = (
{
closed = 1;
nodes = (
"655 1047 OFFCURVE",
"626 985 OFFCURVE",
"626 944 CURVE",
"628 883 OFFCURVE",
"676 858 OFFCURVE",
"713 858 CURVE SMOOTH",
"747 858 OFFCURVE",
"778 873 OFFCURVE",
"794 909 CURVE",
"931 852 OFFCURVE",
"899 567 OFFCURVE",
"864 459 CURVE SMOOTH",
"802 262 OFFCURVE",
"626 90 OFFCURVE",
"491 88 CURVE SMOOTH",
"393 86 OFFCURVE",
"391 178 OFFCURVE",
"393 244 CURVE SMOOTH",
"397 383 OFFCURVE",
"435 687 OFFCURVE",
"432 851 CURVE SMOOTH",
"429 978 OFFCURVE",
"370 1050 OFFCURVE",
"262 1047 CURVE SMOOTH",
"98 1043 OFFCURVE",
"24 851 OFFCURVE",
"8 755 CURVE",
"65 742 LINE",
"104 888 OFFCURVE",
"159 943 OFFCURVE",
"204 943 CURVE SMOOTH",
"253 943 OFFCURVE",
"262 900 OFFCURVE",
"262 849 CURVE SMOOTH",
"262 732 OFFCURVE",
"217 467 OFFCURVE",
"221 239 CURVE",
"225 98 OFFCURVE",
"284 -25 OFFCURVE",
"454 -23 CURVE SMOOTH",
"665 -21 OFFCURVE",
"860 195 OFFCURVE",
"942 412 CURVE SMOOTH",
"1048 694 OFFCURVE",
"991 1047 OFFCURVE",
"744 1047 CURVE SMOOTH"
);
}
);
width = 1077;
},
{
layerId = "6B2A2AD0-3CEC-4B3D-96BE-6A11A3496094";
name = "Bold Italic";
paths = (
{
closed = 1;
nodes = (
"623 1047 OFFCURVE",
"584 960 OFFCURVE",
"584 903 CURVE SMOOTH",
"584 814 OFFCURVE",
"656 777 OFFCURVE",
"710 777 CURVE SMOOTH",
"750 777 OFFCURVE",
"781 795 OFFCURVE",
"804 814 CURVE",
"834 784 OFFCURVE",
"856 716 OFFCURVE",
"856 656 CURVE SMOOTH",
"856 369 OFFCURVE",
"682 135 OFFCURVE",
"534 132 CURVE SMOOTH",
"470 131 OFFCURVE",
"461 204 OFFCURVE",
"461 248 CURVE SMOOTH",
"461 370 OFFCURVE",
"498 632 OFFCURVE",
"498 808 CURVE SMOOTH",
"498 937 OFFCURVE",
"458 1047 OFFCURVE",
"301 1047 CURVE SMOOTH",
"116 1047 OFFCURVE",
"14 844 OFFCURVE",
"-9 727 CURVE",
"102 694 LINE",
"137 817 OFFCURVE",
"170 857 OFFCURVE",
"201 857 CURVE SMOOTH",
"216 857 OFFCURVE",
"234 848 OFFCURVE",
"234 803 CURVE SMOOTH",
"234 705 OFFCURVE",
"200 438 OFFCURVE",
"200 296 CURVE SMOOTH",
"200 99 OFFCURVE",
"274 -23 OFFCURVE",
"460 -23 CURVE SMOOTH",
"803 -23 OFFCURVE",
"1007 392 OFFCURVE",
"1007 674 CURVE SMOOTH",
"1007 877 OFFCURVE",
"915 1047 OFFCURVE",
"740 1047 CURVE SMOOTH"
);
}
);
width = 1071;
}
);
unicode = 0076;
},
{
glyphname = w;
lastChange = "2013-05-24 22:55:06 +0000";
layers = (
{
anchors = (
{
name = top;
position = "{875, 1048}";
}
);
layerId = UUID0;
name = "Regular Italic";
paths = (
{
closed = 1;
nodes = (
"1219 1047 OFFCURVE",
"1188 991 OFFCURVE",
"1188 946 CURVE SMOOTH",
"1188 885 OFFCURVE",
"1236 858 OFFCURVE",
"1273 858 CURVE SMOOTH",
"1308 858 OFFCURVE",
"1341 873 OFFCURVE",
"1357 909 CURVE",
"1494 852 OFFCURVE",
"1460 567 OFFCURVE",
"1425 459 CURVE SMOOTH",
"1355 244 OFFCURVE",
"1193 82 OFFCURVE",
"1038 84 CURVE",
"946 86 OFFCURVE",
"927 164 OFFCURVE",
"927 243 CURVE SMOOTH",
"927 430 OFFCURVE",
"995 657 OFFCURVE",
"995 932 CURVE SMOOTH",
"995 952 OFFCURVE",
"993 1001 OFFCURVE",
"987 1024 CURVE",
"812 1024 LINE",
"884 436 OFFCURVE",
"671 86 OFFCURVE",
"468 86 CURVE SMOOTH",
"399 86 OFFCURVE",
"380 149 OFFCURVE",
"380 209 CURVE SMOOTH",
"380 325 OFFCURVE",
"436 670 OFFCURVE",
"436 848 CURVE SMOOTH",
"436 975 OFFCURVE",
"378 1047 OFFCURVE",
"270 1047 CURVE SMOOTH",
"106 1047 OFFCURVE",
"28 854 OFFCURVE",
"10 758 CURVE",
"67 746 LINE",
"108 891 OFFCURVE",
"165 944 OFFCURVE",
"210 944 CURVE SMOOTH",
"260 944 OFFCURVE",
"266 899 OFFCURVE",
"266 848 CURVE SMOOTH",
"266 731 OFFCURVE",
"212 461 OFFCURVE",
"212 244 CURVE SMOOTH",
"212 98 OFFCURVE",
"266 -23 OFFCURVE",
"425 -23 CURVE SMOOTH",
"575 -23 OFFCURVE",
"722 125 OFFCURVE",
"778 286 CURVE",
"782 286 LINE",
"759 39 OFFCURVE",
"882 -23 OFFCURVE",
"989 -23 CURVE SMOOTH",
"1220 -23 OFFCURVE",
"1415 168 OFFCURVE",
"1505 412 CURVE SMOOTH",
"1609 692 OFFCURVE",
"1554 1047 OFFCURVE",
"1311 1047 CURVE SMOOTH"
);
}
);
width = 1640;
},
{
anchors = (
{
name = top;
position = "{848, 1024}";
}
);
layerId = "6B2A2AD0-3CEC-4B3D-96BE-6A11A3496094";
name = "Bold Italic";
paths = (
{
closed = 1;
nodes = (
"1182 1047 OFFCURVE",
"1143 960 OFFCURVE",
"1143 903 CURVE SMOOTH",
"1143 814 OFFCURVE",
"1215 777 OFFCURVE",
"1269 777 CURVE SMOOTH",
"1309 777 OFFCURVE",
"1340 795 OFFCURVE",
"1363 814 CURVE",
"1393 784 OFFCURVE",
"1415 716 OFFCURVE",
"1415 656 CURVE SMOOTH",
"1415 375 OFFCURVE",
"1204 132 OFFCURVE",
"1063 132 CURVE SMOOTH",
"999 132 OFFCURVE",
"981 204 OFFCURVE",
"981 248 CURVE SMOOTH",
"981 370 OFFCURVE",
"1029 750 OFFCURVE",
"1029 926 CURVE SMOOTH",
"1029 952 OFFCURVE",
"1029 967 OFFCURVE",
"1023 1024 CURVE",
"759 1024 LINE",
"761 992 OFFCURVE",
"765 913 OFFCURVE",
"765 876 CURVE SMOOTH",
"765 630 OFFCURVE",
"710 132 OFFCURVE",
"513 132 CURVE SMOOTH",
"457 132 OFFCURVE",
"454 204 OFFCURVE",
"454 248 CURVE SMOOTH",
"454 370 OFFCURVE",
"503 632 OFFCURVE",
"503 808 CURVE SMOOTH",
"503 937 OFFCURVE",
"463 1047 OFFCURVE",
"306 1047 CURVE SMOOTH",
"121 1047 OFFCURVE",
"19 844 OFFCURVE",
"-4 727 CURVE",
"107 694 LINE",
"142 817 OFFCURVE",
"175 857 OFFCURVE",
"206 857 CURVE SMOOTH",
"221 857 OFFCURVE",
"239 848 OFFCURVE",
"239 803 CURVE SMOOTH",
"239 705 OFFCURVE",
"193 438 OFFCURVE",
"193 296 CURVE SMOOTH",
"193 99 OFFCURVE",
"267 -23 OFFCURVE",
"443 -23 CURVE SMOOTH",
"581 -23 OFFCURVE",
"726 56 OFFCURVE",
"785 276 CURVE",
"787 276 LINE",
"763 115 OFFCURVE",
"814 -23 OFFCURVE",
"991 -23 CURVE SMOOTH",
"1322 -23 OFFCURVE",
"1566 382 OFFCURVE",
"1566 674 CURVE SMOOTH",
"1566 877 OFFCURVE",
"1474 1047 OFFCURVE",
"1299 1047 CURVE SMOOTH"
);
}
);
width = 1628;
}
);
unicode = 0077;
},
{
glyphname = x;
lastChange = "2013-05-24 22:55:06 +0000";
layers = (
{
layerId = UUID0;
name = "Regular Italic";
paths = (
{
closed = 1;
nodes = (
"868 1047 OFFCURVE",
"728 1000 OFFCURVE",
"583 644 CURVE",
"581 644 LINE",
"490 904 OFFCURVE",
"466 1047 OFFCURVE",
"318 1047 CURVE SMOOTH",
"133 1047 OFFCURVE",
"101 828 OFFCURVE",
"101 718 CURVE",
"160 720 LINE",
"168 881 OFFCURVE",
"215 922 OFFCURVE",
"264 922 CURVE SMOOTH",
"337 922 OFFCURVE",
"364 798 OFFCURVE",
"471 516 CURVE",
"359 186 OFFCURVE",
"268 76 OFFCURVE",
"192 92 CURVE",
"190 125 OFFCURVE",
"179 176 OFFCURVE",
"114 176 CURVE SMOOTH",
"69 176 OFFCURVE",
"31 139 OFFCURVE",
"31 81 CURVE SMOOTH",
"31 20 OFFCURVE",
"79 -23 OFFCURVE",
"157 -23 CURVE SMOOTH",
"258 -23 OFFCURVE",
"372 13 OFFCURVE",
"510 413 CURVE",
"512 413 LINE",
"657 44 OFFCURVE",
"699 -23 OFFCURVE",
"834 -23 CURVE SMOOTH",
"971 -23 OFFCURVE",
"1020 118 OFFCURVE",
"1039 257 CURVE",
"981 264 LINE",
"961 155 OFFCURVE",
"926 102 OFFCURVE",
"877 102 CURVE SMOOTH",
"809 102 OFFCURVE",
"742 227 OFFCURVE",
"633 506 CURVE SMOOTH",
"619 542 LINE",
"736 831 OFFCURVE",
"820 912 OFFCURVE",
"877 920 CURVE",
"889 902 OFFCURVE",
"910 859 OFFCURVE",
"971 859 CURVE SMOOTH",
"1018 859 OFFCURVE",
"1055 900 OFFCURVE",
"1055 947 CURVE SMOOTH",
"1055 1004 OFFCURVE",
"1016 1047 OFFCURVE",
"944 1047 CURVE SMOOTH"
);
}
);
width = 1116;
},
{
layerId = "6B2A2AD0-3CEC-4B3D-96BE-6A11A3496094";
name = "Bold Italic";
paths = (
{
closed = 1;
nodes = (
"814 1047 OFFCURVE",
"714 1021 OFFCURVE",
"600 729 CURVE",
"579 805 OFFCURVE",
"571 827 OFFCURVE",
"556 868 CURVE SMOOTH",
"517 975 OFFCURVE",
"466 1047 OFFCURVE",
"354 1047 CURVE SMOOTH",
"135 1047 OFFCURVE",
"66 837 OFFCURVE",
"53 718 CURVE",
"168 703 LINE",
"183 826 OFFCURVE",
"221 858 OFFCURVE",
"257 857 CURVE",
"283 855 OFFCURVE",
"301 844 OFFCURVE",
"327 787 CURVE SMOOTH",
"363 707 OFFCURVE",
"383 629 OFFCURVE",
"426 515 CURVE",
"356 312 OFFCURVE",
"317 214 OFFCURVE",
"277 187 CURVE",
"264 223 OFFCURVE",
"228 262 OFFCURVE",
"161 262 CURVE SMOOTH",
"93 262 OFFCURVE",
"33 202 OFFCURVE",
"33 119 CURVE SMOOTH",
"33 35 OFFCURVE",
"97 -23 OFFCURVE",
"196 -23 CURVE SMOOTH",
"290 -23 OFFCURVE",
"382 22 OFFCURVE",
"486 330 CURVE",
"488 330 LINE",
"552 177 LINE SMOOTH",
"595 74 OFFCURVE",
"661 -23 OFFCURVE",
"784 -23 CURVE SMOOTH",
"1003 -23 OFFCURVE",
"1055 187 OFFCURVE",
"1068 306 CURVE",
"953 321 LINE",
"938 194 OFFCURVE",
"912 167 OFFCURVE",
"875 167 CURVE SMOOTH",
"852 167 OFFCURVE",
"830 184 OFFCURVE",
"796 245 CURVE SMOOTH",
"753 323 OFFCURVE",
"698 455 OFFCURVE",
"659 561 CURVE",
"731 735 OFFCURVE",
"764 793 OFFCURVE",
"800 821 CURVE",
"820 798 OFFCURVE",
"850 778 OFFCURVE",
"900 778 CURVE SMOOTH",
"970 778 OFFCURVE",
"1029 839 OFFCURVE",
"1029 908 CURVE SMOOTH",
"1029 987 OFFCURVE",
"983 1047 OFFCURVE",
"885 1047 CURVE SMOOTH"
);
}
);
width = 1113;
}
);
unicode = 0078;
},
{
glyphname = y;
lastChange = "2013-05-24 22:55:06 +0000";
layers = (
{
anchors = (
{
name = top;
position = "{526, 1048}";
}
);
layerId = UUID0;
name = "Regular Italic";
paths = (
{
closed = 1;
nodes = (
"741 1047 OFFCURVE",
"695 1015 OFFCURVE",
"695 957 CURVE SMOOTH",
"695 914 OFFCURVE",
"728 876 OFFCURVE",
"777 876 CURVE SMOOTH",
"797 876 OFFCURVE",
"815 881 OFFCURVE",
"827 889 CURVE",
"843 866 OFFCURVE",
"858 811 OFFCURVE",
"858 744 CURVE SMOOTH",
"858 520 OFFCURVE",
"739 240 OFFCURVE",
"624 39 CURVE",
"620 39 LINE",
"611 125 OFFCURVE",
"604 182 OFFCURVE",
"589 248 CURVE SMOOTH",
"546 438 OFFCURVE",
"499 650 OFFCURVE",
"438 816 CURVE SMOOTH",
"401 915 OFFCURVE",
"344 1047 OFFCURVE",
"206 1047 CURVE SMOOTH",
"38 1047 OFFCURVE",
"6 839 OFFCURVE",
"20 693 CURVE",
"86 700 LINE",
"73 826 OFFCURVE",
"104 907 OFFCURVE",
"155 914 CURVE SMOOTH",
"208 920 OFFCURVE",
"235 855 OFFCURVE",
"256 808 CURVE SMOOTH",
"370 532 OFFCURVE",
"458 163 OFFCURVE",
"505 -153 CURVE",
"462 -228 OFFCURVE",
"312 -459 OFFCURVE",
"193 -452 CURVE SMOOTH",
"177 -452 OFFCURVE",
"163 -447 OFFCURVE",
"147 -439 CURVE",
"150 -371 OFFCURVE",
"117 -332 OFFCURVE",
"60 -332 CURVE SMOOTH",
"23 -332 OFFCURVE",
"-25 -365 OFFCURVE",
"-25 -426 CURVE SMOOTH",
"-25 -498 OFFCURVE",
"37 -550 OFFCURVE",
"131 -555 CURVE SMOOTH",
"303 -561 OFFCURVE",
"477 -406 OFFCURVE",
"682 -35 CURVE SMOOTH",
"821 219 OFFCURVE",
"954 512 OFFCURVE",
"954 785 CURVE SMOOTH",
"954 914 OFFCURVE",
"915 1047 OFFCURVE",
"790 1047 CURVE SMOOTH"
);
}
);
width = 1053;
},
{
anchors = (
{
name = top;
position = "{574, 1024}";
}
);
layerId = "6B2A2AD0-3CEC-4B3D-96BE-6A11A3496094";
name = "Bold Italic";
paths = (
{
closed = 1;
nodes = (
"788 1047 OFFCURVE",
"715 1002 OFFCURVE",
"715 907 CURVE SMOOTH",
"715 834 OFFCURVE",
"784 774 OFFCURVE",
"868 791 CURVE",
"898 757 OFFCURVE",
"895 677 OFFCURVE",
"893 648 CURVE SMOOTH",
"883 510 OFFCURVE",
"837 337 OFFCURVE",
"754 150 CURVE",
"752 150 LINE",
"707 414 OFFCURVE",
"600 694 OFFCURVE",
"542 833 CURVE SMOOTH",
"499 936 OFFCURVE",
"425 1047 OFFCURVE",
"291 1047 CURVE SMOOTH",
"72 1047 OFFCURVE",
"-2 837 OFFCURVE",
"-15 718 CURVE",
"100 703 LINE",
"115 830 OFFCURVE",
"155 857 OFFCURVE",
"192 857 CURVE SMOOTH",
"237 857 OFFCURVE",
"269 788 OFFCURVE",
"288 745 CURVE SMOOTH",
"394 505 OFFCURVE",
"541 137 OFFCURVE",
"582 -124 CURVE",
"545 -206 OFFCURVE",
"409 -391 OFFCURVE",
"314 -363 CURVE",
"304 -293 OFFCURVE",
"260 -252 OFFCURVE",
"189 -252 CURVE SMOOTH",
"125 -252 OFFCURVE",
"58 -308 OFFCURVE",
"58 -396 CURVE SMOOTH",
"58 -489 OFFCURVE",
"126 -555 OFFCURVE",
"251 -555 CURVE SMOOTH",
"658 -555 OFFCURVE",
"1064 382 OFFCURVE",
"1064 759 CURVE SMOOTH",
"1064 899 OFFCURVE",
"1008 1047 OFFCURVE",
"857 1047 CURVE SMOOTH"
);
}
);
width = 1148;
}
);
unicode = 0079;
},
{
glyphname = z;
lastChange = "2013-05-24 22:55:06 +0000";
layers = (
{
anchors = (
{
name = top;
position = "{534, 1048}";
}
);
layerId = UUID0;
name = "Regular Italic";
paths = (
{
closed = 1;
nodes = (
"752 990 OFFCURVE",
"672 982 OFFCURVE",
"637 982 CURVE SMOOTH",
"514 982 OFFCURVE",
"448 1047 OFFCURVE",
"325 1047 CURVE SMOOTH",
"207 1047 OFFCURVE",
"104 958 OFFCURVE",
"104 827 CURVE SMOOTH",
"104 780 OFFCURVE",
"116 733 OFFCURVE",
"131 692 CURVE",
"186 710 LINE",
"176 739 OFFCURVE",
"172 766 OFFCURVE",
"172 788 CURVE SMOOTH",
"172 885 OFFCURVE",
"237 908 OFFCURVE",
"284 908 CURVE SMOOTH",
"375 908 OFFCURVE",
"439 857 OFFCURVE",
"526 849 CURVE SMOOTH",
"580 844 OFFCURVE",
"647 856 OFFCURVE",
"719 932 CURVE",
"723 932 LINE",
"627 816 OFFCURVE",
"548 720 OFFCURVE",
"436 573 CURVE SMOOTH",
"305 401 OFFCURVE",
"139 179 OFFCURVE",
"37 28 CURVE",
"102 -23 LINE",
"170 40 OFFCURVE",
"229 51 OFFCURVE",
"289 51 CURVE SMOOTH",
"409 51 OFFCURVE",
"529 -23 OFFCURVE",
"652 -23 CURVE SMOOTH",
"771 -23 OFFCURVE",
"866 65 OFFCURVE",
"866 196 CURVE SMOOTH",
"866 243 OFFCURVE",
"856 290 OFFCURVE",
"841 331 CURVE",
"786 313 LINE",
"796 284 OFFCURVE",
"801 257 OFFCURVE",
"801 235 CURVE SMOOTH",
"801 139 OFFCURVE",
"735 124 OFFCURVE",
"688 124 CURVE SMOOTH",
"598 124 OFFCURVE",
"505 193 OFFCURVE",
"405 193 CURVE SMOOTH",
"305 193 OFFCURVE",
"234 159 OFFCURVE",
"171 87 CURVE",
"167 87 LINE",
"266 220 OFFCURVE",
"351 325 OFFCURVE",
"471 481 CURVE SMOOTH",
"641 702 OFFCURVE",
"821 913 OFFCURVE",
"882 991 CURVE",
"821 1048 LINE"
);
}
);
width = 965;
},
{
anchors = (
{
name = top;
position = "{528, 1024}";
}
);
layerId = "6B2A2AD0-3CEC-4B3D-96BE-6A11A3496094";
name = "Bold Italic";
paths = (
{
closed = 1;
nodes = (
"796 990 OFFCURVE",
"730 986 OFFCURVE",
"698 986 CURVE SMOOTH",
"582 986 OFFCURVE",
"442 1047 OFFCURVE",
"328 1047 CURVE SMOOTH",
"159 1047 OFFCURVE",
"76 903 OFFCURVE",
"76 757 CURVE SMOOTH",
"76 695 OFFCURVE",
"84 641 OFFCURVE",
"100 598 CURVE",
"203 633 LINE",
"173 716 OFFCURVE",
"196 806 OFFCURVE",
"275 806 CURVE SMOOTH",
"352 806 OFFCURVE",
"411 756 OFFCURVE",
"497 756 CURVE SMOOTH",
"561 756 OFFCURVE",
"633 776 OFFCURVE",
"741 866 CURVE",
"743 866 LINE",
"636 765 OFFCURVE",
"572 722 OFFCURVE",
"437 565 CURVE SMOOTH",
"310 417 OFFCURVE",
"128 195 OFFCURVE",
"36 59 CURVE",
"124 -23 LINE",
"191 34 OFFCURVE",
"247 38 OFFCURVE",
"279 38 CURVE SMOOTH",
"395 38 OFFCURVE",
"555 -23 OFFCURVE",
"669 -23 CURVE SMOOTH",
"838 -23 OFFCURVE",
"921 121 OFFCURVE",
"921 267 CURVE SMOOTH",
"921 329 OFFCURVE",
"908 379 OFFCURVE",
"892 422 CURVE",
"788 387 LINE",
"823 304 OFFCURVE",
"802 214 OFFCURVE",
"722 214 CURVE SMOOTH",
"645 214 OFFCURVE",
"591 264 OFFCURVE",
"490 264 CURVE SMOOTH",
"426 264 OFFCURVE",
"347 249 OFFCURVE",
"233 160 CURVE",
"231 160 LINE",
"335 245 OFFCURVE",
"470 353 OFFCURVE",
"646 573 CURVE",
"950 965 LINE",
"863 1047 LINE"
);
}
);
width = 1006;
}
);
unicode = 007A;
},
{
glyphname = fi;
lastChange = "2013-05-24 22:55:06 +0000";
layers = (
{
layerId = UUID0;
name = "Regular Italic";
paths = (
{
closed = 1;
nodes = (
"410 1548 OFFCURVE",
"287 1325 OFFCURVE",
"244 1059 CURVE SMOOTH",
"238 1024 LINE",
"60 1024 LINE",
"50 936 LINE",
"228 938 LINE",
"192 627 OFFCURVE",
"179 159 OFFCURVE",
"142 -141 CURVE SMOOTH",
"118 -340 OFFCURVE",
"74 -475 OFFCURVE",
"-30 -475 CURVE SMOOTH",
"-55 -475 OFFCURVE",
"-78 -470 OFFCURVE",
"-93 -459 CURVE",
"-93 -404 OFFCURVE",
"-123 -366 OFFCURVE",
"-173 -365 CURVE SMOOTH",
"-234 -363 OFFCURVE",
"-256 -418 OFFCURVE",
"-256 -449 CURVE SMOOTH",
"-256 -518 OFFCURVE",
"-201 -555 OFFCURVE",
"-96 -555 CURVE SMOOTH",
"238 -555 OFFCURVE",
"312 -166 OFFCURVE",
"340 225 CURVE SMOOTH",
"390 940 LINE",
"680 944 LINE",
"686 1024 LINE",
"396 1024 LINE",
"398 1049 LINE SMOOTH",
"426 1460 OFFCURVE",
"580 1489 OFFCURVE",
"691 1493 CURVE SMOOTH",
"789 1497 OFFCURVE",
"891 1446 OFFCURVE",
"908 1376 CURVE",
"897 1350 OFFCURVE",
"892 1323 OFFCURVE",
"895 1300 CURVE SMOOTH",
"900 1264 OFFCURVE",
"928 1230 OFFCURVE",
"977 1226 CURVE SMOOTH",
"1024 1222 OFFCURVE",
"1071 1257 OFFCURVE",
"1074 1319 CURVE SMOOTH",
"1079 1440 OFFCURVE",
"917 1555 OFFCURVE",
"721 1556 CURVE"
);
},
{
closed = 1;
nodes = (
"764 1047 OFFCURVE",
"689 854 OFFCURVE",
"670 758 CURVE",
"727 746 LINE",
"768 891 OFFCURVE",
"832 944 OFFCURVE",
"877 944 CURVE SMOOTH",
"924 944 OFFCURVE",
"934 887 OFFCURVE",
"934 852 CURVE SMOOTH",
"934 619 OFFCURVE",
"854 407 OFFCURVE",
"854 170 CURVE SMOOTH",
"854 43 OFFCURVE",
"914 -23 OFFCURVE",
"1039 -23 CURVE SMOOTH",
"1192 -23 OFFCURVE",
"1268 151 OFFCURVE",
"1293 266 CURVE",
"1235 278 LINE",
"1194 133 OFFCURVE",
"1131 80 OFFCURVE",
"1086 80 CURVE SMOOTH",
"1041 80 OFFCURVE",
"1022 110 OFFCURVE",
"1022 166 CURVE SMOOTH",
"1022 395 OFFCURVE",
"1100 670 OFFCURVE",
"1100 834 CURVE SMOOTH",
"1100 961 OFFCURVE",
"1043 1047 OFFCURVE",
"928 1047 CURVE SMOOTH"
);
}
);
width = 1317;
},
{
layerId = "6B2A2AD0-3CEC-4B3D-96BE-6A11A3496094";
name = "Bold Italic";
paths = (
{
closed = 1;
nodes = (
"461 1556 OFFCURVE",
"277 1381 OFFCURVE",
"232 1024 CURVE",
"67 1024 LINE",
"49 875 LINE",
"87 875 OFFCURVE",
"157 876 OFFCURVE",
"212 877 CURVE",
"195 649 OFFCURVE",
"165 210 OFFCURVE",
"145 -23 CURVE SMOOTH",
"132 -182 OFFCURVE",
"111 -410 OFFCURVE",
"18 -410 CURVE SMOOTH",
"7 -410 OFFCURVE",
"-3 -408 OFFCURVE",
"-8 -405 CURVE",
"-7 -398 OFFCURVE",
"-7 -392 OFFCURVE",
"-7 -386 CURVE SMOOTH",
"-7 -322 OFFCURVE",
"-56 -279 OFFCURVE",
"-113 -279 CURVE SMOOTH",
"-202 -279 OFFCURVE",
"-236 -361 OFFCURVE",
"-236 -407 CURVE SMOOTH",
"-236 -497 OFFCURVE",
"-165 -555 OFFCURVE",
"-41 -555 CURVE SMOOTH",
"238 -555 OFFCURVE",
"366 -339 OFFCURVE",
"403 -23 CURVE SMOOTH",
"430 208 OFFCURVE",
"462 645 OFFCURVE",
"477 879 CURVE",
"686 883 LINE",
"699 1024 LINE",
"486 1024 LINE",
"495 1106 LINE SMOOTH",
"517 1310 OFFCURVE",
"597 1421 OFFCURVE",
"778 1421 CURVE SMOOTH",
"876 1421 OFFCURVE",
"918 1394 OFFCURVE",
"961 1347 CURVE",
"954 1328 OFFCURVE",
"951 1300 OFFCURVE",
"951 1283 CURVE SMOOTH",
"951 1211 OFFCURVE",
"1007 1161 OFFCURVE",
"1077 1161 CURVE SMOOTH",
"1175 1161 OFFCURVE",
"1205 1248 OFFCURVE",
"1205 1297 CURVE SMOOTH",
"1205 1492 OFFCURVE",
"933 1556 OFFCURVE",
"783 1556 CURVE SMOOTH"
);
},
{
closed = 1;
nodes = (
"831 1047 OFFCURVE",
"723 844 OFFCURVE",
"700 727 CURVE",
"811 694 LINE",
"846 817 OFFCURVE",
"879 857 OFFCURVE",
"910 857 CURVE SMOOTH",
"925 857 OFFCURVE",
"941 848 OFFCURVE",
"941 803 CURVE SMOOTH",
"941 674 OFFCURVE",
"875 369 OFFCURVE",
"875 208 CURVE SMOOTH",
"875 63 OFFCURVE",
"920 -23 OFFCURVE",
"1071 -23 CURVE SMOOTH",
"1256 -23 OFFCURVE",
"1359 180 OFFCURVE",
"1382 297 CURVE",
"1271 330 LINE",
"1236 207 OFFCURVE",
"1203 167 OFFCURVE",
"1172 167 CURVE SMOOTH",
"1157 167 OFFCURVE",
"1141 176 OFFCURVE",
"1141 221 CURVE SMOOTH",
"1141 312 OFFCURVE",
"1205 675 OFFCURVE",
"1205 809 CURVE SMOOTH",
"1205 954 OFFCURVE",
"1157 1047 OFFCURVE",
"1016 1047 CURVE SMOOTH"
);
}
);
width = 1399;
}
);
unicode = FB01;
},
{
glyphname = fl;
lastChange = "2013-05-24 22:55:06 +0000";
layers = (
{
layerId = UUID0;
name = "Regular Italic";
paths = (
{
closed = 1;
nodes = (
"410 1556 OFFCURVE",
"287 1325 OFFCURVE",
"244 1059 CURVE SMOOTH",
"238 1024 LINE",
"60 1024 LINE",
"50 936 LINE",
"227 938 LINE",
"191 627 OFFCURVE",
"178 159 OFFCURVE",
"142 -141 CURVE",
"117 -340 OFFCURVE",
"74 -475 OFFCURVE",
"-30 -475 CURVE SMOOTH",
"-55 -475 OFFCURVE",
"-78 -470 OFFCURVE",
"-93 -459 CURVE",
"-93 -404 OFFCURVE",
"-123 -366 OFFCURVE",
"-173 -365 CURVE SMOOTH",
"-234 -363 OFFCURVE",
"-256 -418 OFFCURVE",
"-256 -449 CURVE SMOOTH",
"-256 -518 OFFCURVE",
"-201 -555 OFFCURVE",
"-96 -555 CURVE SMOOTH",
"248 -555 OFFCURVE",
"314 -166 OFFCURVE",
"340 225 CURVE",
"390 940 LINE",
"680 944 LINE",
"686 1024 LINE",
"396 1024 LINE",
"398 1049 LINE SMOOTH",
"426 1460 OFFCURVE",
"580 1493 OFFCURVE",
"691 1491 CURVE SMOOTH",
"783 1489 OFFCURVE",
"885 1442 OFFCURVE",
"924 1405 CURVE",
"873 1038 OFFCURVE",
"795 325 OFFCURVE",
"799 144 CURVE SMOOTH",
"801 34 OFFCURVE",
"852 -23 OFFCURVE",
"963 -23 CURVE SMOOTH",
"1127 -23 OFFCURVE",
"1211 169 OFFCURVE",
"1229 265 CURVE",
"1170 278 LINE",
"1129 132 OFFCURVE",
"1067 79 OFFCURVE",
"1022 79 CURVE SMOOTH",
"969 79 OFFCURVE",
"965 134 OFFCURVE",
"965 187 CURVE SMOOTH",
"965 384 OFFCURVE",
"1020 909 OFFCURVE",
"1057 1198 CURVE SMOOTH",
"1069 1290 OFFCURVE",
"1096 1444 OFFCURVE",
"1112 1546 CURVE",
"1053 1546 LINE",
"951 1483 OFFCURVE",
"846 1556 OFFCURVE",
"701 1556 CURVE SMOOTH"
);
}
);
width = 1251;
},
{
layerId = "6B2A2AD0-3CEC-4B3D-96BE-6A11A3496094";
name = "Bold Italic";
paths = (
{
closed = 1;
nodes = (
"428 1556 OFFCURVE",
"276 1376 OFFCURVE",
"232 1024 CURVE",
"67 1024 LINE",
"49 875 LINE",
"87 875 OFFCURVE",
"157 876 OFFCURVE",
"212 877 CURVE",
"195 649 OFFCURVE",
"165 210 OFFCURVE",
"145 -23 CURVE SMOOTH",
"132 -182 OFFCURVE",
"111 -410 OFFCURVE",
"18 -410 CURVE SMOOTH",
"7 -410 OFFCURVE",
"-3 -408 OFFCURVE",
"-8 -405 CURVE",
"-7 -398 OFFCURVE",
"-7 -392 OFFCURVE",
"-7 -386 CURVE SMOOTH",
"-7 -322 OFFCURVE",
"-56 -279 OFFCURVE",
"-113 -279 CURVE SMOOTH",
"-202 -279 OFFCURVE",
"-236 -361 OFFCURVE",
"-236 -407 CURVE SMOOTH",
"-236 -497 OFFCURVE",
"-165 -555 OFFCURVE",
"-41 -555 CURVE SMOOTH",
"238 -555 OFFCURVE",
"366 -339 OFFCURVE",
"403 -23 CURVE SMOOTH",
"430 208 OFFCURVE",
"462 645 OFFCURVE",
"477 879 CURVE",
"686 883 LINE",
"699 1024 LINE",
"486 1024 LINE",
"495 1106 LINE SMOOTH",
"517 1310 OFFCURVE",
"585 1421 OFFCURVE",
"744 1421 CURVE SMOOTH",
"804 1421 OFFCURVE",
"880 1401 OFFCURVE",
"941 1355 CURVE",
"933 1294 OFFCURVE",
"920 1197 OFFCURVE",
"914 1144 CURVE SMOOTH",
"875 797 OFFCURVE",
"828 422 OFFCURVE",
"828 175 CURVE SMOOTH",
"828 30 OFFCURVE",
"914 -23 OFFCURVE",
"1013 -23 CURVE SMOOTH",
"1210 -23 OFFCURVE",
"1294 159 OFFCURVE",
"1328 297 CURVE",
"1217 330 LINE",
"1182 207 OFFCURVE",
"1149 167 OFFCURVE",
"1118 167 CURVE SMOOTH",
"1103 167 OFFCURVE",
"1088 178 OFFCURVE",
"1088 227 CURVE SMOOTH",
"1088 351 OFFCURVE",
"1119 611 OFFCURVE",
"1226 1546 CURVE",
"1115 1546 LINE",
"1035 1462 OFFCURVE",
"909 1556 OFFCURVE",
"740 1556 CURVE SMOOTH"
);
}
);
width = 1348;
}
);
unicode = FB02;
},
{
glyphname = ordfeminine;
lastChange = "2013-05-24 22:55:06 +0000";
layers = (
{
layerId = UUID0;
name = "Regular Italic";
paths = (
{
closed = 1;
nodes = (
"247 1467 OFFCURVE",
"131 1248 OFFCURVE",
"131 1004 CURVE SMOOTH",
"131 841 OFFCURVE",
"192 779 OFFCURVE",
"286 779 CURVE SMOOTH",
"358 779 OFFCURVE",
"458 814 OFFCURVE",
"540 1070 CURVE",
"544 1070 LINE",
"530 1004 OFFCURVE",
"520 945 OFFCURVE",
"520 896 CURVE SMOOTH",
"520 824 OFFCURVE",
"544 779 OFFCURVE",
"614 779 CURVE SMOOTH",
"718 779 OFFCURVE",
"755 877 OFFCURVE",
"774 951 CURVE",
"729 961 LINE",
"702 869 OFFCURVE",
"675 855 OFFCURVE",
"651 855 CURVE SMOOTH",
"628 855 OFFCURVE",
"628 886 OFFCURVE",
"628 923 CURVE SMOOTH",
"628 1007 OFFCURVE",
"659 1238 OFFCURVE",
"686 1445 CURVE",
"630 1459 OFFCURVE",
"553 1467 OFFCURVE",
"501 1467 CURVE SMOOTH"
);
},
{
closed = 1;
nodes = (
"501 1412 OFFCURVE",
"538 1402 OFFCURVE",
"559 1392 CURVE",
"551 1160 OFFCURVE",
"424 847 OFFCURVE",
"315 861 CURVE SMOOTH",
"272 867 OFFCURVE",
"245 916 OFFCURVE",
"245 1027 CURVE SMOOTH",
"245 1220 OFFCURVE",
"303 1402 OFFCURVE",
"460 1410 CURVE SMOOTH"
);
}
);
width = 823;
},
{
layerId = "6B2A2AD0-3CEC-4B3D-96BE-6A11A3496094";
name = "Bold Italic";
paths = (
{
closed = 1;
nodes = (
"244 1467 OFFCURVE",
"97 1269 OFFCURVE",
"97 993 CURVE SMOOTH",
"97 829 OFFCURVE",
"192 751 OFFCURVE",
"287 751 CURVE SMOOTH",
"368 751 OFFCURVE",
"439 796 OFFCURVE",
"504 949 CURVE",
"505 949 LINE",
"501 927 OFFCURVE",
"498 895 OFFCURVE",
"498 872 CURVE SMOOTH",
"498 783 OFFCURVE",
"540 751 OFFCURVE",
"617 751 CURVE SMOOTH",
"741 751 OFFCURVE",
"800 883 OFFCURVE",
"815 958 CURVE",
"747 978 LINE",
"725 899 OFFCURVE",
"696 874 OFFCURVE",
"676 874 CURVE SMOOTH",
"666 874 OFFCURVE",
"656 882 OFFCURVE",
"656 913 CURVE SMOOTH",
"656 1003 OFFCURVE",
"703 1306 OFFCURVE",
"722 1439 CURVE",
"650 1457 OFFCURVE",
"547 1467 OFFCURVE",
"497 1467 CURVE SMOOTH"
);
},
{
closed = 1;
nodes = (
"469 1365 OFFCURVE",
"502 1360 OFFCURVE",
"513 1356 CURVE",
"502 1163 OFFCURVE",
"430 895 OFFCURVE",
"356 895 CURVE SMOOTH",
"321 895 OFFCURVE",
"304 940 OFFCURVE",
"306 1011 CURVE SMOOTH",
"315 1275 OFFCURVE",
"374 1359 OFFCURVE",
"448 1364 CURVE SMOOTH"
);
}
);
width = 831;
}
);
unicode = 00AA;
},
{
glyphname = ordmasculine;
lastChange = "2013-05-24 22:55:06 +0000";
layers = (
{
layerId = UUID0;
name = "Regular Italic";
paths = (
{
closed = 1;
nodes = (
"243 1467 OFFCURVE",
"125 1281 OFFCURVE",
"125 1072 CURVE SMOOTH",
"125 910 OFFCURVE",
"200 769 OFFCURVE",
"370 769 CURVE SMOOTH",
"571 769 OFFCURVE",
"686 966 OFFCURVE",
"686 1173 CURVE SMOOTH",
"686 1355 OFFCURVE",
"581 1467 OFFCURVE",
"442 1467 CURVE SMOOTH"
);
},
{
closed = 1;
nodes = (
"540 1406 OFFCURVE",
"565 1254 OFFCURVE",
"563 1134 CURVE SMOOTH",
"559 1009 OFFCURVE",
"514 833 OFFCURVE",
"387 833 CURVE SMOOTH",
"272 833 OFFCURVE",
"246 994 OFFCURVE",
"248 1113 CURVE SMOOTH",
"252 1279 OFFCURVE",
"317 1406 OFFCURVE",
"424 1406 CURVE SMOOTH"
);
}
);
width = 741;
},
{
layerId = "6B2A2AD0-3CEC-4B3D-96BE-6A11A3496094";
name = "Bold Italic";
paths = (
{
closed = 1;
nodes = (
"233 1467 OFFCURVE",
"97 1280 OFFCURVE",
"97 1065 CURVE SMOOTH",
"97 892 OFFCURVE",
"191 746 OFFCURVE",
"379 746 CURVE SMOOTH",
"592 746 OFFCURVE",
"726 944 OFFCURVE",
"726 1156 CURVE SMOOTH",
"726 1351 OFFCURVE",
"598 1467 OFFCURVE",
"444 1467 CURVE SMOOTH"
);
},
{
closed = 1;
nodes = (
"488 1363 OFFCURVE",
"510 1275 OFFCURVE",
"510 1126 CURVE SMOOTH",
"510 979 OFFCURVE",
"472 854 OFFCURVE",
"395 854 CURVE SMOOTH",
"335 854 OFFCURVE",
"312 946 OFFCURVE",
"312 1085 CURVE SMOOTH",
"312 1250 OFFCURVE",
"358 1363 OFFCURVE",
"428 1363 CURVE SMOOTH"
);
}
);
width = 754;
}
);
unicode = 00BA;
},
{
glyphname = "Be-cy";
lastChange = "2013-05-30 21:50:55 +0000";
layers = (
{
background = {
paths = (
{
closed = 1;
nodes = (
"455 1131 LINE",
"462 1274 OFFCURVE",
"464 1354 OFFCURVE",
"605 1358 CURVE SMOOTH",
"754 1362 LINE SMOOTH",
"908 1366 OFFCURVE",
"1035 1317 OFFCURVE",
"1023 1075 CURVE",
"1090 1075 LINE",
"1098 1434 LINE",
"156 1434 LINE",
"152 1343 LINE",
"302 1352 LINE",
"295 1311 OFFCURVE",
"289 1260 OFFCURVE",
"287 1204 CURVE"
);
}
);
};
layerId = UUID0;
name = "Regular Italic";
paths = (
{
closed = 1;
nodes = (
"437 814 LINE",
"455 1131 LINE SMOOTH",
"463 1274 OFFCURVE",
"464 1355 OFFCURVE",
"605 1358 CURVE SMOOTH",
"784 1362 LINE SMOOTH",
"938 1365 OFFCURVE",
"1065 1317 OFFCURVE",
"1053 1075 CURVE",
"1120 1075 LINE",
"1128 1434 LINE",
"156 1434 LINE",
"152 1343 LINE",
"302 1352 LINE",
"295 1311 OFFCURVE",
"289 1260 OFFCURVE",
"287 1204 CURVE SMOOTH",
"242 330 LINE SMOOTH",
"234 176 OFFCURVE",
"240 72 OFFCURVE",
"87 68 CURVE",
"82 0 LINE",
"674 0 LINE SMOOTH",
"951 0 OFFCURVE",
"1172 140 OFFCURVE",
"1172 435 CURVE SMOOTH",
"1172 687 OFFCURVE",
"1016 828 OFFCURVE",
"608 818 CURVE SMOOTH"
);
},
{
closed = 1;
nodes = (
"433 735 LINE",
"498 739 OFFCURVE",
"562 741 OFFCURVE",
"644 741 CURVE SMOOTH",
"830 741 OFFCURVE",
"992 661 OFFCURVE",
"981 414 CURVE SMOOTH",
"970 184 OFFCURVE",
"822 80 OFFCURVE",
"611 80 CURVE SMOOTH",
"584 80 OFFCURVE",
"457 78 OFFCURVE",
"394 84 CURVE",
"400 119 OFFCURVE",
"404 170 OFFCURVE",
"408 244 CURVE SMOOTH"
);
}
);
width = 1268;
},
{
background = {
paths = (
{
closed = 1;
nodes = (
"552 804 LINE",
"568 1121 LINE SMOOTH",
"577 1280 OFFCURVE",
"628 1298 OFFCURVE",
"715 1299 CURVE SMOOTH",
"849 1301 LINE SMOOTH",
"960 1303 OFFCURVE",
"1095 1259 OFFCURVE",
"1084 1037 CURVE",
"1219 1037 LINE",
"1228 1434 LINE",
"147 1434 LINE",
"138 1276 LINE",
"167 1277 OFFCURVE",
"248 1279 OFFCURVE",
"293 1282 CURVE",
"286 1247 OFFCURVE",
"279 1172 OFFCURVE",
"275 1098 CURVE SMOOTH",
"234 313 LINE SMOOTH",
"225 148 OFFCURVE",
"171 140 OFFCURVE",
"78 135 CURVE",
"71 0 LINE",
"764 0 LINE SMOOTH",
"1051 0 OFFCURVE",
"1270 141 OFFCURVE",
"1284 407 CURVE SMOOTH",
"1294 610 OFFCURVE",
"1211 822 OFFCURVE",
"675 807 CURVE SMOOTH"
);
},
{
closed = 1;
nodes = (
"544 659 LINE",
"597 662 OFFCURVE",
"642 661 OFFCURVE",
"710 661 CURVE SMOOTH",
"842 661 OFFCURVE",
"971 602 OFFCURVE",
"961 414 CURVE SMOOTH",
"953 262 OFFCURVE",
"876 156 OFFCURVE",
"709 148 CURVE SMOOTH",
"645 145 OFFCURVE",
"581 145 OFFCURVE",
"509 145 CURVE",
"516 180 OFFCURVE",
"523 252 OFFCURVE",
"527 326 CURVE SMOOTH"
);
}
);
};
layerId = "6B2A2AD0-3CEC-4B3D-96BE-6A11A3496094";
name = "Bold Italic";
paths = (
{
closed = 1;
nodes = (
"552 834 LINE",
"568 1121 LINE SMOOTH",
"577 1280 OFFCURVE",
"628 1298 OFFCURVE",
"715 1299 CURVE SMOOTH",
"849 1301 LINE SMOOTH",
"960 1303 OFFCURVE",
"1095 1259 OFFCURVE",
"1084 1037 CURVE",
"1219 1037 LINE",
"1228 1434 LINE",
"147 1434 LINE",
"138 1276 LINE",
"167 1277 OFFCURVE",
"248 1279 OFFCURVE",
"293 1282 CURVE",
"286 1247 OFFCURVE",
"279 1172 OFFCURVE",
"275 1098 CURVE SMOOTH",
"234 313 LINE SMOOTH",
"225 148 OFFCURVE",
"171 140 OFFCURVE",
"78 135 CURVE",
"71 0 LINE",
"764 0 LINE SMOOTH",
"1051 0 OFFCURVE",
"1273 140 OFFCURVE",
"1284 407 CURVE SMOOTH",
"1294 657 OFFCURVE",
"1183 849 OFFCURVE",
"675 837 CURVE SMOOTH"
);
},
{
closed = 1;
nodes = (
"544 689 LINE",
"597 692 OFFCURVE",
"642 692 OFFCURVE",
"710 691 CURVE SMOOTH",
"854 688 OFFCURVE",
"971 636 OFFCURVE",
"961 414 CURVE SMOOTH",
"953 240 OFFCURVE",
"876 156 OFFCURVE",
"709 148 CURVE SMOOTH",
"645 145 OFFCURVE",
"581 145 OFFCURVE",
"509 145 CURVE",
"516 180 OFFCURVE",
"523 252 OFFCURVE",
"527 326 CURVE SMOOTH"
);
}
);
width = 1349;
}
);
unicode = 0411;
},
{
glyphname = "Ge-cy";
lastChange = "2013-05-26 15:11:15 +0000";
layers = (
{
layerId = UUID0;
name = "Regular Italic";
paths = (
{
closed = 1;
nodes = (
"454 1131 LINE",
"461 1274 OFFCURVE",
"468 1354 OFFCURVE",
"609 1358 CURVE SMOOTH",
"758 1362 LINE SMOOTH",
"912 1366 OFFCURVE",
"1039 1317 OFFCURVE",
"1027 1075 CURVE",
"1094 1075 LINE",
"1102 1434 LINE",
"160 1434 LINE",
"156 1343 LINE",
"306 1352 LINE",
"299 1311 OFFCURVE",
"293 1260 OFFCURVE",
"291 1204 CURVE SMOOTH",
"242 319 LINE SMOOTH",
"236 174 OFFCURVE",
"242 74 OFFCURVE",
"89 68 CURVE",
"84 0 LINE",
"598 0 LINE",
"603 90 LINE",
"394 82 LINE",
"400 117 OFFCURVE",
"406 170 OFFCURVE",
"408 244 CURVE"
);
}
);
width = 1108;
},
{
layerId = "6B2A2AD0-3CEC-4B3D-96BE-6A11A3496094";
name = "Bold Italic";
paths = (
{
closed = 1;
nodes = (
"147 1434 LINE",
"139 1276 LINE",
"168 1277 OFFCURVE",
"249 1279 OFFCURVE",
"293 1282 CURVE",
"286 1247 OFFCURVE",
"279 1172 OFFCURVE",
"275 1098 CURVE SMOOTH",
"234 313 LINE SMOOTH",
"226 148 OFFCURVE",
"171 140 OFFCURVE",
"79 135 CURVE",
"72 0 LINE",
"683 0 LINE",
"691 158 LINE",
"662 157 OFFCURVE",
"553 155 OFFCURVE",
"509 152 CURVE",
"516 187 OFFCURVE",
"523 262 OFFCURVE",
"527 336 CURVE",
"568 1121 LINE",
"576 1280 OFFCURVE",
"628 1297 OFFCURVE",
"714 1299 CURVE SMOOTH",
"788 1301 LINE SMOOTH",
"899 1304 OFFCURVE",
"1035 1259 OFFCURVE",
"1023 1037 CURVE",
"1158 1037 LINE",
"1167 1434 LINE"
);
}
);
width = 1160;
}
);
unicode = 0413;
},
{
glyphname = "Gheupturn-cy";
lastChange = "2013-05-26 15:13:47 +0000";
layers = (
{
guideLines = (
{
angle = 87;
position = "{1110, 1523}";
},
{
angle = 87;
position = "{1048, 1626}";
}
);
layerId = UUID0;
name = "Regular Italic";
paths = (
{
closed = 1;
nodes = (
"1053 1718 LINE",
"1040 1476 OFFCURVE",
"915 1434 OFFCURVE",
"761 1434 CURVE SMOOTH",
"160 1434 LINE",
"156 1343 LINE",
"306 1352 LINE",
"299 1311 OFFCURVE",
"293 1260 OFFCURVE",
"291 1204 CURVE SMOOTH",
"242 319 LINE SMOOTH",
"236 174 OFFCURVE",
"242 74 OFFCURVE",
"89 68 CURVE",
"84 0 LINE",
"598 0 LINE",
"603 90 LINE",
"394 82 LINE",
"400 117 OFFCURVE",
"406 170 OFFCURVE",
"408 244 CURVE SMOOTH",
"454 1131 LINE SMOOTH",
"461 1274 OFFCURVE",
"468 1354 OFFCURVE",
"609 1358 CURVE SMOOTH",
"1101 1358 LINE",
"1120 1718 LINE"
);
}
);
width = 1108;
},
{
guideLines = (
{
angle = 87;
position = "{1172, 1523}";
},
{
angle = 87;
position = "{1049, 1523}";
}
);
layerId = "6B2A2AD0-3CEC-4B3D-96BE-6A11A3496094";
name = "Bold Italic";
paths = (
{
closed = 1;
nodes = (
"1058 1697 LINE",
"1047 1475 OFFCURVE",
"904 1434 OFFCURVE",
"793 1434 CURVE SMOOTH",
"147 1434 LINE",
"139 1276 LINE",
"168 1277 OFFCURVE",
"249 1279 OFFCURVE",
"293 1282 CURVE",
"286 1247 OFFCURVE",
"279 1172 OFFCURVE",
"275 1098 CURVE SMOOTH",
"234 313 LINE SMOOTH",
"226 148 OFFCURVE",
"171 140 OFFCURVE",
"79 135 CURVE",
"72 0 LINE",
"683 0 LINE",
"691 158 LINE",
"662 157 OFFCURVE",
"553 155 OFFCURVE",
"509 152 CURVE",
"516 187 OFFCURVE",
"523 262 OFFCURVE",
"527 336 CURVE SMOOTH",
"568 1121 LINE SMOOTH",
"576 1280 OFFCURVE",
"628 1297 OFFCURVE",
"714 1299 CURVE SMOOTH",
"1161 1299 LINE",
"1181 1697 LINE"
);
}
);
width = 1160;
}
);
unicode = 0490;
},
{
glyphname = "De-cy";
lastChange = "2013-05-30 21:56:04 +0000";
layers = (
{
background = {
paths = (
{
closed = 1;
nodes = (
"322 1434 LINE",
"317 1343 LINE",
"466 1352 LINE",
"1045 1353 LINE",
"991 319 LINE SMOOTH",
"983 174 OFFCURVE",
"990 81 OFFCURVE",
"836 81 CURVE",
"832 0 LINE",
"1293 0 LINE",
"1297 81 LINE",
"1150 81 LINE",
"1156 116 OFFCURVE",
"1161 170 OFFCURVE",
"1165 244 CURVE SMOOTH",
"1210 1114 LINE SMOOTH",
"1218 1260 OFFCURVE",
"1211 1360 OFFCURVE",
"1365 1366 CURVE",
"1368 1434 LINE"
);
},
{
closed = 1;
nodes = (
"31 81 LINE",
"8 -364 LINE",
"93 -364 LINE",
"105 -130 OFFCURVE",
"147 0 OFFCURVE",
"282 0 CURVE SMOOTH",
"1068 0 LINE SMOOTH",
"1203 0 OFFCURVE",
"1231 -130 OFFCURVE",
"1219 -364 CURVE",
"1304 -364 LINE",
"1327 81 LINE"
);
},
{
closed = 1;
nodes = (
"522 1434 LINE",
"482 906 OFFCURVE",
"449 435 OFFCURVE",
"288 200 CURVE SMOOTH",
"237 125 OFFCURVE",
"177 81 OFFCURVE",
"110 81 CURVE",
"152 0 LINE",
"226 0 OFFCURVE",
"293 51 OFFCURVE",
"351 138 CURVE SMOOTH",
"524 395 OFFCURVE",
"575 892 OFFCURVE",
"624 1434 CURVE"
);
},
{
closed = 1;
nodes = (
"550 1353 LINE",
"534 1290 LINE",
"606 1246 LINE",
"612 1310 OFFCURVE",
"653 1353 OFFCURVE",
"749 1353 CURVE"
);
}
);
};
layerId = UUID0;
name = "Regular Italic";
paths = (
{
closed = 1;
nodes = (
"1145 81 LINE",
"32 81 LINE",
"9 -364 LINE",
"94 -364 LINE",
"105 -130 OFFCURVE",
"148 0 OFFCURVE",
"283 0 CURVE SMOOTH",
"1060 0 LINE SMOOTH",
"1195 0 OFFCURVE",
"1222 -130 OFFCURVE",
"1211 -364 CURVE",
"1296 -364 LINE",
"1319 90 LINE"
);
},
{
closed = 1;
nodes = (
"990 319 LINE SMOOTH",
"982 173 OFFCURVE",
"971 87 OFFCURVE",
"837 81 CURVE",
"1142 81 LINE",
"1148 116 OFFCURVE",
"1154 170 OFFCURVE",
"1156 244 CURVE SMOOTH",
"1203 1134 LINE SMOOTH",
"1209 1280 OFFCURVE",
"1213 1360 OFFCURVE",
"1357 1366 CURVE",
"1361 1434 LINE",
"353 1434 LINE",
"349 1343 LINE",
"1052 1352 LINE",
"1045 1311 OFFCURVE",
"1039 1260 OFFCURVE",
"1037 1204 CURVE SMOOTH"
);
},
{
closed = 1;
nodes = (
"555 1434 LINE",
"488 819 OFFCURVE",
"424 437 OFFCURVE",
"291 216 CURVE SMOOTH",
"218 101 OFFCURVE",
"160 81 OFFCURVE",
"49 81 CURVE",
"111 0 LINE",
"222 0 OFFCURVE",
"316 64 OFFCURVE",
"389 184 CURVE SMOOTH",
"540 445 OFFCURVE",
"597 922 OFFCURVE",
"658 1434 CURVE"
);
},
{
closed = 1;
nodes = (
"562 1284 LINE",
"634 1240 LINE",
"643 1304 OFFCURVE",
"682 1347 OFFCURVE",
"777 1349 CURVE",
"578 1347 LINE"
);
}
);
width = 1408;
},
{
background = {
paths = (
{
closed = 1;
nodes = (
"1258 1121 LINE SMOOTH",
"1266 1286 OFFCURVE",
"1321 1294 OFFCURVE",
"1413 1299 CURVE",
"1420 1434 LINE",
"272 1434 LINE",
"264 1276 LINE",
"476 1282 LINE",
"470 1143 LINE SMOOTH",
"442 507 OFFCURVE",
"286 152 OFFCURVE",
"87 152 CURVE",
"192 17 LINE",
"368 96 OFFCURVE",
"578 422 OFFCURVE",
"625 1153 CURVE SMOOTH",
"631 1249 OFFCURVE",
"679 1272 OFFCURVE",
"770 1274 CURVE SMOOTH",
"970 1279 LINE",
"920 330 LINE SMOOTH",
"912 165 OFFCURVE",
"822 157 OFFCURVE",
"730 152 CURVE",
"722 0 LINE",
"1345 0 LINE",
"1353 158 LINE",
"1324 157 OFFCURVE",
"1243 155 OFFCURVE",
"1199 152 CURVE",
"1206 187 OFFCURVE",
"1213 262 OFFCURVE",
"1217 336 CURVE SMOOTH"
);
},
{
closed = 1;
nodes = (
"1195 152 LINE",
"25 152 LINE",
"-2 -364 LINE",
"146 -364 LINE",
"154 -150 OFFCURVE",
"193 0 OFFCURVE",
"300 0 CURVE SMOOTH",
"1124 0 LINE SMOOTH",
"1231 0 OFFCURVE",
"1254 -150 OFFCURVE",
"1240 -364 CURVE",
"1388 -364 LINE",
"1415 160 LINE"
);
}
);
};
layerId = "6B2A2AD0-3CEC-4B3D-96BE-6A11A3496094";
name = "Bold Italic";
paths = (
{
closed = 1;
nodes = (
"1249 1121 LINE SMOOTH",
"1257 1286 OFFCURVE",
"1312 1294 OFFCURVE",
"1404 1299 CURVE",
"1411 1434 LINE",
"272 1434 LINE",
"264 1276 LINE",
"484 1282 LINE",
"475 1143 LINE SMOOTH",
"436 543 OFFCURVE",
"307 152 OFFCURVE",
"88 152 CURVE",
"172 27 LINE",
"364 106 OFFCURVE",
"570 372 OFFCURVE",
"627 1153 CURVE SMOOTH",
"634 1249 OFFCURVE",
"680 1270 OFFCURVE",
"781 1273 CURVE SMOOTH",
"961 1279 LINE",
"911 330 LINE SMOOTH",
"903 165 OFFCURVE",
"848 157 OFFCURVE",
"756 152 CURVE",
"748 0 LINE",
"1336 0 LINE",
"1344 158 LINE",
"1315 157 OFFCURVE",
"1234 155 OFFCURVE",
"1190 152 CURVE",
"1197 187 OFFCURVE",
"1204 262 OFFCURVE",
"1208 336 CURVE SMOOTH"
);
},
{
closed = 1;
nodes = (
"1156 152 LINE",
"46 152 LINE",
"21 -324 LINE",
"169 -324 LINE",
"177 -110 OFFCURVE",
"214 0 OFFCURVE",
"321 0 CURVE SMOOTH",
"1083 0 LINE SMOOTH",
"1190 0 OFFCURVE",
"1215 -110 OFFCURVE",
"1201 -324 CURVE",
"1349 -324 LINE",
"1374 158 LINE"
);
}
);
width = 1458;
}
);
unicode = 0414;
},
{
color = 4;
glyphname = "Zhe-cy";
lastChange = "2013-05-30 21:56:58 +0000";
layers = (
{
background = {
paths = (
{
closed = 1;
nodes = (
"1485 596 LINE SMOOTH",
"1438 678 OFFCURVE",
"1398 723 OFFCURVE",
"1324 770 CURVE",
"1527 1090 LINE SMOOTH",
"1670 1318 OFFCURVE",
"1776 1352 OFFCURVE",
"1949 1366 CURVE",
"1953 1434 LINE",
"1513 1434 LINE",
"1508 1350 LINE",
"1633 1354 LINE",
"1574 1309 OFFCURVE",
"1513 1237 OFFCURVE",
"1478 1182 CURVE SMOOTH",
"1221 778 LINE",
"1068 778 LINE",
"1086 1114 LINE SMOOTH",
"1093 1260 OFFCURVE",
"1086 1360 OFFCURVE",
"1240 1366 CURVE",
"1244 1434 LINE",
"783 1434 LINE",
"778 1343 LINE",
"926 1352 LINE",
"919 1311 OFFCURVE",
"914 1260 OFFCURVE",
"912 1204 CURVE SMOOTH",
"889 778 LINE",
"736 778 LINE",
"521 1182 LINE SMOOTH",
"492 1237 OFFCURVE",
"439 1309 OFFCURVE",
"384 1354 CURVE",
"509 1350 LINE",
"514 1434 LINE",
"74 1434 LINE",
"70 1366 LINE",
"241 1352 OFFCURVE",
"343 1318 OFFCURVE",
"464 1090 CURVE SMOOTH",
"633 770 LINE",
"553 723 OFFCURVE",
"508 678 OFFCURVE",
"454 596 CURVE SMOOTH",
"260 305 LINE SMOOTH",
"128 106 OFFCURVE",
"54 68 OFFCURVE",
"-34 68 CURVE",
"-38 0 LINE",
"182 0 LINE SMOOTH",
"223 0 OFFCURVE",
"318 70 OFFCURVE",
"404 201 CURVE SMOOTH",
"622 532 LINE SMOOTH",
"664 595 OFFCURVE",
"698 649 OFFCURVE",
"763 698 CURVE",
"885 696 LINE",
"865 319 LINE SMOOTH",
"858 174 OFFCURVE",
"865 74 OFFCURVE",
"711 68 CURVE",
"707 0 LINE",
"1168 0 LINE",
"1173 90 LINE",
"1025 82 LINE",
"1032 117 OFFCURVE",
"1036 170 OFFCURVE",
"1040 244 CURVE SMOOTH",
"1064 696 LINE",
"1186 698 LINE",
"1245 649 OFFCURVE",
"1274 595 OFFCURVE",
"1309 532 CURVE SMOOTH",
"1497 201 LINE SMOOTH",
"1571 71 OFFCURVE",
"1662 0 OFFCURVE",
"1703 0 CURVE SMOOTH",
"1913 0 LINE",
"1917 68 LINE",
"1829 68 OFFCURVE",
"1760 106 OFFCURVE",
"1648 305 CURVE SMOOTH"
);
}
);
};
layerId = UUID0;
name = "Regular Italic";
paths = (
{
closed = 1;
nodes = (
"1509 1434 LINE",
"1504 1350 LINE",
"1629 1354 LINE",
"1570 1309 OFFCURVE",
"1509 1237 OFFCURVE",
"1474 1182 CURVE SMOOTH",
"1217 778 LINE",
"1064 778 LINE",
"1082 1114 LINE SMOOTH",
"1089 1260 OFFCURVE",
"1082 1360 OFFCURVE",
"1236 1366 CURVE",
"1240 1434 LINE",
"779 1434 LINE",
"774 1343 LINE",
"922 1352 LINE",
"915 1311 OFFCURVE",
"910 1260 OFFCURVE",
"908 1204 CURVE SMOOTH",
"861 319 LINE SMOOTH",
"854 174 OFFCURVE",
"861 74 OFFCURVE",
"707 68 CURVE",
"703 0 LINE",
"1164 0 LINE",
"1169 90 LINE",
"1021 82 LINE",
"1028 117 OFFCURVE",
"1032 170 OFFCURVE",
"1036 244 CURVE SMOOTH",
"1060 696 LINE",
"1182 698 LINE",
"1241 649 OFFCURVE",
"1270 595 OFFCURVE",
"1305 532 CURVE SMOOTH",
"1493 201 LINE SMOOTH",
"1567 71 OFFCURVE",
"1658 0 OFFCURVE",
"1699 0 CURVE SMOOTH",
"1909 0 LINE",
"1913 68 LINE",
"1825 68 OFFCURVE",
"1756 106 OFFCURVE",
"1644 305 CURVE SMOOTH",
"1481 596 LINE SMOOTH",
"1434 678 OFFCURVE",
"1394 723 OFFCURVE",
"1320 770 CURVE",
"1523 1090 LINE SMOOTH",
"1666 1318 OFFCURVE",
"1772 1352 OFFCURVE",
"1945 1366 CURVE",
"1949 1434 LINE"
);
},
{
closed = 1;
nodes = (
"71 1434 LINE",
"67 1366 LINE",
"238 1352 OFFCURVE",
"340 1318 OFFCURVE",
"461 1090 CURVE SMOOTH",
"630 770 LINE",
"550 723 OFFCURVE",
"505 678 OFFCURVE",
"451 596 CURVE SMOOTH",
"257 305 LINE SMOOTH",
"125 106 OFFCURVE",
"51 68 OFFCURVE",
"-37 68 CURVE",
"-41 0 LINE",
"179 0 LINE SMOOTH",
"220 0 OFFCURVE",
"315 70 OFFCURVE",
"401 201 CURVE SMOOTH",
"619 532 LINE SMOOTH",
"661 595 OFFCURVE",
"695 649 OFFCURVE",
"760 698 CURVE",
"882 696 LINE",
"886 778 LINE",
"733 778 LINE",
"518 1182 LINE SMOOTH",
"489 1237 OFFCURVE",
"436 1309 OFFCURVE",
"381 1354 CURVE",
"506 1350 LINE",
"511 1434 LINE"
);
}
);
width = 1923;
},
{
background = {
paths = (
{
closed = 1;
nodes = (
"1575 1434 LINE",
"1575 1276 LINE",
"1604 1277 OFFCURVE",
"1661 1281 OFFCURVE",
"1705 1284 CURVE",
"1705 1282 LINE",
"1669 1255 OFFCURVE",
"1631 1182 OFFCURVE",
"1558 1077 CURVE SMOOTH",
"1372 809 LINE",
"1222 809 LINE",
"1222 645 LINE",
"1297 646 LINE",
"1334 619 OFFCURVE",
"1379 554 OFFCURVE",
"1417 503 CURVE",
"1619 208 LINE SMOOTH",
"1674 128 OFFCURVE",
"1786 2 OFFCURVE",
"1819 0 CURVE",
"2135 0 LINE",
"2135 135 LINE",
"2043 140 OFFCURVE",
"1949 240 OFFCURVE",
"1866 357 CURVE SMOOTH",
"1655 654 LINE SMOOTH",
"1623 699 OFFCURVE",
"1581 739 OFFCURVE",
"1527 772 CURVE",
"1527 775 LINE",
"1753 1089 LINE SMOOTH",
"1879 1263 OFFCURVE",
"1978 1294 OFFCURVE",
"2070 1299 CURVE",
"2070 1434 LINE"
);
},
{
closed = 1;
nodes = (
"60 1299 LINE",
"152 1294 OFFCURVE",
"245 1258 OFFCURVE",
"377 1089 CURVE SMOOTH",
"623 775 LINE",
"623 772 LINE",
"569 739 OFFCURVE",
"527 699 OFFCURVE",
"495 654 CURVE SMOOTH",
"284 357 LINE SMOOTH",
"201 240 OFFCURVE",
"107 140 OFFCURVE",
"15 135 CURVE",
"15 0 LINE",
"331 0 LINE",
"364 2 OFFCURVE",
"476 128 OFFCURVE",
"531 208 CURVE SMOOTH",
"733 503 LINE",
"771 554 OFFCURVE",
"816 619 OFFCURVE",
"853 646 CURVE",
"927 645 LINE",
"927 336 LINE SMOOTH",
"927 262 OFFCURVE",
"930 187 OFFCURVE",
"935 152 CURVE",
"891 155 OFFCURVE",
"810 157 OFFCURVE",
"781 158 CURVE",
"781 0 LINE",
"1369 0 LINE",
"1369 135 LINE",
"1277 140 OFFCURVE",
"1223 148 OFFCURVE",
"1223 313 CURVE SMOOTH",
"1223 1098 LINE SMOOTH",
"1223 1172 OFFCURVE",
"1220 1247 OFFCURVE",
"1215 1282 CURVE",
"1259 1279 OFFCURVE",
"1340 1277 OFFCURVE",
"1369 1276 CURVE",
"1369 1434 LINE",
"781 1434 LINE",
"781 1299 LINE",
"873 1294 OFFCURVE",
"927 1286 OFFCURVE",
"927 1121 CURVE SMOOTH",
"927 809 LINE",
"778 809 LINE",
"572 1077 LINE SMOOTH",
"461 1221 OFFCURVE",
"436 1254 OFFCURVE",
"400 1282 CURVE",
"400 1284 LINE",
"444 1281 OFFCURVE",
"501 1277 OFFCURVE",
"530 1276 CURVE",
"530 1434 LINE",
"60 1434 LINE"
);
}
);
};
layerId = "6B2A2AD0-3CEC-4B3D-96BE-6A11A3496094";
name = "Bold Italic";
paths = (
{
closed = 1;
nodes = (
"1659 654 LINE SMOOTH",
"1629 699 OFFCURVE",
"1589 739 OFFCURVE",
"1537 772 CURVE",
"1537 775 LINE",
"1799 1089 LINE SMOOTH",
"1940 1258 OFFCURVE",
"2035 1294 OFFCURVE",
"2128 1299 CURVE",
"2135 1434 LINE",
"1668 1434 LINE",
"1659 1276 LINE",
"1688 1277 OFFCURVE",
"1746 1281 OFFCURVE",
"1790 1284 CURVE",
"1790 1282 LINE",
"1752 1254 OFFCURVE",
"1725 1221 OFFCURVE",
"1607 1077 CURVE SMOOTH",
"1387 809 LINE",
"1235 809 LINE",
"1251 1121 LINE SMOOTH",
"1260 1286 OFFCURVE",
"1314 1294 OFFCURVE",
"1407 1299 CURVE",
"1414 1434 LINE",
"826 1434 LINE",
"817 1276 LINE",
"846 1277 OFFCURVE",
"927 1279 OFFCURVE",
"972 1282 CURVE",
"965 1247 OFFCURVE",
"958 1172 OFFCURVE",
"954 1098 CURVE SMOOTH",
"939 809 LINE",
"795 809 LINE",
"603 1077 LINE SMOOTH",
"530 1178 OFFCURVE",
"474 1255 OFFCURVE",
"440 1282 CURVE",
"440 1284 LINE",
"484 1281 OFFCURVE",
"540 1277 OFFCURVE",
"569 1276 CURVE",
"578 1434 LINE",
"105 1434 LINE",
"98 1299 LINE",
"189 1294 OFFCURVE",
"279 1258 OFFCURVE",
"403 1089 CURVE SMOOTH",
"633 775 LINE",
"633 772 LINE",
"577 739 OFFCURVE",
"533 699 OFFCURVE",
"499 654 CURVE SMOOTH",
"272 357 LINE SMOOTH",
"183 240 OFFCURVE",
"84 140 OFFCURVE",
"-9 135 CURVE",
"-16 0 LINE",
"300 0 LINE",
"334 2 OFFCURVE",
"452 128 OFFCURVE",
"511 208 CURVE SMOOTH",
"729 503 LINE",
"769 554 OFFCURVE",
"818 619 OFFCURVE",
"856 646 CURVE",
"930 646 LINE",
"913 313 LINE SMOOTH",
"904 148 OFFCURVE",
"850 140 OFFCURVE",
"757 135 CURVE",
"750 0 LINE",
"1338 0 LINE",
"1347 158 LINE",
"1318 157 OFFCURVE",
"1237 155 OFFCURVE",
"1192 152 CURVE",
"1199 187 OFFCURVE",
"1206 262 OFFCURVE",
"1210 336 CURVE SMOOTH",
"1226 645 LINE",
"1300 645 LINE",
"1336 619 OFFCURVE",
"1377 554 OFFCURVE",
"1413 503 CURVE",
"1599 208 LINE SMOOTH",
"1650 128 OFFCURVE",
"1756 2 OFFCURVE",
"1788 0 CURVE",
"2104 0 LINE",
"2111 135 LINE",
"2020 140 OFFCURVE",
"1931 240 OFFCURVE",
"1854 357 CURVE SMOOTH"
);
}
);
width = 2142;
}
);
leftMetricsKey = "=|Ka-cy";
rightMetricsKey = "Ka-cy";
unicode = 0416;
userData = {
public.markColor = "0.67,0.95,0.38,1";
};
},
